<svg class="marks" width="933" height="703" viewBox="0 0 933 703" version="1.1" xmlns="http://www.w3.org/2000/svg" xmlns:xlink="http://www.w3.org/1999/xlink"><rect width="933" height="703" style="fill: white;"></rect><defs><clipPath id="clip1"><rect x="0" y="0" width="800" height="400"></rect></clipPath><clipPath id="clip2"><rect x="0" y="0" width="800" height="400"></rect></clipPath><clipPath id="clip3"><rect x="0" y="0" width="800" height="400"></rect></clipPath><clipPath id="clip4"><rect x="0" y="0" width="800" height="400"></rect></clipPath><clipPath id="clip5"><rect x="0" y="0" width="800" height="400"></rect></clipPath><clipPath id="clip6"><rect x="0" y="0" width="800" height="400"></rect></clipPath><clipPath id="clip7"><rect x="0" y="0" width="800" height="400"></rect></clipPath></defs><g transform="translate(49,11)"><g class="mark-group role-frame root"><g transform="translate(0,0)"><path class="background" d="M0,0h800v0h-800Z" style="fill: none;"></path><g><g class="mark-group role-scope concat_0_group"><g transform="translate(0,0)"><path class="background" d="M0.5,0.5h800v400h-800Z" style="fill: none; stroke: #ddd;"></path><g><g class="mark-group role-axis"><g transform="translate(0.5,400.5)"><path class="background" d="M0,0h0v0h0Z" style="pointer-events: none; fill: none;"></path><g><g class="mark-rule role-axis-grid" style="pointer-events: none;"><line transform="translate(0,-400)" x2="0" y2="400" style="fill: none; stroke: #ddd; stroke-width: 1; opacity: 1;"></line><line transform="translate(44,-400)" x2="0" y2="400" style="fill: none; stroke: #ddd; stroke-width: 1; opacity: 1;"></line><line transform="translate(89,-400)" x2="0" y2="400" style="fill: none; stroke: #ddd; stroke-width: 1; opacity: 1;"></line><line transform="translate(133,-400)" x2="0" y2="400" style="fill: none; stroke: #ddd; stroke-width: 1; opacity: 1;"></line><line transform="translate(178,-400)" x2="0" y2="400" style="fill: none; stroke: #ddd; stroke-width: 1; opacity: 1;"></line><line transform="translate(222,-400)" x2="0" y2="400" style="fill: none; stroke: #ddd; stroke-width: 1; opacity: 1;"></line><line transform="translate(267,-400)" x2="0" y2="400" style="fill: none; stroke: #ddd; stroke-width: 1; opacity: 1;"></line><line transform="translate(311,-400)" x2="0" y2="400" style="fill: none; stroke: #ddd; stroke-width: 1; opacity: 1;"></line><line transform="translate(356,-400)" x2="0" y2="400" style="fill: none; stroke: #ddd; stroke-width: 1; opacity: 1;"></line><line transform="translate(400,-400)" x2="0" y2="400" style="fill: none; stroke: #ddd; stroke-width: 1; opacity: 1;"></line><line transform="translate(444,-400)" x2="0" y2="400" style="fill: none; stroke: #ddd; stroke-width: 1; opacity: 1;"></line><line transform="translate(489,-400)" x2="0" y2="400" style="fill: none; stroke: #ddd; stroke-width: 1; opacity: 1;"></line><line transform="translate(533,-400)" x2="0" y2="400" style="fill: none; stroke: #ddd; stroke-width: 1; opacity: 1;"></line><line transform="translate(578,-400)" x2="0" y2="400" style="fill: none; stroke: #ddd; stroke-width: 1; opacity: 1;"></line><line transform="translate(622,-400)" x2="0" y2="400" style="fill: none; stroke: #ddd; stroke-width: 1; opacity: 1;"></line><line transform="translate(667,-400)" x2="0" y2="400" style="fill: none; stroke: #ddd; stroke-width: 1; opacity: 1;"></line><line transform="translate(711,-400)" x2="0" y2="400" style="fill: none; stroke: #ddd; stroke-width: 1; opacity: 1;"></line><line transform="translate(756,-400)" x2="0" y2="400" style="fill: none; stroke: #ddd; stroke-width: 1; opacity: 1;"></line><line transform="translate(800,-400)" x2="0" y2="400" style="fill: none; stroke: #ddd; stroke-width: 1; opacity: 1;"></line></g></g></g></g><g class="mark-group role-axis"><g transform="translate(0.5,0.5)"><path class="background" d="M0,0h0v0h0Z" style="pointer-events: none; fill: none;"></path><g><g class="mark-rule role-axis-grid" style="pointer-events: none;"><line transform="translate(0,400)" x2="800" y2="0" style="fill: none; stroke: #ddd; stroke-width: 1; opacity: 1;"></line><line transform="translate(0,364)" x2="800" y2="0" style="fill: none; stroke: #ddd; stroke-width: 1; opacity: 1;"></line><line transform="translate(0,327)" x2="800" y2="0" style="fill: none; stroke: #ddd; stroke-width: 1; opacity: 1;"></line><line transform="translate(0,291)" x2="800" y2="0" style="fill: none; stroke: #ddd; stroke-width: 1; opacity: 1;"></line><line transform="translate(0,255)" x2="800" y2="0" style="fill: none; stroke: #ddd; stroke-width: 1; opacity: 1;"></line><line transform="translate(0,218)" x2="800" y2="0" style="fill: none; stroke: #ddd; stroke-width: 1; opacity: 1;"></line><line transform="translate(0,182)" x2="800" y2="0" style="fill: none; stroke: #ddd; stroke-width: 1; opacity: 1;"></line><line transform="translate(0,145)" x2="800" y2="0" style="fill: none; stroke: #ddd; stroke-width: 1; opacity: 1;"></line><line transform="translate(0,109)" x2="800" y2="0" style="fill: none; stroke: #ddd; stroke-width: 1; opacity: 1;"></line><line transform="translate(0,73)" x2="800" y2="0" style="fill: none; stroke: #ddd; stroke-width: 1; opacity: 1;"></line><line transform="translate(0,36)" x2="800" y2="0" style="fill: none; stroke: #ddd; stroke-width: 1; opacity: 1;"></line><line transform="translate(0,0)" x2="800" y2="0" style="fill: none; stroke: #ddd; stroke-width: 1; opacity: 1;"></line></g></g></g></g><g class="mark-group role-scope concat_0_layer_0_layer_0_pathgroup"><g transform="translate(0,0)"><path class="background" d="M0,0h800v400h-800Z" style="fill: none;"></path><g><g class="mark-trail role-mark concat_0_layer_0_layer_0_marks" clip-path="url(#clip1)"><path d="M79.39032203502987,188.39064051195024L101.6125442572521,170.2088223301318A15,15,0,1,1,120.60967796497013,193.42754130623132L98.3874557427479,211.60935948804976A15,15,0,0,1,79.39032203502985,188.39064051195027ZM124.58687652489913,175.2300298381074L169.0313209693436,266.13912074719826A15,15,0,1,1,142.07979014176755,279.31542470734655L97.6353456973231,188.4063337982557A15,15,0,1,1,124.58687652489913,175.2300298381074ZM142.75632805077612,264.90552258546285L165.7150137603765,228.99194724189041A14.136904761904761,14.136904761904761,0,1,1,189.84054179517904,243.73532548538063L168.35478306033502,280.54902286908197A15,15,0,1,1,142.75632805077612,264.90552258546285ZM172.4250812980983,223.27926719108493L217.19632194867054,205.89628417980248A13.273809523809524,13.273809523809524,0,1,1,227.2481224957739,230.46735218383435L183.13047425745725,249.44800553618612A14.136904761904761,14.136904761904761,0,1,1,172.4250812980983,223.27926719108493ZM217.19632194867023,205.89628417980262L261.96756259924246,188.51330116851886A12.410714285714285,12.410714285714285,0,1,1,271.3657707340908,211.48669883148114L227.24812249577423,230.4673521838342A13.273809523809524,13.273809523809524,0,1,1,217.19632194867023,205.89628417980262ZM258.8077333768666,190.39463709024454L282.1230446417948,173.54881662728897A10.684523809523808,10.684523809523808,0,1,1,295.6547331359829,190.08754700907414L274.52559995646664,209.60536290975546A12.410714285714285,12.410714285714285,0,0,1,258.8077333768666,190.39463709024454ZM282.1230446417949,173.54881662728897L305.16508364604664,156.36899673461772A9.389880952380953,9.389880952380953,0,1,1,317.05713857617565,170.90373053810862L295.65473313598284,190.08754700907414A10.684523809523808,10.684523809523808,0,1,1,282.1230446417949,173.54881662728894ZM307.55579376513435,154.94558790175333L352.4904325187705,137.96202247573692A8.095238095238095,8.095238095238095,0,1,1,358.6206785923406,152.9470684333526L314.66642845708793,172.32713937097301A9.389880952380953,9.389880952380953,0,1,1,307.55579376513435,154.94558790175333ZM349.0275151129143,140.66731579660754L362.5348495242224,122.61309840530524A7.879464285714286,7.879464285714286,0,1,1,375.2429282535554,131.93235614014995L362.0835959981968,150.24177511248197A8.095238095238095,8.095238095238095,0,1,1,349.0275151129143,140.66731579660754ZM374.9486785288994,122.23636877191886L449.50857459686114,213.97296334403208A6.584821428571429,6.584821428571429,0,1,1,439.3803142920278,222.39067301960475L362.82909924887844,132.3090857735363A7.879464285714286,7.879464285714286,0,1,1,374.9486785288994,122.23636877191886ZM442.31969425030377,211.9492176123392L495.72265216627005,193.97163153957717A6.3690476190476195,6.3690476190476195,0,1,1,499.8329033892857,206.02836846042283L446.56919463858515,224.41441875129763A6.584821428571429,6.584821428571429,0,1,1,442.31969425030377,211.9492176123392ZM492.0559250028758,197.20264975449234L545.889385701417,88.35624737546264A5.81235119047619,5.81235119047619,0,1,1,556.3328365208049,93.46193444271888L503.49963055267995,202.79735024550766A6.3690476190476195,6.3690476190476195,0,1,1,492.0559250028758,197.20264975449234ZM553.1371541750495,85.46128622605593L601.6183861234257,104.73924862569797A4.642857142857142,4.642857142857142,0,1,1,598.3816138765743,113.4425695561205L549.0850680471724,96.3568955921256A5.81235119047619,5.81235119047619,0,1,1,553.1371541750495,85.46128622605593ZM597.059967402377,105.4975359160367L619.2821896245993,87.31571773421823A4.642857142857142,4.642857142857142,0,1,1,625.1622548198453,94.5024640839633L602.940032597623,112.68428226578177A4.642857142857142,4.642857142857142,0,1,1,597.059967402377,105.4975359160367ZM619.3964827088676,87.22516383982823L690.5075938199786,32.6797092943743A4.642857142857142,4.642857142857142,0,1,1,696.1590728466881,40.04756343289936L625.047961735577,94.5930179783533A4.642857142857142,4.642857142857142,0,1,1,619.3964827088676,87.22516383982823Z" style="fill: #bd9e45;"></path></g></g></g><g transform="translate(0,0)"><path class="background" d="M0,0h800v400h-800Z" style="fill: none;"></path><g><g class="mark-trail role-mark concat_0_layer_0_layer_0_marks" clip-path="url(#clip2)"><path d="M697.7777777777778,59.188311688311074L688.8888888888889,59.102002164501556A4.5565476190476195,4.5565476190476195,0,1,1,688.8888888888889,49.988906926406315L697.7777777777778,49.9025974025968A4.642857142857142,4.642857142857142,0,1,1,697.7777777777778,59.188311688311074ZM693.3775292345969,55.32918539946643L671.112795395776,182.5944900089784A4.513392857142858,4.513392857142858,0,1,1,662.2205379375575,181.04187362738472L684.400248543181,53.76172369144144A4.5565476190476195,4.5565476190476195,0,1,1,693.3775292345969,55.32918539946643ZM666.6666666666667,186.33157467532442L657.7777777777777,186.28841991341966A4.470238095238096,4.470238095238096,0,1,1,657.7777777777777,177.34794372294346L666.6666666666667,177.3047889610387A4.513392857142858,4.513392857142858,0,1,1,666.6666666666667,186.33157467532442ZM654.8310159648347,185.1796730714647L592.8648206511272,130.34215820074212A4.081845238095238,4.081845238095238,0,1,1,598.2462904599837,124.20329634471307L660.7245395907207,178.45669056489842A4.470238095238096,4.470238095238096,0,1,1,654.8310159648347,185.1796730714647ZM596.9783866890671,131.09856209839253L547.6081316711593,147.98604024440326A2.7008928571428568,2.7008928571428568,0,1,1,545.7252016621737,142.92305066468626L594.1327244220438,123.44689244706265A4.081845238095238,4.081845238095238,0,1,1,596.9783866890671,131.09856209839253ZM548.9712894763069,146.86292606043605L503.8640278932221,219.1851438696517A1.9241071428571428,1.9241071428571428,0,0,1,500.58041655122213,217.17849249398512L544.3620438570262,144.04616484865346A2.7008928571428568,2.7008928571428568,0,1,1,548.9712894763069,146.86292606043605ZM503.24710999280194,219.81025097285087L445.1705056956828,255.6990852001993A1.3630952380952381,1.3630952380952381,0,1,1,443.71838319320614,253.39182389070862L501.1973344516423,216.55338539078596A1.9241071428571428,1.9241071428571428,0,1,1,503.24710999280194,219.81025097285087ZM445.065047142858,255.7590776001294L373.8753444236508,291.9690237079339A1.1904761904761905,1.1904761904761905,0,0,1,372.7913222430157,289.84915811024763L443.8238417460309,253.33183149077854A1.3630952380952381,1.3630952380952381,0,1,1,445.065047142858,255.7590776001294ZM373.71746896165246,292.0358887521605L320.3841356283192,310.21770693397895A1.1904761904761905,1.1904761904761905,0,1,1,319.6158643716808,307.9641112478395L372.94919770501406,289.78229306602105A1.1904761904761905,1.1904761904761905,0,1,1,373.71746896165246,292.0358887521605ZM320.60067621344615,310.11873283391714L289.489565102335,328.30055101573424A1.1904761904761905,1.1904761904761905,0,1,1,288.2882126754427,326.24490352971844L319.39932378655385,308.06308534790134A1.1904761904761905,1.1904761904761905,0,1,1,320.60067621344615,310.11873283391714ZM287.8193836973184,327.79559647749414L278.93049480842956,309.61377829567704A1.1904761904761905,1.1904761904761905,0,1,1,281.06950519157044,308.56803988614143L289.9583940804593,326.74985806795854A1.1904761904761905,1.1904761904761905,0,1,1,287.8193836973184,327.79559647749414ZM279.14880158450825,309.9231919860567L243.5932460289527,273.55955562241985A1.1904761904761905,1.1904761904761905,0,1,1,245.2956428599362,271.89498983212496L280.85119841549175,308.2586261957618A1.1904761904761905,1.1904761904761905,0,1,1,279.14880158450825,309.9231919860567ZM245.34903045224877,273.5011963117272L213.97558939887443,309.64039483587214A0.8452380952380952,0.8452380952380952,0,1,1,212.6910772677923,308.5414233459463L243.53985843664015,271.9533491428176A1.1904761904761905,1.1904761904761905,0,1,1,245.34903045224877,273.5011963117272ZM212.72898245833423,309.68182994646395L194.8894927954332,291.5603522745437A0.9315476190476191,0.9315476190476191,0,1,1,196.22161831567777,290.25782954363785L213.9376842083325,308.4999882353545A0.8452380952380952,0.8452380952380952,0,1,1,212.72898245833423,309.68182994646395ZM195.5555555555555,291.84063852813836L133.33333333333331,291.5817099567098A0.6726190476190477,0.6726190476190477,0,1,1,133.33333333333331,290.2364718614717L195.5555555555555,289.9775432900432A0.9315476190476191,0.9315476190476191,0,1,1,195.5555555555555,291.84063852813836ZM133.33333333333331,291.5817099567098L106.6666666666666,291.40909090909076A0.5,0.5,0,1,1,106.6666666666666,290.40909090909076L133.33333333333331,290.2364718614717A0.6726190476190477,0.6726190476190477,0,1,1,133.33333333333331,291.5817099567098ZM106.6666666666666,291.40909090909076L97.77777777777774,291.40909090909076A0.5,0.5,0,1,1,97.77777777777774,290.40909090909076L106.6666666666666,290.40909090909076A0.5,0.5,0,1,1,106.6666666666666,291.40909090909076ZM97.77777777777774,291.40909090909076L93.3333333333334,291.40909090909076A0.5,0.5,0,1,1,93.3333333333334,290.40909090909076L97.77777777777774,290.40909090909076A0.5,0.5,0,1,1,97.77777777777774,291.40909090909076Z" style="fill: gray;"></path></g></g></g><g transform="translate(0,0)"><path class="background" d="M0,0h800v400h-800Z" style="fill: none;"></path><g><g class="mark-trail role-mark concat_0_layer_0_layer_0_marks" clip-path="url(#clip3)"><path d="M87.04194533397185,161.3789881803535L109.26416755619408,143.1971699985351A2.9166666666666665,2.9166666666666665,0,1,1,112.95805466602815,147.71192091055443L90.73583244380592,165.89373909237284A2.9166666666666665,2.9166666666666665,0,0,1,87.04194533397185,161.3789881803535ZM113.73139883045879,144.17351590286367L158.17584327490323,235.08260681195443A2.9166666666666665,2.9166666666666665,0,1,1,152.9352678362079,237.6446659153166L108.49082339176344,146.73557500622584A2.9166666666666665,2.9166666666666665,0,0,1,113.73139883045879,144.17351590286367ZM152.7389346700104,235.60627830330003L202.46131341278516,54.012212645829976A2.0535714285714284,2.0535714285714284,0,1,1,206.42757547610387,55.078696445077895L158.37217644110075,237.120994423971A2.9166666666666665,2.9166666666666665,0,1,1,152.7389346700104,235.60627830330003ZM205.37941357524227,52.71707046744948L240.79743381662962,71.1678465969744A1.7514880952380951,1.7514880952380951,0,1,1,239.20256618337027,74.28669885757041L203.50947531364676,56.37383862345839A2.0535714285714284,2.0535714285714284,0,0,1,205.37941357524227,52.71707046744948ZM240.5257502832073,71.0565551606358L298.30352806098506,89.23837334245415A1.7514880952380951,1.7514880952380951,0,1,1,297.25202749457037,92.57980847572738L239.4742497167926,74.39799029390902A1.7514880952380951,1.7514880952380951,0,1,1,240.5257502832073,71.0565551606358Z" style="fill: #bd9e45;"></path></g></g></g><g transform="translate(0,0)"><path class="background" d="M0,0h800v400h-800Z" style="fill: none;"></path><g><g class="mark-trail role-mark concat_0_layer_0_layer_0_marks" clip-path="url(#clip4)"><path d="M299.52157592642396,90.74514407460265L321.61490227869535,327.12089885336184A1.6220238095238095,1.6220238095238095,0,1,1,318.38509772130465,327.42455569209085L296.03397962913147,91.07303774357888A1.7514880952380951,1.7514880952380951,0,1,1,299.52157592642396,90.74514407460265ZM320.8184213408204,328.67313712257453L289.70731022970926,346.85495530439294A1.6220238095238095,1.6220238095238095,0,1,1,288.07046754806845,344.05413560469657L319.1815786591796,325.87231742287815A1.6220238095238095,1.6220238095238095,0,1,1,320.8184213408204,328.67313712257453ZM287.4316880653741,346.16695474604086L278.6203383028741,327.9472285468768A1.5357142857142856,1.5357142857142856,0,1,1,281.3796616971259,326.5982259985759L290.3460897124036,344.74213616304866A1.6220238095238095,1.6220238095238095,0,1,1,287.4316880653741,346.16695474604086Z" style="fill: gray;"></path></g></g></g><g transform="translate(0,0)"><path class="background" d="M0,0h800v400h-800Z" style="fill: none;"></path><g><g class="mark-trail role-mark concat_0_layer_0_layer_0_marks" clip-path="url(#clip5)"><path d="M88.08037992454258,144.4663678314548L110.30260214676481,126.28454964963761A1.2767857142857142,1.2767857142857142,0,1,1,111.91962007545742,128.26090489581756L89.69739785323519,146.44272307763472A1.2767857142857142,1.2767857142857142,0,1,1,88.08037992454258,144.4663678314548ZM109.835848504799,127.21038110086344L114.96994545428875,36.33500653646378A0.5863095238095238,0.5863095238095238,0,1,1,116.14116565682248,36.39226619080988L112.38637371742323,127.33507344459174A1.2767857142857142,1.2767857142857142,0,1,1,109.835848504799,127.21038110086344Z" style="fill: #bd9e45;"></path></g></g></g><g transform="translate(0,0)"><path class="background" d="M0,0h800v400h-800Z" style="fill: none;"></path><g><g class="mark-trail role-mark concat_0_layer_0_layer_0_marks" clip-path="url(#clip6)"><path d="M116.14044033828714,36.404485459573635L98.36266256050926,290.94994000502754A0.5863095238095238,0.5863095238095238,0,1,1,97.19289299504622,290.868241813154L114.97067077282409,36.32278726770002A0.5863095238095238,0.5863095238095238,0,1,1,116.14044033828714,36.404485459573635ZM97.77777777777774,291.4954004329003L93.3333333333334,291.4954004329003A0.5863095238095238,0.5863095238095238,0,1,1,93.3333333333334,290.32278138528125L97.77777777777774,290.32278138528125A0.5863095238095238,0.5863095238095238,0,1,1,97.77777777777774,291.4954004329003Z" style="fill: gray;"></path></g></g></g></g><g class="mark-symbol role-mark concat_0_layer_0_layer_1_marks" clip-path="url(#clip7)"><path transform="translate(88.88888888888889,200)" d="M2.7386127875258306,0A2.7386127875258306,2.7386127875258306,0,1,1,-2.7386127875258306,0A2.7386127875258306,2.7386127875258306,0,1,1,2.7386127875258306,0" style="fill: #bd9e45; stroke-width: 2; opacity: 1;"></path><path transform="translate(111.11111111111111,181.81818181818156)" d="M2.7386127875258306,0A2.7386127875258306,2.7386127875258306,0,1,1,-2.7386127875258306,0A2.7386127875258306,2.7386127875258306,0,1,1,2.7386127875258306,0" style="fill: #bd9e45; stroke-width: 2; opacity: 1;"></path><path transform="translate(155.55555555555557,272.7272727272724)" d="M2.7386127875258306,0A2.7386127875258306,2.7386127875258306,0,1,1,-2.7386127875258306,0A2.7386127875258306,2.7386127875258306,0,1,1,2.7386127875258306,0" style="fill: #bd9e45; stroke-width: 2; opacity: 1;"></path><path transform="translate(177.77777777777777,236.36363636363552)" d="M2.6586561231103922,0A2.6586561231103922,2.6586561231103922,0,1,1,-2.6586561231103922,0A2.6586561231103922,2.6586561231103922,0,1,1,2.6586561231103922,0" style="fill: #bd9e45; stroke-width: 2; opacity: 1;"></path><path transform="translate(222.22222222222223,218.18181818181841)" d="M2.5762190826683904,0A2.5762190826683904,2.5762190826683904,0,1,1,-2.5762190826683904,0A2.5762190826683904,2.5762190826683904,0,1,1,2.5762190826683904,0" style="fill: #bd9e45; stroke-width: 2; opacity: 1;"></path><path transform="translate(266.66666666666663,200)" d="M2.4910554274959726,0A2.4910554274959726,2.4910554274959726,0,1,1,-2.4910554274959726,0A2.4910554274959726,2.4910554274959726,0,1,1,2.4910554274959726,0" style="fill: #bd9e45; stroke-width: 2; opacity: 1;"></path><path transform="translate(288.88888888888886,181.81818181818156)" d="M2.311333360803219,0A2.311333360803219,2.311333360803219,0,1,1,-2.311333360803219,0A2.311333360803219,2.311333360803219,0,1,1,2.311333360803219,0" style="fill: #bd9e45; stroke-width: 2; opacity: 1;"></path><path transform="translate(311.11111111111114,163.63636363636317)" d="M2.166781132507498,0A2.166781132507498,2.166781132507498,0,1,1,-2.166781132507498,0A2.166781132507498,2.166781132507498,0,1,1,2.166781132507498,0" style="fill: #bd9e45; stroke-width: 2; opacity: 1;"></path><path transform="translate(355.55555555555554,145.45454545454476)" d="M2.011869540407391,0A2.011869540407391,2.011869540407391,0,1,1,-2.011869540407391,0A2.011869540407391,2.011869540407391,0,1,1,2.011869540407391,0" style="fill: #bd9e45; stroke-width: 2; opacity: 1;"></path><path transform="translate(368.8888888888889,127.2727272727276)" d="M1.984875850741588,0A1.984875850741588,1.984875850741588,0,1,1,-1.984875850741588,0A1.984875850741588,1.984875850741588,0,1,1,1.984875850741588,0" style="fill: #bd9e45; stroke-width: 2; opacity: 1;"></path><path transform="translate(444.44444444444446,218.18181818181841)" d="M1.8145001279376407,0A1.8145001279376407,1.8145001279376407,0,1,1,-1.8145001279376407,0A1.8145001279376407,1.8145001279376407,0,1,1,1.8145001279376407,0" style="fill: #bd9e45; stroke-width: 2; opacity: 1;"></path><path transform="translate(497.7777777777779,200)" d="M1.7845234124336418,0A1.7845234124336418,1.7845234124336418,0,1,1,-1.7845234124336418,0A1.7845234124336418,1.7845234124336418,0,1,1,1.7845234124336418,0" style="fill: #bd9e45; stroke-width: 2; opacity: 1;"></path><path transform="translate(551.111111111111,90.90909090909076)" d="M1.704750889496203,0A1.704750889496203,1.704750889496203,0,1,1,-1.704750889496203,0A1.704750889496203,1.704750889496203,0,1,1,1.704750889496203,0" style="fill: #bd9e45; stroke-width: 2; opacity: 1;"></path><path transform="translate(600,109.09090909090924)" d="M1.52362350055011,0A1.52362350055011,1.52362350055011,0,1,1,-1.52362350055011,0A1.52362350055011,1.52362350055011,0,1,1,1.52362350055011,0" style="fill: #bd9e45; stroke-width: 2; opacity: 1;"></path><path transform="translate(622.2222222222223,90.90909090909076)" d="M1.52362350055011,0A1.52362350055011,1.52362350055011,0,1,1,-1.52362350055011,0A1.52362350055011,1.52362350055011,0,1,1,1.52362350055011,0" style="fill: #bd9e45; stroke-width: 2; opacity: 1;"></path><path transform="translate(693.3333333333334,36.36363636363683)" d="M1.52362350055011,0A1.52362350055011,1.52362350055011,0,1,1,-1.52362350055011,0A1.52362350055011,1.52362350055011,0,1,1,1.52362350055011,0" style="fill: #bd9e45; stroke-width: 2; opacity: 1;"></path><path transform="translate(697.7777777777778,54.545454545453936)" d="M1.52362350055011,0A1.52362350055011,1.52362350055011,0,1,1,-1.52362350055011,0A1.52362350055011,1.52362350055011,0,1,1,1.52362350055011,0" style="fill: gray; stroke-width: 2; opacity: 1;"></path><path transform="translate(688.8888888888889,54.545454545453936)" d="M1.5093951800386172,0A1.5093951800386172,1.5093951800386172,0,1,1,-1.5093951800386172,0A1.5093951800386172,1.5093951800386172,0,1,1,1.5093951800386172,0" style="fill: gray; stroke-width: 2; opacity: 1;"></path><path transform="translate(666.6666666666667,181.81818181818156)" d="M1.5022304845034362,0A1.5022304845034362,1.5022304845034362,0,1,1,-1.5022304845034362,0A1.5022304845034362,1.5022304845034362,0,1,1,1.5022304845034362,0" style="fill: gray; stroke-width: 2; opacity: 1;"></path><path transform="translate(657.7777777777777,181.81818181818156)" d="M1.4950314537223115,0A1.4950314537223115,1.4950314537223115,0,1,1,-1.4950314537223115,0A1.4950314537223115,1.4950314537223115,0,1,1,1.4950314537223115,0" style="fill: gray; stroke-width: 2; opacity: 1;"></path><path transform="translate(595.5555555555554,127.2727272727276)" d="M1.4286086304679875,0A1.4286086304679875,1.4286086304679875,0,1,1,-1.4286086304679875,0A1.4286086304679875,1.4286086304679875,0,1,1,1.4286086304679875,0" style="fill: gray; stroke-width: 2; opacity: 1;"></path><path transform="translate(546.6666666666665,145.45454545454476)" d="M1.1620871002517101,0A1.1620871002517101,1.1620871002517101,0,1,1,-1.1620871002517101,0A1.1620871002517101,1.1620871002517101,0,1,1,1.1620871002517101,0" style="fill: gray; stroke-width: 2; opacity: 1;"></path><path transform="translate(502.2222222222221,218.18181818181841)" d="M0.9808432960613899,0A0.9808432960613899,0.9808432960613899,0,1,1,-0.9808432960613899,0A0.9808432960613899,0.9808432960613899,0,1,1,0.9808432960613899,0" style="fill: gray; stroke-width: 2; opacity: 1;"></path><path transform="translate(444.44444444444446,254.54545454545396)" d="M0.8255589736945623,0A0.8255589736945623,0.8255589736945623,0,1,1,-0.8255589736945623,0A0.8255589736945623,0.8255589736945623,0,1,1,0.8255589736945623,0" style="fill: gray; stroke-width: 2; opacity: 1;"></path><path transform="translate(373.33333333333326,290.90909090909076)" d="M0.7715167498104596,0A0.7715167498104596,0.7715167498104596,0,1,1,-0.7715167498104596,0A0.7715167498104596,0.7715167498104596,0,1,1,0.7715167498104596,0" style="fill: gray; stroke-width: 2; opacity: 1;"></path><path transform="translate(320,309.09090909090924)" d="M0.7715167498104596,0A0.7715167498104596,0.7715167498104596,0,1,1,-0.7715167498104596,0A0.7715167498104596,0.7715167498104596,0,1,1,0.7715167498104596,0" style="fill: gray; stroke-width: 2; opacity: 1;"></path><path transform="translate(288.88888888888886,327.27272727272634)" d="M0.7715167498104596,0A0.7715167498104596,0.7715167498104596,0,1,1,-0.7715167498104596,0A0.7715167498104596,0.7715167498104596,0,1,1,0.7715167498104596,0" style="fill: gray; stroke-width: 2; opacity: 1;"></path><path transform="translate(280,309.09090909090924)" d="M0.7715167498104596,0A0.7715167498104596,0.7715167498104596,0,1,1,-0.7715167498104596,0A0.7715167498104596,0.7715167498104596,0,1,1,0.7715167498104596,0" style="fill: gray; stroke-width: 2; opacity: 1;"></path><path transform="translate(244.44444444444446,272.7272727272724)" d="M0.7715167498104596,0A0.7715167498104596,0.7715167498104596,0,1,1,-0.7715167498104596,0A0.7715167498104596,0.7715167498104596,0,1,1,0.7715167498104596,0" style="fill: gray; stroke-width: 2; opacity: 1;"></path><path transform="translate(213.33333333333337,309.09090909090924)" d="M0.6500915686417165,0A0.6500915686417165,0.6500915686417165,0,1,1,-0.6500915686417165,0A0.6500915686417165,0.6500915686417165,0,1,1,0.6500915686417165,0" style="fill: gray; stroke-width: 2; opacity: 1;"></path><path transform="translate(195.5555555555555,290.90909090909076)" d="M0.6824762336695759,0A0.6824762336695759,0.6824762336695759,0,1,1,-0.6824762336695759,0A0.6824762336695759,0.6824762336695759,0,1,1,0.6824762336695759,0" style="fill: gray; stroke-width: 2; opacity: 1;"></path><path transform="translate(133.33333333333331,290.90909090909076)" d="M0.5799219980389809,0A0.5799219980389809,0.5799219980389809,0,1,1,-0.5799219980389809,0A0.5799219980389809,0.5799219980389809,0,1,1,0.5799219980389809,0" style="fill: gray; stroke-width: 2; opacity: 1;"></path><path transform="translate(106.6666666666666,290.90909090909076)" d="M0.5,0A0.5,0.5,0,1,1,-0.5,0A0.5,0.5,0,1,1,0.5,0" style="fill: gray; stroke-width: 2; opacity: 1;"></path><path transform="translate(97.77777777777774,290.90909090909076)" d="M0.5,0A0.5,0.5,0,1,1,-0.5,0A0.5,0.5,0,1,1,0.5,0" style="fill: gray; stroke-width: 2; opacity: 1;"></path><path transform="translate(93.3333333333334,290.90909090909076)" d="M0.5,0A0.5,0.5,0,1,1,-0.5,0A0.5,0.5,0,1,1,0.5,0" style="fill: gray; stroke-width: 2; opacity: 1;"></path><path transform="translate(88.88888888888889,163.63636363636317)" d="M1.20761472884912,0A1.20761472884912,1.20761472884912,0,1,1,-1.20761472884912,0A1.20761472884912,1.20761472884912,0,1,1,1.20761472884912,0" style="fill: #bd9e45; stroke-width: 2; opacity: 1;"></path><path transform="translate(111.11111111111111,145.45454545454476)" d="M1.20761472884912,0A1.20761472884912,1.20761472884912,0,1,1,-1.20761472884912,0A1.20761472884912,1.20761472884912,0,1,1,1.20761472884912,0" style="fill: #bd9e45; stroke-width: 2; opacity: 1;"></path><path transform="translate(155.55555555555557,236.36363636363552)" d="M1.20761472884912,0A1.20761472884912,1.20761472884912,0,1,1,-1.20761472884912,0A1.20761472884912,1.20761472884912,0,1,1,1.20761472884912,0" style="fill: #bd9e45; stroke-width: 2; opacity: 1;"></path><path transform="translate(204.4444444444445,54.545454545453936)" d="M1.013304354222222,0A1.013304354222222,1.013304354222222,0,1,1,-1.013304354222222,0A1.013304354222222,1.013304354222222,0,1,1,1.013304354222222,0" style="fill: #bd9e45; stroke-width: 2; opacity: 1;"></path><path transform="translate(239.99999999999994,72.7272727272724)" d="M0.935811972363598,0A0.935811972363598,0.935811972363598,0,1,1,-0.935811972363598,0A0.935811972363598,0.935811972363598,0,1,1,0.935811972363598,0" style="fill: #bd9e45; stroke-width: 2; opacity: 1;"></path><path transform="translate(297.7777777777777,90.90909090909076)" d="M0.935811972363598,0A0.935811972363598,0.935811972363598,0,1,1,-0.935811972363598,0A0.935811972363598,0.935811972363598,0,1,1,0.935811972363598,0" style="fill: #bd9e45; stroke-width: 2; opacity: 1;"></path><path transform="translate(297.7777777777777,90.90909090909076)" d="M0.935811972363598,0A0.935811972363598,0.935811972363598,0,1,1,-0.935811972363598,0A0.935811972363598,0.935811972363598,0,1,1,0.935811972363598,0" style="fill: gray; stroke-width: 2; opacity: 1;"></path><path transform="translate(320,327.27272727272634)" d="M0.9005619938471225,0A0.9005619938471225,0.9005619938471225,0,1,1,-0.9005619938471225,0A0.9005619938471225,0.9005619938471225,0,1,1,0.9005619938471225,0" style="fill: gray; stroke-width: 2; opacity: 1;"></path><path transform="translate(288.88888888888886,345.45454545454476)" d="M0.9005619938471225,0A0.9005619938471225,0.9005619938471225,0,1,1,-0.9005619938471225,0A0.9005619938471225,0.9005619938471225,0,1,1,0.9005619938471225,0" style="fill: gray; stroke-width: 2; opacity: 1;"></path><path transform="translate(280,327.27272727272634)" d="M0.876274581884664,0A0.876274581884664,0.876274581884664,0,1,1,-0.876274581884664,0A0.876274581884664,0.876274581884664,0,1,1,0.876274581884664,0" style="fill: gray; stroke-width: 2; opacity: 1;"></path><path transform="translate(88.88888888888889,145.45454545454476)" d="M0.7989949043284676,0A0.7989949043284676,0.7989949043284676,0,1,1,-0.7989949043284676,0A0.7989949043284676,0.7989949043284676,0,1,1,0.7989949043284676,0" style="fill: #bd9e45; stroke-width: 2; opacity: 1;"></path><path transform="translate(111.11111111111111,127.2727272727276)" d="M0.7989949043284676,0A0.7989949043284676,0.7989949043284676,0,1,1,-0.7989949043284676,0A0.7989949043284676,0.7989949043284676,0,1,1,0.7989949043284676,0" style="fill: #bd9e45; stroke-width: 2; opacity: 1;"></path><path transform="translate(115.55555555555561,36.36363636363683)" d="M0.5414376805365156,0A0.5414376805365156,0.5414376805365156,0,1,1,-0.5414376805365156,0A0.5414376805365156,0.5414376805365156,0,1,1,0.5414376805365156,0" style="fill: #bd9e45; stroke-width: 2; opacity: 1;"></path><path transform="translate(115.55555555555561,36.36363636363683)" d="M0.5414376805365156,0A0.5414376805365156,0.5414376805365156,0,1,1,-0.5414376805365156,0A0.5414376805365156,0.5414376805365156,0,1,1,0.5414376805365156,0" style="fill: gray; stroke-width: 2; opacity: 1;"></path><path transform="translate(97.77777777777774,290.90909090909076)" d="M0.5414376805365156,0A0.5414376805365156,0.5414376805365156,0,1,1,-0.5414376805365156,0A0.5414376805365156,0.5414376805365156,0,1,1,0.5414376805365156,0" style="fill: gray; stroke-width: 2; opacity: 1;"></path><path transform="translate(93.3333333333334,290.90909090909076)" d="M0.5414376805365156,0A0.5414376805365156,0.5414376805365156,0,1,1,-0.5414376805365156,0A0.5414376805365156,0.5414376805365156,0,1,1,0.5414376805365156,0" style="fill: gray; stroke-width: 2; opacity: 1;"></path></g><g class="mark-symbol role-mark concat_0_layer_1_layer_0_marks"><path transform="translate(88.88888888888889,181.81818181818156)" d="M1.4142135623730951,0A1.4142135623730951,1.4142135623730951,0,1,1,-1.4142135623730951,0A1.4142135623730951,1.4142135623730951,0,1,1,1.4142135623730951,0" style="fill: none; stroke-width: 2; opacity: 0.7;"></path><path transform="translate(146.6666666666667,236.36363636363552)" d="M1.4142135623730951,0A1.4142135623730951,1.4142135623730951,0,1,1,-1.4142135623730951,0A1.4142135623730951,1.4142135623730951,0,1,1,1.4142135623730951,0" style="fill: none; stroke-width: 2; opacity: 0.7;"></path><path transform="translate(195.5555555555555,290.90909090909076)" d="M1.4142135623730951,0A1.4142135623730951,1.4142135623730951,0,1,1,-1.4142135623730951,0A1.4142135623730951,1.4142135623730951,0,1,1,1.4142135623730951,0" style="fill: none; stroke-width: 2; opacity: 0.7;"></path><path transform="translate(213.33333333333337,309.09090909090924)" d="M1.4142135623730951,0A1.4142135623730951,1.4142135623730951,0,1,1,-1.4142135623730951,0A1.4142135623730951,1.4142135623730951,0,1,1,1.4142135623730951,0" style="fill: none; stroke-width: 2; opacity: 0.7;"></path><path transform="translate(253.33333333333331,145.45454545454476)" d="M1.4142135623730951,0A1.4142135623730951,1.4142135623730951,0,1,1,-1.4142135623730951,0A1.4142135623730951,1.4142135623730951,0,1,1,1.4142135623730951,0" style="fill: none; stroke-width: 2; opacity: 0.7;"></path><path transform="translate(248.88888888888894,381.8181818181816)" d="M1.4142135623730951,0A1.4142135623730951,1.4142135623730951,0,1,1,-1.4142135623730951,0A1.4142135623730951,1.4142135623730951,0,1,1,1.4142135623730951,0" style="fill: none; stroke-width: 2; opacity: 0.7;"></path><path transform="translate(288.88888888888886,309.09090909090924)" d="M1.4142135623730951,0A1.4142135623730951,1.4142135623730951,0,1,1,-1.4142135623730951,0A1.4142135623730951,1.4142135623730951,0,1,1,1.4142135623730951,0" style="fill: none; stroke-width: 2; opacity: 0.7;"></path><path transform="translate(297.7777777777777,90.90909090909076)" d="M1.4142135623730951,0A1.4142135623730951,1.4142135623730951,0,1,1,-1.4142135623730951,0A1.4142135623730951,1.4142135623730951,0,1,1,1.4142135623730951,0" style="fill: none; stroke-width: 2; opacity: 0.7;"></path><path transform="translate(320,290.90909090909076)" d="M1.4142135623730951,0A1.4142135623730951,1.4142135623730951,0,1,1,-1.4142135623730951,0A1.4142135623730951,1.4142135623730951,0,1,1,1.4142135623730951,0" style="fill: none; stroke-width: 2; opacity: 0.7;"></path><path transform="translate(364.4444444444444,127.2727272727276)" d="M1.4142135623730951,0A1.4142135623730951,1.4142135623730951,0,1,1,-1.4142135623730951,0A1.4142135623730951,1.4142135623730951,0,1,1,1.4142135623730951,0" style="fill: none; stroke-width: 2; opacity: 0.7;"></path><path transform="translate(373.33333333333326,272.7272727272724)" d="M1.4142135623730951,0A1.4142135623730951,1.4142135623730951,0,1,1,-1.4142135623730951,0A1.4142135623730951,1.4142135623730951,0,1,1,1.4142135623730951,0" style="fill: none; stroke-width: 2; opacity: 0.7;"></path><path transform="translate(373.33333333333326,381.8181818181816)" d="M1.4142135623730951,0A1.4142135623730951,1.4142135623730951,0,1,1,-1.4142135623730951,0A1.4142135623730951,1.4142135623730951,0,1,1,1.4142135623730951,0" style="fill: none; stroke-width: 2; opacity: 0.7;"></path><path transform="translate(444.44444444444446,218.18181818181841)" d="M1.4142135623730951,0A1.4142135623730951,1.4142135623730951,0,1,1,-1.4142135623730951,0A1.4142135623730951,1.4142135623730951,0,1,1,1.4142135623730951,0" style="fill: none; stroke-width: 2; opacity: 0.7;"></path><path transform="translate(497.7777777777779,200)" d="M1.4142135623730951,0A1.4142135623730951,1.4142135623730951,0,1,1,-1.4142135623730951,0A1.4142135623730951,1.4142135623730951,0,1,1,1.4142135623730951,0" style="fill: none; stroke-width: 2; opacity: 0.7;"></path><path transform="translate(546.6666666666665,145.45454545454476)" d="M1.4142135623730951,0A1.4142135623730951,1.4142135623730951,0,1,1,-1.4142135623730951,0A1.4142135623730951,1.4142135623730951,0,1,1,1.4142135623730951,0" style="fill: none; stroke-width: 2; opacity: 0.7;"></path><path transform="translate(551.111111111111,90.90909090909076)" d="M1.4142135623730951,0A1.4142135623730951,1.4142135623730951,0,1,1,-1.4142135623730951,0A1.4142135623730951,1.4142135623730951,0,1,1,1.4142135623730951,0" style="fill: none; stroke-width: 2; opacity: 0.7;"></path><path transform="translate(622.2222222222223,90.90909090909076)" d="M1.4142135623730951,0A1.4142135623730951,1.4142135623730951,0,1,1,-1.4142135623730951,0A1.4142135623730951,1.4142135623730951,0,1,1,1.4142135623730951,0" style="fill: none; stroke-width: 2; opacity: 0.7;"></path><path transform="translate(693.3333333333334,36.36363636363683)" d="M1.4142135623730951,0A1.4142135623730951,1.4142135623730951,0,1,1,-1.4142135623730951,0A1.4142135623730951,1.4142135623730951,0,1,1,1.4142135623730951,0" style="fill: none; stroke-width: 2; opacity: 0.7;"></path><path transform="translate(648.888888888889,127.2727272727276)" d="M1.4142135623730951,0A1.4142135623730951,1.4142135623730951,0,1,1,-1.4142135623730951,0A1.4142135623730951,1.4142135623730951,0,1,1,1.4142135623730951,0" style="fill: none; stroke-width: 2; opacity: 0.7;"></path><path transform="translate(644.4444444444445,181.81818181818156)" d="M1.4142135623730951,0A1.4142135623730951,1.4142135623730951,0,1,1,-1.4142135623730951,0A1.4142135623730951,1.4142135623730951,0,1,1,1.4142135623730951,0" style="fill: none; stroke-width: 2; opacity: 0.7;"></path></g><g class="mark-text role-mark concat_0_layer_1_layer_1_marks"><text text-anchor="middle" transform="translate(88.88888888888889,184.81818181818156)" style="font-family: sans-serif; font-size: 11px; fill: black;">Kowno</text><text text-anchor="middle" transform="translate(146.6666666666667,239.36363636363552)" style="font-family: sans-serif; font-size: 11px; fill: black;">Wilna</text><text text-anchor="middle" transform="translate(195.5555555555555,293.90909090909076)" style="font-family: sans-serif; font-size: 11px; fill: black;">Smorgoni</text><text text-anchor="middle" transform="translate(213.33333333333337,312.09090909090924)" style="font-family: sans-serif; font-size: 11px; fill: black;">Moiodexno</text><text text-anchor="middle" transform="translate(253.33333333333331,148.45454545454476)" style="font-family: sans-serif; font-size: 11px; fill: black;">Gloubokoe</text><text text-anchor="middle" transform="translate(248.88888888888894,384.8181818181816)" style="font-family: sans-serif; font-size: 11px; fill: black;">Minsk</text><text text-anchor="middle" transform="translate(288.88888888888886,312.09090909090924)" style="font-family: sans-serif; font-size: 11px; fill: black;">Studienska</text><text text-anchor="middle" transform="translate(297.7777777777777,93.90909090909076)" style="font-family: sans-serif; font-size: 11px; fill: black;">Polotzk</text><text text-anchor="middle" transform="translate(320,293.90909090909076)" style="font-family: sans-serif; font-size: 11px; fill: black;">Bobr</text><text text-anchor="middle" transform="translate(364.4444444444444,130.2727272727276)" style="font-family: sans-serif; font-size: 11px; fill: black;">Witebsk</text><text text-anchor="middle" transform="translate(373.33333333333326,275.7272727272724)" style="font-family: sans-serif; font-size: 11px; fill: black;">Orscha</text><text text-anchor="middle" transform="translate(373.33333333333326,384.8181818181816)" style="font-family: sans-serif; font-size: 11px; fill: black;">Mohilow</text><text text-anchor="middle" transform="translate(444.44444444444446,221.18181818181841)" style="font-family: sans-serif; font-size: 11px; fill: black;">Smolensk</text><text text-anchor="middle" transform="translate(497.7777777777779,203)" style="font-family: sans-serif; font-size: 11px; fill: black;">Dorogobouge</text><text text-anchor="middle" transform="translate(546.6666666666665,148.45454545454476)" style="font-family: sans-serif; font-size: 11px; fill: black;">Wixma</text><text text-anchor="middle" transform="translate(551.111111111111,93.90909090909076)" style="font-family: sans-serif; font-size: 11px; fill: black;">Chjat</text><text text-anchor="middle" transform="translate(622.2222222222223,93.90909090909076)" style="font-family: sans-serif; font-size: 11px; fill: black;">Mojaisk</text><text text-anchor="middle" transform="translate(693.3333333333334,39.36363636363683)" style="font-family: sans-serif; font-size: 11px; fill: black;">Moscou</text><text text-anchor="middle" transform="translate(648.888888888889,130.2727272727276)" style="font-family: sans-serif; font-size: 11px; fill: black;">Tarantino</text><text text-anchor="middle" transform="translate(644.4444444444445,184.81818181818156)" style="font-family: sans-serif; font-size: 11px; fill: black;">Malo-Jarosewii</text></g><g class="mark-group role-axis"><g transform="translate(0.5,400.5)"><path class="background" d="M0,0h0v0h0Z" style="pointer-events: none; fill: none;"></path><g><g class="mark-rule role-axis-tick" style="pointer-events: none;"><line transform="translate(0,0)" x2="0" y2="5" style="fill: none; stroke: #888; stroke-width: 1; opacity: 1;"></line><line transform="translate(44,0)" x2="0" y2="5" style="fill: none; stroke: #888; stroke-width: 1; opacity: 1;"></line><line transform="translate(89,0)" x2="0" y2="5" style="fill: none; stroke: #888; stroke-width: 1; opacity: 1;"></line><line transform="translate(133,0)" x2="0" y2="5" style="fill: none; stroke: #888; stroke-width: 1; opacity: 1;"></line><line transform="translate(178,0)" x2="0" y2="5" style="fill: none; stroke: #888; stroke-width: 1; opacity: 1;"></line><line transform="translate(222,0)" x2="0" y2="5" style="fill: none; stroke: #888; stroke-width: 1; opacity: 1;"></line><line transform="translate(267,0)" x2="0" y2="5" style="fill: none; stroke: #888; stroke-width: 1; opacity: 1;"></line><line transform="translate(311,0)" x2="0" y2="5" style="fill: none; stroke: #888; stroke-width: 1; opacity: 1;"></line><line transform="translate(356,0)" x2="0" y2="5" style="fill: none; stroke: #888; stroke-width: 1; opacity: 1;"></line><line transform="translate(400,0)" x2="0" y2="5" style="fill: none; stroke: #888; stroke-width: 1; opacity: 1;"></line><line transform="translate(444,0)" x2="0" y2="5" style="fill: none; stroke: #888; stroke-width: 1; opacity: 1;"></line><line transform="translate(489,0)" x2="0" y2="5" style="fill: none; stroke: #888; stroke-width: 1; opacity: 1;"></line><line transform="translate(533,0)" x2="0" y2="5" style="fill: none; stroke: #888; stroke-width: 1; opacity: 1;"></line><line transform="translate(578,0)" x2="0" y2="5" style="fill: none; stroke: #888; stroke-width: 1; opacity: 1;"></line><line transform="translate(622,0)" x2="0" y2="5" style="fill: none; stroke: #888; stroke-width: 1; opacity: 1;"></line><line transform="translate(667,0)" x2="0" y2="5" style="fill: none; stroke: #888; stroke-width: 1; opacity: 1;"></line><line transform="translate(711,0)" x2="0" y2="5" style="fill: none; stroke: #888; stroke-width: 1; opacity: 1;"></line><line transform="translate(756,0)" x2="0" y2="5" style="fill: none; stroke: #888; stroke-width: 1; opacity: 1;"></line><line transform="translate(800,0)" x2="0" y2="5" style="fill: none; stroke: #888; stroke-width: 1; opacity: 1;"></line></g><g class="mark-text role-axis-label" style="pointer-events: none;"><text text-anchor="start" transform="translate(0,15)" style="font-family: sans-serif; font-size: 10px; fill: #000; opacity: 1;">22</text><text text-anchor="middle" transform="translate(44.44444444444444,15)" style="font-family: sans-serif; font-size: 10px; fill: #000; opacity: 1;">23</text><text text-anchor="middle" transform="translate(88.88888888888889,15)" style="font-family: sans-serif; font-size: 10px; fill: #000; opacity: 1;">24</text><text text-anchor="middle" transform="translate(133.33333333333331,15)" style="font-family: sans-serif; font-size: 10px; fill: #000; opacity: 1;">25</text><text text-anchor="middle" transform="translate(177.77777777777777,15)" style="font-family: sans-serif; font-size: 10px; fill: #000; opacity: 1;">26</text><text text-anchor="middle" transform="translate(222.22222222222223,15)" style="font-family: sans-serif; font-size: 10px; fill: #000; opacity: 1;">27</text><text text-anchor="middle" transform="translate(266.66666666666663,15)" style="font-family: sans-serif; font-size: 10px; fill: #000; opacity: 1;">28</text><text text-anchor="middle" transform="translate(311.11111111111114,15)" style="font-family: sans-serif; font-size: 10px; fill: #000; opacity: 1;">29</text><text text-anchor="middle" transform="translate(355.55555555555554,15)" style="font-family: sans-serif; font-size: 10px; fill: #000; opacity: 1;">30</text><text text-anchor="middle" transform="translate(400,15)" style="font-family: sans-serif; font-size: 10px; fill: #000; opacity: 1;">31</text><text text-anchor="middle" transform="translate(444.44444444444446,15)" style="font-family: sans-serif; font-size: 10px; fill: #000; opacity: 1;">32</text><text text-anchor="middle" transform="translate(488.8888888888889,15)" style="font-family: sans-serif; font-size: 10px; fill: #000; opacity: 1;">33</text><text text-anchor="middle" transform="translate(533.3333333333333,15)" style="font-family: sans-serif; font-size: 10px; fill: #000; opacity: 1;">34</text><text text-anchor="middle" transform="translate(577.7777777777777,15)" style="font-family: sans-serif; font-size: 10px; fill: #000; opacity: 1;">35</text><text text-anchor="middle" transform="translate(622.2222222222223,15)" style="font-family: sans-serif; font-size: 10px; fill: #000; opacity: 1;">36</text><text text-anchor="middle" transform="translate(666.6666666666667,15)" style="font-family: sans-serif; font-size: 10px; fill: #000; opacity: 1;">37</text><text text-anchor="middle" transform="translate(711.1111111111111,15)" style="font-family: sans-serif; font-size: 10px; fill: #000; opacity: 1;">38</text><text text-anchor="middle" transform="translate(755.5555555555555,15)" style="font-family: sans-serif; font-size: 10px; fill: #000; opacity: 1;">39</text><text text-anchor="end" transform="translate(800,15)" style="font-family: sans-serif; font-size: 10px; fill: #000; opacity: 1;">40</text></g><g class="mark-rule role-axis-domain" style="pointer-events: none;"><line transform="translate(0,0)" x2="800" y2="0" style="fill: none; stroke: #888; stroke-width: 1; opacity: 1;"></line></g><g class="mark-text role-axis-title" style="pointer-events: none;"><text text-anchor="middle" transform="translate(400,30)" style="font-family: sans-serif; font-size: 11px; font-weight: bold; fill: #000; opacity: 1;">Longitude</text></g></g></g></g><g class="mark-group role-axis"><g transform="translate(0.5,0.5)"><path class="background" d="M0,0h0v0h0Z" style="pointer-events: none; fill: none;"></path><g><g class="mark-rule role-axis-tick" style="pointer-events: none;"><line transform="translate(0,400)" x2="-5" y2="0" style="fill: none; stroke: #888; stroke-width: 1; opacity: 1;"></line><line transform="translate(0,364)" x2="-5" y2="0" style="fill: none; stroke: #888; stroke-width: 1; opacity: 1;"></line><line transform="translate(0,327)" x2="-5" y2="0" style="fill: none; stroke: #888; stroke-width: 1; opacity: 1;"></line><line transform="translate(0,291)" x2="-5" y2="0" style="fill: none; stroke: #888; stroke-width: 1; opacity: 1;"></line><line transform="translate(0,255)" x2="-5" y2="0" style="fill: none; stroke: #888; stroke-width: 1; opacity: 1;"></line><line transform="translate(0,218)" x2="-5" y2="0" style="fill: none; stroke: #888; stroke-width: 1; opacity: 1;"></line><line transform="translate(0,182)" x2="-5" y2="0" style="fill: none; stroke: #888; stroke-width: 1; opacity: 1;"></line><line transform="translate(0,145)" x2="-5" y2="0" style="fill: none; stroke: #888; stroke-width: 1; opacity: 1;"></line><line transform="translate(0,109)" x2="-5" y2="0" style="fill: none; stroke: #888; stroke-width: 1; opacity: 1;"></line><line transform="translate(0,73)" x2="-5" y2="0" style="fill: none; stroke: #888; stroke-width: 1; opacity: 1;"></line><line transform="translate(0,36)" x2="-5" y2="0" style="fill: none; stroke: #888; stroke-width: 1; opacity: 1;"></line><line transform="translate(0,0)" x2="-5" y2="0" style="fill: none; stroke: #888; stroke-width: 1; opacity: 1;"></line></g><g class="mark-text role-axis-label" style="pointer-events: none;"><text text-anchor="end" transform="translate(-7,403)" style="font-family: sans-serif; font-size: 10px; fill: #000; opacity: 1;">53.8</text><text text-anchor="end" transform="translate(-7,366.63636363636317)" style="font-family: sans-serif; font-size: 10px; fill: #000; opacity: 1;">54.0</text><text text-anchor="end" transform="translate(-7,330.27272727272634)" style="font-family: sans-serif; font-size: 10px; fill: #000; opacity: 1;">54.2</text><text text-anchor="end" transform="translate(-7,293.90909090909076)" style="font-family: sans-serif; font-size: 10px; fill: #000; opacity: 1;">54.4</text><text text-anchor="end" transform="translate(-7,257.54545454545394)" style="font-family: sans-serif; font-size: 10px; fill: #000; opacity: 1;">54.6</text><text text-anchor="end" transform="translate(-7,221.18181818181841)" style="font-family: sans-serif; font-size: 10px; fill: #000; opacity: 1;">54.8</text><text text-anchor="end" transform="translate(-7,184.81818181818156)" style="font-family: sans-serif; font-size: 10px; fill: #000; opacity: 1;">55.0</text><text text-anchor="end" transform="translate(-7,148.45454545454476)" style="font-family: sans-serif; font-size: 10px; fill: #000; opacity: 1;">55.2</text><text text-anchor="end" transform="translate(-7,112.09090909090924)" style="font-family: sans-serif; font-size: 10px; fill: #000; opacity: 1;">55.4</text><text text-anchor="end" transform="translate(-7,75.7272727272724)" style="font-family: sans-serif; font-size: 10px; fill: #000; opacity: 1;">55.6</text><text text-anchor="end" transform="translate(-7,39.36363636363683)" style="font-family: sans-serif; font-size: 10px; fill: #000; opacity: 1;">55.8</text><text text-anchor="end" transform="translate(-7,3)" style="font-family: sans-serif; font-size: 10px; fill: #000; opacity: 1;">56.0</text></g><g class="mark-rule role-axis-domain" style="pointer-events: none;"><line transform="translate(0,400)" x2="0" y2="-400" style="fill: none; stroke: #888; stroke-width: 1; opacity: 1;"></line></g><g class="mark-text role-axis-title" style="pointer-events: none;"><text text-anchor="middle" transform="translate(-32,200) rotate(-90) translate(0,-2)" style="font-family: sans-serif; font-size: 11px; font-weight: bold; fill: #000; opacity: 1;">Latitude</text></g></g></g></g></g></g></g><g class="mark-group role-scope concat_1_group"><g transform="translate(0,454)"><path class="background" d="M0.5,0.5h800v200h-800Z" style="fill: none; stroke: #ddd;"></path><g><g class="mark-group role-axis"><g transform="translate(0.5,200.5)"><path class="background" d="M0,0h0v0h0Z" style="pointer-events: none; fill: none;"></path><g><g class="mark-rule role-axis-grid" style="pointer-events: none;"><line transform="translate(0,-200)" x2="0" y2="200" style="fill: none; stroke: #ddd; stroke-width: 1; opacity: 1;"></line><line transform="translate(50,-200)" x2="0" y2="200" style="fill: none; stroke: #ddd; stroke-width: 1; opacity: 1;"></line><line transform="translate(100,-200)" x2="0" y2="200" style="fill: none; stroke: #ddd; stroke-width: 1; opacity: 1;"></line><line transform="translate(150,-200)" x2="0" y2="200" style="fill: none; stroke: #ddd; stroke-width: 1; opacity: 1;"></line><line transform="translate(200,-200)" x2="0" y2="200" style="fill: none; stroke: #ddd; stroke-width: 1; opacity: 1;"></line><line transform="translate(250,-200)" x2="0" y2="200" style="fill: none; stroke: #ddd; stroke-width: 1; opacity: 1;"></line><line transform="translate(300,-200)" x2="0" y2="200" style="fill: none; stroke: #ddd; stroke-width: 1; opacity: 1;"></line><line transform="translate(350,-200)" x2="0" y2="200" style="fill: none; stroke: #ddd; stroke-width: 1; opacity: 1;"></line><line transform="translate(400,-200)" x2="0" y2="200" style="fill: none; stroke: #ddd; stroke-width: 1; opacity: 1;"></line><line transform="translate(450,-200)" x2="0" y2="200" style="fill: none; stroke: #ddd; stroke-width: 1; opacity: 1;"></line><line transform="translate(500,-200)" x2="0" y2="200" style="fill: none; stroke: #ddd; stroke-width: 1; opacity: 1;"></line><line transform="translate(550,-200)" x2="0" y2="200" style="fill: none; stroke: #ddd; stroke-width: 1; opacity: 1;"></line><line transform="translate(600,-200)" x2="0" y2="200" style="fill: none; stroke: #ddd; stroke-width: 1; opacity: 1;"></line><line transform="translate(650,-200)" x2="0" y2="200" style="fill: none; stroke: #ddd; stroke-width: 1; opacity: 1;"></line><line transform="translate(700,-200)" x2="0" y2="200" style="fill: none; stroke: #ddd; stroke-width: 1; opacity: 1;"></line><line transform="translate(750,-200)" x2="0" y2="200" style="fill: none; stroke: #ddd; stroke-width: 1; opacity: 1;"></line><line transform="translate(800,-200)" x2="0" y2="200" style="fill: none; stroke: #ddd; stroke-width: 1; opacity: 1;"></line></g></g></g></g><g class="mark-group role-axis"><g transform="translate(0.5,0.5)"><path class="background" d="M0,0h0v0h0Z" style="pointer-events: none; fill: none;"></path><g><g class="mark-rule role-axis-grid" style="pointer-events: none;"><line transform="translate(0,175)" x2="800" y2="0" style="fill: none; stroke: #ddd; stroke-width: 1; opacity: 1;"></line><line transform="translate(0,125)" x2="800" y2="0" style="fill: none; stroke: #ddd; stroke-width: 1; opacity: 1;"></line><line transform="translate(0,75)" x2="800" y2="0" style="fill: none; stroke: #ddd; stroke-width: 1; opacity: 1;"></line><line transform="translate(0,25)" x2="800" y2="0" style="fill: none; stroke: #ddd; stroke-width: 1; opacity: 1;"></line></g></g></g></g><g class="mark-text role-mark concat_1_layer_0_marks"></g><g class="mark-symbol role-mark concat_1_layer_1_marks"><path transform="translate(680.0000000000001,25)" d="M3.5355339059327378,0A3.5355339059327378,3.5355339059327378,0,1,1,-3.5355339059327378,0A3.5355339059327378,3.5355339059327378,0,1,1,3.5355339059327378,0" style="fill: black; stroke-width: 2; opacity: 0.7;"></path><path transform="translate(600,25)" d="M3.5355339059327378,0A3.5355339059327378,3.5355339059327378,0,1,1,-3.5355339059327378,0A3.5355339059327378,3.5355339059327378,0,1,1,3.5355339059327378,0" style="fill: black; stroke-width: 2; opacity: 0.7;"></path><path transform="translate(460.0000000000001,70)" d="M3.5355339059327378,0A3.5355339059327378,3.5355339059327378,0,1,1,-3.5355339059327378,0A3.5355339059327378,3.5355339059327378,0,1,1,3.5355339059327378,0" style="fill: black; stroke-width: 2; opacity: 0.7;"></path><path transform="translate(400,130)" d="M3.5355339059327378,0A3.5355339059327378,3.5355339059327378,0,1,1,-3.5355339059327378,0A3.5355339059327378,3.5355339059327378,0,1,1,3.5355339059327378,0" style="fill: black; stroke-width: 2; opacity: 0.7;"></path><path transform="translate(259.99999999999994,80)" d="M3.5355339059327378,0A3.5355339059327378,3.5355339059327378,0,1,1,-3.5355339059327378,0A3.5355339059327378,3.5355339059327378,0,1,1,3.5355339059327378,0" style="fill: black; stroke-width: 2; opacity: 0.7;"></path><path transform="translate(225,125)" d="M3.5355339059327378,0A3.5355339059327378,3.5355339059327378,0,1,1,-3.5355339059327378,0A3.5355339059327378,3.5355339059327378,0,1,1,3.5355339059327378,0" style="fill: black; stroke-width: 2; opacity: 0.7;"></path><path transform="translate(159.99999999999997,145)" d="M3.5355339059327378,0A3.5355339059327378,3.5355339059327378,0,1,1,-3.5355339059327378,0A3.5355339059327378,3.5355339059327378,0,1,1,3.5355339059327378,0" style="fill: black; stroke-width: 2; opacity: 0.7;"></path><path transform="translate(134.99999999999997,175)" d="M3.5355339059327378,0A3.5355339059327378,3.5355339059327378,0,1,1,-3.5355339059327378,0A3.5355339059327378,3.5355339059327378,0,1,1,3.5355339059327378,0" style="fill: black; stroke-width: 2; opacity: 0.7;"></path><path transform="translate(65.00000000000003,155)" d="M3.5355339059327378,0A3.5355339059327378,3.5355339059327378,0,1,1,-3.5355339059327378,0A3.5355339059327378,3.5355339059327378,0,1,1,3.5355339059327378,0" style="fill: black; stroke-width: 2; opacity: 0.7;"></path></g><g class="mark-line role-mark concat_1_layer_2_marks"><path d="M65.00000000000003,155L134.99999999999997,175L159.99999999999997,145L225,125L259.99999999999994,80L400,130L460.0000000000001,70L600,25L680.0000000000001,25" style="fill: none; stroke: black; stroke-width: 2;"></path></g><g class="mark-group role-axis"><g transform="translate(0.5,200.5)"><path class="background" d="M0,0h0v0h0Z" style="pointer-events: none; fill: none;"></path><g><g class="mark-rule role-axis-tick" style="pointer-events: none;"><line transform="translate(0,0)" x2="0" y2="5" style="fill: none; stroke: #888; stroke-width: 1; opacity: 1;"></line><line transform="translate(50,0)" x2="0" y2="5" style="fill: none; stroke: #888; stroke-width: 1; opacity: 1;"></line><line transform="translate(100,0)" x2="0" y2="5" style="fill: none; stroke: #888; stroke-width: 1; opacity: 1;"></line><line transform="translate(150,0)" x2="0" y2="5" style="fill: none; stroke: #888; stroke-width: 1; opacity: 1;"></line><line transform="translate(200,0)" x2="0" y2="5" style="fill: none; stroke: #888; stroke-width: 1; opacity: 1;"></line><line transform="translate(250,0)" x2="0" y2="5" style="fill: none; stroke: #888; stroke-width: 1; opacity: 1;"></line><line transform="translate(300,0)" x2="0" y2="5" style="fill: none; stroke: #888; stroke-width: 1; opacity: 1;"></line><line transform="translate(350,0)" x2="0" y2="5" style="fill: none; stroke: #888; stroke-width: 1; opacity: 1;"></line><line transform="translate(400,0)" x2="0" y2="5" style="fill: none; stroke: #888; stroke-width: 1; opacity: 1;"></line><line transform="translate(450,0)" x2="0" y2="5" style="fill: none; stroke: #888; stroke-width: 1; opacity: 1;"></line><line transform="translate(500,0)" x2="0" y2="5" style="fill: none; stroke: #888; stroke-width: 1; opacity: 1;"></line><line transform="translate(550,0)" x2="0" y2="5" style="fill: none; stroke: #888; stroke-width: 1; opacity: 1;"></line><line transform="translate(600,0)" x2="0" y2="5" style="fill: none; stroke: #888; stroke-width: 1; opacity: 1;"></line><line transform="translate(650,0)" x2="0" y2="5" style="fill: none; stroke: #888; stroke-width: 1; opacity: 1;"></line><line transform="translate(700,0)" x2="0" y2="5" style="fill: none; stroke: #888; stroke-width: 1; opacity: 1;"></line><line transform="translate(750,0)" x2="0" y2="5" style="fill: none; stroke: #888; stroke-width: 1; opacity: 1;"></line><line transform="translate(800,0)" x2="0" y2="5" style="fill: none; stroke: #888; stroke-width: 1; opacity: 1;"></line></g><g class="mark-text role-axis-label" style="pointer-events: none;"><text text-anchor="start" transform="translate(0,15)" style="font-family: sans-serif; font-size: 10px; fill: #000; opacity: 1;">24</text><text text-anchor="middle" transform="translate(50,15)" style="font-family: sans-serif; font-size: 10px; fill: #000; opacity: 1;">25</text><text text-anchor="middle" transform="translate(100,15)" style="font-family: sans-serif; font-size: 10px; fill: #000; opacity: 1;">26</text><text text-anchor="middle" transform="translate(150,15)" style="font-family: sans-serif; font-size: 10px; fill: #000; opacity: 1;">27</text><text text-anchor="middle" transform="translate(200,15)" style="font-family: sans-serif; font-size: 10px; fill: #000; opacity: 1;">28</text><text text-anchor="middle" transform="translate(250,15)" style="font-family: sans-serif; font-size: 10px; fill: #000; opacity: 1;">29</text><text text-anchor="middle" transform="translate(300,15)" style="font-family: sans-serif; font-size: 10px; fill: #000; opacity: 1;">30</text><text text-anchor="middle" transform="translate(350,15)" style="font-family: sans-serif; font-size: 10px; fill: #000; opacity: 1;">31</text><text text-anchor="middle" transform="translate(400,15)" style="font-family: sans-serif; font-size: 10px; fill: #000; opacity: 1;">32</text><text text-anchor="middle" transform="translate(450,15)" style="font-family: sans-serif; font-size: 10px; fill: #000; opacity: 1;">33</text><text text-anchor="middle" transform="translate(500,15)" style="font-family: sans-serif; font-size: 10px; fill: #000; opacity: 1;">34</text><text text-anchor="middle" transform="translate(550,15)" style="font-family: sans-serif; font-size: 10px; fill: #000; opacity: 1;">35</text><text text-anchor="middle" transform="translate(600,15)" style="font-family: sans-serif; font-size: 10px; fill: #000; opacity: 1;">36</text><text text-anchor="middle" transform="translate(650,15)" style="font-family: sans-serif; font-size: 10px; fill: #000; opacity: 1;">37</text><text text-anchor="middle" transform="translate(700,15)" style="font-family: sans-serif; font-size: 10px; fill: #000; opacity: 1;">38</text><text text-anchor="middle" transform="translate(750,15)" style="font-family: sans-serif; font-size: 10px; fill: #000; opacity: 1;">39</text><text text-anchor="end" transform="translate(800,15)" style="font-family: sans-serif; font-size: 10px; fill: #000; opacity: 1;">40</text></g><g class="mark-rule role-axis-domain" style="pointer-events: none;"><line transform="translate(0,0)" x2="800" y2="0" style="fill: none; stroke: #888; stroke-width: 1; opacity: 1;"></line></g><g class="mark-text role-axis-title" style="pointer-events: none;"><text text-anchor="middle" transform="translate(400,30)" style="font-family: sans-serif; font-size: 11px; font-weight: bold; fill: #000; opacity: 1;">Longitude</text></g></g></g></g><g class="mark-group role-axis"><g transform="translate(0.5,0.5)"><path class="background" d="M0,0h0v0h0Z" style="pointer-events: none; fill: none;"></path><g><g class="mark-rule role-axis-tick" style="pointer-events: none;"><line transform="translate(0,175)" x2="-5" y2="0" style="fill: none; stroke: #888; stroke-width: 1; opacity: 1;"></line><line transform="translate(0,125)" x2="-5" y2="0" style="fill: none; stroke: #888; stroke-width: 1; opacity: 1;"></line><line transform="translate(0,75)" x2="-5" y2="0" style="fill: none; stroke: #888; stroke-width: 1; opacity: 1;"></line><line transform="translate(0,25)" x2="-5" y2="0" style="fill: none; stroke: #888; stroke-width: 1; opacity: 1;"></line></g><g class="mark-text role-axis-label" style="pointer-events: none;"><text text-anchor="end" transform="translate(-7,178)" style="font-family: sans-serif; font-size: 10px; fill: #000; opacity: 1;">-30</text><text text-anchor="end" transform="translate(-7,128)" style="font-family: sans-serif; font-size: 10px; fill: #000; opacity: 1;">-20</text><text text-anchor="end" transform="translate(-7,78)" style="font-family: sans-serif; font-size: 10px; fill: #000; opacity: 1;">-10</text><text text-anchor="end" transform="translate(-7,28)" style="font-family: sans-serif; font-size: 10px; fill: #000; opacity: 1;">0</text></g><g class="mark-rule role-axis-domain" style="pointer-events: none;"><line transform="translate(0,200)" x2="0" y2="-200" style="fill: none; stroke: #888; stroke-width: 1; opacity: 1;"></line></g><g class="mark-text role-axis-title" style="pointer-events: none;"><text text-anchor="middle" transform="translate(-27,100) rotate(-90) translate(0,-2)" style="font-family: sans-serif; font-size: 11px; font-weight: bold; fill: #000; opacity: 1;">Temperatura</text></g></g></g></g></g></g></g><g class="mark-group role-legend"><g transform="translate(820,0)"><path class="background" d="M0,0h57v40h-57Z" style="pointer-events: none; fill: none;"></path><g><g class="mark-group role-legend-entry"><g transform="translate(0,16)"><path class="background" d="M0,0h0v0h0Z" style="pointer-events: none; fill: none;"></path><g><g class="mark-group role-scope"><g transform="translate(0,0)"><path class="background" d="M0,0h23v11h-23Z" style="pointer-events: none; fill: none; opacity: 1;"></path><g><g class="mark-symbol role-legend-symbol" style="pointer-events: none;"><path transform="translate(6,6)" d="M5,0A5,5,0,1,1,-5,0A5,5,0,1,1,5,0" style="fill: #bd9e45; stroke-width: 1.5; opacity: 1;"></path></g><g class="mark-text role-legend-label" style="pointer-events: none;"><text text-anchor="start" transform="translate(16,9)" style="font-family: sans-serif; font-size: 10px; fill: #000; opacity: 1;">A</text></g></g></g><g transform="translate(0,13)"><path class="background" d="M0,0h23v11h-23Z" style="pointer-events: none; fill: none; opacity: 1;"></path><g><g class="mark-symbol role-legend-symbol" style="pointer-events: none;"><path transform="translate(6,6)" d="M5,0A5,5,0,1,1,-5,0A5,5,0,1,1,5,0" style="fill: gray; stroke-width: 1.5; opacity: 1;"></path></g><g class="mark-text role-legend-label" style="pointer-events: none;"><text text-anchor="start" transform="translate(16,9)" style="font-family: sans-serif; font-size: 10px; fill: #000; opacity: 1;">R</text></g></g></g></g></g></g></g><g class="mark-text role-legend-title" style="pointer-events: none;"><text text-anchor="start" transform="translate(0,9)" style="font-family: sans-serif; font-size: 11px; font-weight: bold; fill: #000; opacity: 1;">Direction</text></g></g></g></g><g class="mark-group role-legend"><g transform="translate(820,48)"><path class="background" d="M0,0h59v86h-59Z" style="pointer-events: none; fill: none;"></path><g><g class="mark-group role-legend-entry"><g transform="translate(0,16)"><path class="background" d="M0,0h0v0h0Z" style="pointer-events: none; fill: none;"></path><g><g class="mark-group role-scope"><g transform="translate(0,0)"><path class="background" d="M0,0h53v10h-53Z" style="pointer-events: none; fill: none; opacity: 1;"></path><g><g class="mark-symbol role-legend-symbol" style="pointer-events: none;"><path transform="translate(5,5)" d="M1.1147015402382487,0A1.1147015402382487,1.1147015402382487,0,1,1,-1.1147015402382487,0A1.1147015402382487,1.1147015402382487,0,1,1,1.1147015402382487,0" style="fill: black; fill-opacity: 1; stroke: none; stroke-width: 1.5; opacity: 1;"></path></g><g class="mark-text role-legend-label" style="pointer-events: none;"><text text-anchor="start" transform="translate(14,8)" style="font-family: sans-serif; font-size: 10px; fill: #000; opacity: 1;">50,000</text></g></g></g><g transform="translate(0,12)"><path class="background" d="M0,0h53v10h-53Z" style="pointer-events: none; fill: none; opacity: 1;"></path><g><g class="mark-symbol role-legend-symbol" style="pointer-events: none;"><path transform="translate(5,5)" d="M1.52362350055011,0A1.52362350055011,1.52362350055011,0,1,1,-1.52362350055011,0A1.52362350055011,1.52362350055011,0,1,1,1.52362350055011,0" style="fill: black; fill-opacity: 1; stroke: none; stroke-width: 1.5; opacity: 1;"></path></g><g class="mark-text role-legend-label" style="pointer-events: none;"><text text-anchor="start" transform="translate(14,8)" style="font-family: sans-serif; font-size: 10px; fill: #000; opacity: 1;">100,000</text></g></g></g><g transform="translate(0,24)"><path class="background" d="M0,0h53v10h-53Z" style="pointer-events: none; fill: none; opacity: 1;"></path><g><g class="mark-symbol role-legend-symbol" style="pointer-events: none;"><path transform="translate(5,5)" d="M1.8439895929878831,0A1.8439895929878831,1.8439895929878831,0,1,1,-1.8439895929878831,0A1.8439895929878831,1.8439895929878831,0,1,1,1.8439895929878831,0" style="fill: black; fill-opacity: 1; stroke: none; stroke-width: 1.5; opacity: 1;"></path></g><g class="mark-text role-legend-label" style="pointer-events: none;"><text text-anchor="start" transform="translate(14,8)" style="font-family: sans-serif; font-size: 10px; fill: #000; opacity: 1;">150,000</text></g></g></g><g transform="translate(0,36)"><path class="background" d="M0,0h53v10h-53Z" style="pointer-events: none; fill: none; opacity: 1;"></path><g><g class="mark-symbol role-legend-symbol" style="pointer-events: none;"><path transform="translate(5,5)" d="M2.116404183200049,0A2.116404183200049,2.116404183200049,0,1,1,-2.116404183200049,0A2.116404183200049,2.116404183200049,0,1,1,2.116404183200049,0" style="fill: black; fill-opacity: 1; stroke: none; stroke-width: 1.5; opacity: 1;"></path></g><g class="mark-text role-legend-label" style="pointer-events: none;"><text text-anchor="start" transform="translate(14,8)" style="font-family: sans-serif; font-size: 10px; fill: #000; opacity: 1;">200,000</text></g></g></g><g transform="translate(0,48)"><path class="background" d="M0,0h53v10h-53Z" style="pointer-events: none; fill: none; opacity: 1;"></path><g><g class="mark-symbol role-legend-symbol" style="pointer-events: none;"><path transform="translate(5,5)" d="M2.357548666366341,0A2.357548666366341,2.357548666366341,0,1,1,-2.357548666366341,0A2.357548666366341,2.357548666366341,0,1,1,2.357548666366341,0" style="fill: black; fill-opacity: 1; stroke: none; stroke-width: 1.5; opacity: 1;"></path></g><g class="mark-text role-legend-label" style="pointer-events: none;"><text text-anchor="start" transform="translate(14,8)" style="font-family: sans-serif; font-size: 10px; fill: #000; opacity: 1;">250,000</text></g></g></g><g transform="translate(0,60)"><path class="background" d="M0,0h53v10h-53Z" style="pointer-events: none; fill: none; opacity: 1;"></path><g><g class="mark-symbol role-legend-symbol" style="pointer-events: none;"><path transform="translate(5,5)" d="M2.5762190826683904,0A2.5762190826683904,2.5762190826683904,0,1,1,-2.5762190826683904,0A2.5762190826683904,2.5762190826683904,0,1,1,2.5762190826683904,0" style="fill: black; fill-opacity: 1; stroke: none; stroke-width: 1.5; opacity: 1;"></path></g><g class="mark-text role-legend-label" style="pointer-events: none;"><text text-anchor="start" transform="translate(14,8)" style="font-family: sans-serif; font-size: 10px; fill: #000; opacity: 1;">300,000</text></g></g></g></g></g></g></g><g class="mark-text role-legend-title" style="pointer-events: none;"><text text-anchor="start" transform="translate(0,9)" style="font-family: sans-serif; font-size: 11px; font-weight: bold; fill: #000; opacity: 1;">Survivors</text></g></g></g></g></g></g></g></g></svg>