<svg class="marks" width="994" height="693" viewBox="0 0 994 693" version="1.1" xmlns="http://www.w3.org/2000/svg" xmlns:xlink="http://www.w3.org/1999/xlink"><defs><clipPath id="clip1"><rect x="0" y="0" width="800" height="400"></rect></clipPath><clipPath id="clip2"><rect x="0" y="0" width="800" height="400"></rect></clipPath><clipPath id="clip3"><rect x="0" y="0" width="800" height="400"></rect></clipPath><clipPath id="clip4"><rect x="0" y="0" width="800" height="400"></rect></clipPath><clipPath id="clip5"><rect x="0" y="0" width="800" height="400"></rect></clipPath><clipPath id="clip6"><rect x="0" y="0" width="800" height="400"></rect></clipPath><clipPath id="clip7"><rect x="0" y="0" width="800" height="400"></rect></clipPath></defs><g transform="translate(49,11)"><g class="mark-group role-frame root"><g transform="translate(0,0)"><path class="background" d="M0,0h800v0h-800Z" style="fill: none;"></path><g><g class="mark-group role-scope concat_0_group"><g transform="translate(0,0)"><path class="background" d="M0.5,0.5h800v400h-800Z" style="fill: none; stroke: #ddd;"></path><g><g class="mark-group role-axis"><g transform="translate(0.5,400.5)"><path class="background" d="M0,0h0v0h0Z" style="pointer-events: none; fill: none;"></path><g><g class="mark-rule role-axis-grid" style="pointer-events: none;"><line transform="translate(0,-400)" x2="0" y2="400" style="fill: none; stroke: #ddd; stroke-width: 1; opacity: 1;"></line><line transform="translate(50,-400)" x2="0" y2="400" style="fill: none; stroke: #ddd; stroke-width: 1; opacity: 1;"></line><line transform="translate(100,-400)" x2="0" y2="400" style="fill: none; stroke: #ddd; stroke-width: 1; opacity: 1;"></line><line transform="translate(150,-400)" x2="0" y2="400" style="fill: none; stroke: #ddd; stroke-width: 1; opacity: 1;"></line><line transform="translate(200,-400)" x2="0" y2="400" style="fill: none; stroke: #ddd; stroke-width: 1; opacity: 1;"></line><line transform="translate(250,-400)" x2="0" y2="400" style="fill: none; stroke: #ddd; stroke-width: 1; opacity: 1;"></line><line transform="translate(300,-400)" x2="0" y2="400" style="fill: none; stroke: #ddd; stroke-width: 1; opacity: 1;"></line><line transform="translate(350,-400)" x2="0" y2="400" style="fill: none; stroke: #ddd; stroke-width: 1; opacity: 1;"></line><line transform="translate(400,-400)" x2="0" y2="400" style="fill: none; stroke: #ddd; stroke-width: 1; opacity: 1;"></line><line transform="translate(450,-400)" x2="0" y2="400" style="fill: none; stroke: #ddd; stroke-width: 1; opacity: 1;"></line><line transform="translate(500,-400)" x2="0" y2="400" style="fill: none; stroke: #ddd; stroke-width: 1; opacity: 1;"></line><line transform="translate(550,-400)" x2="0" y2="400" style="fill: none; stroke: #ddd; stroke-width: 1; opacity: 1;"></line><line transform="translate(600,-400)" x2="0" y2="400" style="fill: none; stroke: #ddd; stroke-width: 1; opacity: 1;"></line><line transform="translate(650,-400)" x2="0" y2="400" style="fill: none; stroke: #ddd; stroke-width: 1; opacity: 1;"></line><line transform="translate(700,-400)" x2="0" y2="400" style="fill: none; stroke: #ddd; stroke-width: 1; opacity: 1;"></line><line transform="translate(750,-400)" x2="0" y2="400" style="fill: none; stroke: #ddd; stroke-width: 1; opacity: 1;"></line><line transform="translate(800,-400)" x2="0" y2="400" style="fill: none; stroke: #ddd; stroke-width: 1; opacity: 1;"></line></g></g></g></g><g class="mark-group role-axis"><g transform="translate(0.5,0.5)"><path class="background" d="M0,0h0v0h0Z" style="pointer-events: none; fill: none;"></path><g><g class="mark-rule role-axis-grid" style="pointer-events: none;"><line transform="translate(0,400)" x2="800" y2="0" style="fill: none; stroke: #ddd; stroke-width: 1; opacity: 1;"></line><line transform="translate(0,364)" x2="800" y2="0" style="fill: none; stroke: #ddd; stroke-width: 1; opacity: 1;"></line><line transform="translate(0,327)" x2="800" y2="0" style="fill: none; stroke: #ddd; stroke-width: 1; opacity: 1;"></line><line transform="translate(0,291)" x2="800" y2="0" style="fill: none; stroke: #ddd; stroke-width: 1; opacity: 1;"></line><line transform="translate(0,255)" x2="800" y2="0" style="fill: none; stroke: #ddd; stroke-width: 1; opacity: 1;"></line><line transform="translate(0,218)" x2="800" y2="0" style="fill: none; stroke: #ddd; stroke-width: 1; opacity: 1;"></line><line transform="translate(0,182)" x2="800" y2="0" style="fill: none; stroke: #ddd; stroke-width: 1; opacity: 1;"></line><line transform="translate(0,145)" x2="800" y2="0" style="fill: none; stroke: #ddd; stroke-width: 1; opacity: 1;"></line><line transform="translate(0,109)" x2="800" y2="0" style="fill: none; stroke: #ddd; stroke-width: 1; opacity: 1;"></line><line transform="translate(0,73)" x2="800" y2="0" style="fill: none; stroke: #ddd; stroke-width: 1; opacity: 1;"></line><line transform="translate(0,36)" x2="800" y2="0" style="fill: none; stroke: #ddd; stroke-width: 1; opacity: 1;"></line><line transform="translate(0,0)" x2="800" y2="0" style="fill: none; stroke: #ddd; stroke-width: 1; opacity: 1;"></line></g></g></g></g><g class="mark-group role-scope concat_0_layer_0_layer_0_pathgroup"><g transform="translate(0,0)"><path class="background" d="M0,0h800v400h-800Z" style="fill: none;"></path><g><g class="mark-trail role-mark concat_0_layer_0_layer_0_marks" clip-path="url(#clip1)"><path d="M91.17742453487422,187.86895873545222L116.17742453487422,169.68714055363378A15,15,0,1,1,133.82257546512577,193.94922308272933L108.82257546512578,212.13104126454778A15,15,0,0,1,91.17742453487422,187.86895873545222ZM138.1432386301497,174.5894005715992L188.1432386301497,265.49849148069006A15,15,0,1,1,161.8567613698503,279.95605397385475L111.85676136985029,189.0469630647639A15,15,0,1,1,138.1432386301497,174.5894005715992ZM162.63937113700942,264.22934038396653L188.35059779777674,228.35467234960714A14.136904761904761,14.136904761904761,0,1,1,211.64940220222326,244.3726003776639L187.36062886299058,281.2252050705783A15,15,0,1,1,162.63937113700942,264.22934038396653ZM195.1688108641019,223.07786623991495L245.4637676745041,205.70717928670396A13.273809523809524,13.273809523809524,0,1,1,254.5362323254959,230.65645707693287L204.8311891358981,249.6494064873561A14.136904761904761,14.136904761904761,0,1,1,195.16881086410189,223.07786623991495ZM245.4637676745038,205.70717928670405L295.75872448490605,188.33649233349175A12.410714285714285,12.410714285714285,0,1,1,304.24127551509395,211.66350766650825L254.5362323254962,230.65645707693278A13.273809523809524,13.273809523809524,0,1,1,245.4637676745038,205.70717928670405ZM292.7003691092114,189.96300752516584L318.71566549210286,173.17722186982314A10.684523809523808,10.684523809523808,0,1,1,331.28433450789714,190.45914176653997L307.2996308907886,210.03699247483416A12.410714285714285,12.410714285714285,0,0,1,292.7003691092114,189.96300752516584ZM318.71566549210286,173.17722186982311L344.47713777927146,156.04242808286153A9.389880952380953,9.389880952380953,0,1,1,355.52286222072854,171.2302991898648L331.28433450789714,190.45914176654A10.684523809523808,10.684523809523808,0,1,1,318.71566549210286,173.17722186982311ZM346.7910733213138,154.81181526997622L397.2335085369171,137.84669393106694A8.095238095238095,8.095238095238095,0,1,1,402.7664914630829,153.06239697802258L353.2089266786862,172.46091200275012A9.389880952380953,9.389880952380953,0,1,1,346.7910733213138,154.81181526997622ZM393.7555496499138,140.30287391572335L408.9219918007893,122.25837050837845A7.879464285714286,7.879464285714286,0,1,1,421.0780081992108,132.28708403707674L406.2444503500862,150.60621699336616A8.095238095238095,8.095238095238095,0,1,1,393.7555496499138,140.30287391572335ZM420.75553670764714,121.89130045107758L504.8098677868439,213.6845918011194A6.584821428571429,6.584821428571429,0,1,1,495.1901322131561,222.67904456251742L409.244463292353,132.6541540943776A7.879464285714286,7.879464285714286,0,1,1,420.75553670764714,121.89130045107758ZM498.09035308909716,211.87998337583906L558.1529290895676,193.90466599557251A6.3690476190476195,6.3690476190476195,0,1,1,561.8470709104326,206.09533400442749L501.90964691090284,224.48365298779777A6.584821428571429,6.584821428571429,0,0,1,498.09035308909716,211.87998337583906ZM554.4193391530714,196.93063653418926L614.907125420089,88.10800989013978A5.81235119047619,5.81235119047619,0,1,1,625.0928745799108,93.71017192804175L565.5806608469288,203.06936346581074A6.3690476190476195,6.3690476190476195,0,1,1,554.4193391530714,196.93063653418926ZM621.8243386339053,85.39046654152688L676.4572663247357,104.68267845858395A4.642857142857142,4.642857142857142,0,1,1,673.5427336752643,113.49913972323452L618.1756613660945,96.42771527665465A5.81235119047619,5.81235119047619,0,1,1,621.8243386339053,85.39046654152688ZM672.269202832223,105.33606298521588L697.269202832223,87.1542448033974A4.642857142857142,4.642857142857142,0,1,1,702.730797167777,94.66393701478412L677.730797167777,112.8457551966026A4.642857142857142,4.642857142857142,0,1,1,672.269202832223,105.33606298521588Z" style="fill: #bd9e45;"></path></g></g></g><g transform="translate(0,0)"><path class="background" d="M0,0h800v400h-800Z" style="fill: none;"></path><g><g class="mark-trail role-mark concat_0_layer_0_layer_0_marks" clip-path="url(#clip2)"><path d="M784.4766678951605,37.594720034806045L779.393447786853,55.7536526868386A4.5565476190476195,4.5565476190476195,0,1,1,770.606552213147,53.33725640406927L775.5233321048397,35.13255269246761A4.642857142857142,4.642857142857142,0,1,1,784.4766678951605,37.594720034806045ZM779.4711069768387,55.42370770161867L754.4287614176197,182.68811709664257A4.513392857142858,4.513392857142858,0,1,1,745.5712385823803,180.94824653972054L770.5288930231613,53.667201389289204A4.5565476190476195,4.5565476190476195,0,1,1,779.4711069768387,55.42370770161867ZM750,186.33157467532442L739.9999999999999,186.28841991341966A4.470238095238096,4.470238095238096,0,1,1,739.9999999999999,177.34794372294346L750,177.3047889610387A4.513392857142858,4.513392857142858,0,1,1,750,186.33157467532442ZM737.2523700467343,185.34430692487243L667.4910955519947,130.49248798100092A4.081845238095238,4.081845238095238,0,1,1,672.5089044480051,124.05296656445428L742.7476299532655,178.2920567114907A4.470238095238096,4.470238095238096,0,1,1,737.2523700467343,185.34430692487243ZM671.2811799771632,131.14829670364693L615.8477366600624,148.018948851234A2.7008928571428568,2.7008928571428568,0,1,1,614.1522633399373,142.8901420578555L668.7188200228366,123.39715784180825A4.081845238095238,4.081845238095238,0,1,1,671.2811799771632,131.14829670364693ZM617.2256489470562,146.98467910564597L566.5855449523657,219.27188033656986A1.9241071428571428,1.9241071428571428,0,1,1,563.4144550476341,217.09175602706696L612.7743510529435,143.92441180344355A2.7008928571428568,2.7008928571428568,0,1,1,617.2256489470562,146.98467910564597ZM565.939410005287,219.8610135662691L500.66550623731086,255.73504694464717A1.3630952380952381,1.3630952380952381,0,1,1,499.33449376268914,253.35586214626076L564.0605899947128,216.50262279736774A1.9241071428571428,1.9241071428571428,0,1,1,565.939410005287,219.8610135662691ZM500.56405282288677,255.78637075580477L420.4926225527395,291.9928605251177A1.1904761904761905,1.1904761904761905,0,1,1,419.5073774472604,289.82532129306384L499.43594717711323,253.30453833510316A1.3630952380952381,1.3630952380952381,0,1,1,500.56405282288677,255.78637075580477ZM419.99999999999994,292.09956709956697L359.99999999999994,292.09956709956697A1.1904761904761905,1.1904761904761905,0,1,1,359.99999999999994,289.71861471861456L419.99999999999994,289.71861471861456A1.1904761904761905,1.1904761904761905,0,1,1,419.99999999999994,292.09956709956697ZM360.54879741455665,291.96552593211237L325.5487974145567,310.14734411393084A1.1904761904761905,1.1904761904761905,0,1,1,324.4512025854433,308.03447406788763L359.45120258544324,289.85265588606916A1.1904761904761905,1.1904761904761905,0,1,1,360.54879741455665,291.96552593211237ZM323.956885823004,309.66462188825705L313.95688582300403,291.4828037064386A1.1904761904761905,1.1904761904761905,0,1,1,316.0431141769961,290.33537811174295L326.043114176996,308.5171962935614A1.1904761904761905,1.1904761904761905,0,1,1,323.956885823004,309.66462188825705Z" style="fill: gray;"></path></g></g></g><g transform="translate(0,0)"><path class="background" d="M0,0h800v400h-800Z" style="fill: none;"></path><g><g class="mark-trail role-mark concat_0_layer_0_layer_0_marks" clip-path="url(#clip3)"><path d="M98.28449921511444,161.27755005714556L123.28449921511444,143.09573187532715A2.9166666666666665,2.9166666666666665,0,1,1,126.71550078488556,147.81335903376237L101.71550078488556,165.99517721558078A2.9166666666666665,2.9166666666666665,0,0,1,98.28449921511444,161.27755005714556ZM127.55562973364022,144.04894910104264L177.55562973364022,234.9580400101334A2.9166666666666665,2.9166666666666665,0,1,1,172.44437026635978,237.76923271713764L122.44437026635978,146.86014180804688A2.9166666666666665,2.9166666666666665,0,1,1,127.55562973364022,144.04894910104264ZM172.20826825566985,235.51913751097564L228.03439295552272,53.950858414499535A2.0535714285714284,2.0535714285714284,0,1,1,231.9656070444774,55.140050676408336L177.79173174433015,237.2081352162954A2.9166666666666665,2.9166666666666665,0,1,1,172.20826825566985,235.51913751097564ZM230.84977390347572,52.67595195780752L270.72477093071797,71.13277667969282A1.7514880952380951,1.7514880952380951,0,1,1,269.2752290692819,74.32176877485199L229.1502260965244,56.41495713310035A2.0535714285714284,2.0535714285714284,0,1,1,230.84977390347572,52.67595195780752Z" style="fill: #bd9e45;"></path></g></g></g><g transform="translate(0,0)"><path class="background" d="M0,0h800v400h-800Z" style="fill: none;"></path><g><g class="mark-trail role-mark concat_0_layer_0_layer_0_marks" clip-path="url(#clip4)"><path d="M336.61147947550677,90.72444221918894L361.61147947550677,308.9062604010074A1.6220238095238095,1.6220238095238095,0,1,1,358.3885205244931,309.2755577808111L333.3885205244931,91.09373959899258A1.6220238095238095,1.6220238095238095,0,1,1,336.61147947550677,90.72444221918894ZM360.7477364773334,310.5303018097762L325.74773647733343,328.7121199915933A1.6220238095238095,1.6220238095238095,0,1,1,324.25226352266657,325.8333345538594L359.2522635226665,307.6515163720423A1.6220238095238095,1.6220238095238095,0,1,1,360.7477364773334,310.5303018097762ZM323.57875693384295,328.0544109591128L313.6543827116752,309.83099859948794A1.5357142857142856,1.5357142857142856,0,1,1,316.3456172883249,308.35081958233053L326.42124306615705,326.4910435863399A1.6220238095238095,1.6220238095238095,0,1,1,323.57875693384295,328.0544109591128ZM313.9669667806486,310.22724563219583L274.19919905476627,273.6081537670295A1.1904761904761905,1.1904761904761905,0,1,1,275.80080094523373,271.84639168751534L316.0330332193515,307.95457254962264A1.5357142857142856,1.5357142857142856,0,1,1,313.9669667806486,310.22724563219583ZM275.8577224444759,273.55283058008047L240.6089829355779,309.67705516640297A0.8452380952380952,0.8452380952380952,0,0,1,239.39101706442216,308.5047630154155L274.1422775555241,271.90171487446435A1.1904761904761905,1.1904761904761905,0,1,1,275.8577224444759,273.55283058008047ZM239.4314313288841,309.7163346291368L219.37337326035455,291.5983803227007A0.9315476190476191,0.9315476190476191,0,1,1,220.62662673964533,290.21980149548085L240.56856867111597,308.4654835526817A0.8452380952380952,0.8452380952380952,0,1,1,239.4314313288841,309.7163346291368ZM219.815535124941,291.8221920406325L129.86680810938242,273.3865725858297A0.6726190476190477,0.6726190476190477,0,1,1,130.1331918906177,272.0679728687151L220.1844648750589,289.995989777549A0.9315476190476191,0.9315476190476191,0,1,1,219.815535124941,291.8221920406325ZM130.5893595100028,273.05142045777393L120.43810795433825,291.15005028397684A0.5,0.5,0,1,1,119.56189204566161,290.6681315342047L129.41064048999732,272.4031249967709A0.6726190476190477,0.6726190476190477,0,1,1,130.5893595100028,273.05142045777393ZM119.99999999999993,291.40909090909076L109.99999999999997,291.40909090909076A0.5,0.5,0,1,1,109.99999999999997,290.40909090909076L119.99999999999993,290.40909090909076A0.5,0.5,0,1,1,119.99999999999993,291.40909090909076ZM110.48210269640187,291.0416691506013L105.48210269640197,309.2234873324198A0.5,0.5,0,1,1,104.51789730359818,308.9583308493987L109.51789730359808,290.7765126675802A0.5,0.5,0,1,1,110.48210269640187,291.0416691506013Z" style="fill: gray;"></path></g></g></g><g transform="translate(0,0)"><path class="background" d="M0,0h800v400h-800Z" style="fill: none;"></path><g><g class="mark-trail role-mark concat_0_layer_0_layer_0_marks" clip-path="url(#clip5)"><path d="M99.24903077886135,144.42196277547905L124.24903077886135,126.2401445936619A1.2767857142857142,1.2767857142857142,0,1,1,125.75096922113865,128.3053099517933L100.75096922113865,146.48712813361047A1.2767857142857142,1.2767857142857142,0,1,1,99.24903077886135,144.42196277547905Z" style="fill: #bd9e45;"></path></g></g></g><g transform="translate(0,0)"><path class="background" d="M0,0h800v400h-800Z" style="fill: none;"></path><g><g class="mark-trail role-mark concat_0_layer_0_layer_0_marks" clip-path="url(#clip6)"><path d="M130.58450807845907,36.409561998372894L110.58450807845898,290.95501654382684A0.5863095238095238,0.5863095238095238,0,1,1,109.41549192154096,290.8631652743547L129.41549192154105,36.317710728900764A0.5863095238095238,0.5863095238095238,0,1,1,130.58450807845907,36.409561998372894ZM110.56532280470934,291.0645546803858L105.56532280470944,309.2463728622043A0.5863095238095238,0.5863095238095238,0,1,1,104.4346771952907,308.9354453196142L109.4346771952906,290.7536271377957A0.5863095238095238,0.5863095238095238,0,1,1,110.56532280470934,291.0645546803858Z" style="fill: gray;"></path></g></g></g></g><g class="mark-symbol role-mark concat_0_layer_0_layer_1_marks" clip-path="url(#clip7)"><path transform="translate(100,200)" d="M2.7386127875258306,0A2.7386127875258306,2.7386127875258306,0,1,1,-2.7386127875258306,0A2.7386127875258306,2.7386127875258306,0,1,1,2.7386127875258306,0" style="fill: #bd9e45; stroke-width: 2; opacity: 1;"></path><path transform="translate(125,181.81818181818156)" d="M2.7386127875258306,0A2.7386127875258306,2.7386127875258306,0,1,1,-2.7386127875258306,0A2.7386127875258306,2.7386127875258306,0,1,1,2.7386127875258306,0" style="fill: #bd9e45; stroke-width: 2; opacity: 1;"></path><path transform="translate(175,272.7272727272724)" d="M2.7386127875258306,0A2.7386127875258306,2.7386127875258306,0,1,1,-2.7386127875258306,0A2.7386127875258306,2.7386127875258306,0,1,1,2.7386127875258306,0" style="fill: #bd9e45; stroke-width: 2; opacity: 1;"></path><path transform="translate(200,236.36363636363552)" d="M2.6586561231103922,0A2.6586561231103922,2.6586561231103922,0,1,1,-2.6586561231103922,0A2.6586561231103922,2.6586561231103922,0,1,1,2.6586561231103922,0" style="fill: #bd9e45; stroke-width: 2; opacity: 1;"></path><path transform="translate(250,218.18181818181841)" d="M2.5762190826683904,0A2.5762190826683904,2.5762190826683904,0,1,1,-2.5762190826683904,0A2.5762190826683904,2.5762190826683904,0,1,1,2.5762190826683904,0" style="fill: #bd9e45; stroke-width: 2; opacity: 1;"></path><path transform="translate(300,200)" d="M2.4910554274959726,0A2.4910554274959726,2.4910554274959726,0,1,1,-2.4910554274959726,0A2.4910554274959726,2.4910554274959726,0,1,1,2.4910554274959726,0" style="fill: #bd9e45; stroke-width: 2; opacity: 1;"></path><path transform="translate(325,181.81818181818156)" d="M2.311333360803219,0A2.311333360803219,2.311333360803219,0,1,1,-2.311333360803219,0A2.311333360803219,2.311333360803219,0,1,1,2.311333360803219,0" style="fill: #bd9e45; stroke-width: 2; opacity: 1;"></path><path transform="translate(350,163.63636363636317)" d="M2.166781132507498,0A2.166781132507498,2.166781132507498,0,1,1,-2.166781132507498,0A2.166781132507498,2.166781132507498,0,1,1,2.166781132507498,0" style="fill: #bd9e45; stroke-width: 2; opacity: 1;"></path><path transform="translate(400,145.45454545454476)" d="M2.011869540407391,0A2.011869540407391,2.011869540407391,0,1,1,-2.011869540407391,0A2.011869540407391,2.011869540407391,0,1,1,2.011869540407391,0" style="fill: #bd9e45; stroke-width: 2; opacity: 1;"></path><path transform="translate(415.00000000000006,127.2727272727276)" d="M1.984875850741588,0A1.984875850741588,1.984875850741588,0,1,1,-1.984875850741588,0A1.984875850741588,1.984875850741588,0,1,1,1.984875850741588,0" style="fill: #bd9e45; stroke-width: 2; opacity: 1;"></path><path transform="translate(500,218.18181818181841)" d="M1.8145001279376407,0A1.8145001279376407,1.8145001279376407,0,1,1,-1.8145001279376407,0A1.8145001279376407,1.8145001279376407,0,1,1,1.8145001279376407,0" style="fill: #bd9e45; stroke-width: 2; opacity: 1;"></path><path transform="translate(560.0000000000001,200)" d="M1.7845234124336418,0A1.7845234124336418,1.7845234124336418,0,1,1,-1.7845234124336418,0A1.7845234124336418,1.7845234124336418,0,1,1,1.7845234124336418,0" style="fill: #bd9e45; stroke-width: 2; opacity: 1;"></path><path transform="translate(619.9999999999999,90.90909090909076)" d="M1.704750889496203,0A1.704750889496203,1.704750889496203,0,1,1,-1.704750889496203,0A1.704750889496203,1.704750889496203,0,1,1,1.704750889496203,0" style="fill: #bd9e45; stroke-width: 2; opacity: 1;"></path><path transform="translate(675,109.09090909090924)" d="M1.52362350055011,0A1.52362350055011,1.52362350055011,0,1,1,-1.52362350055011,0A1.52362350055011,1.52362350055011,0,1,1,1.52362350055011,0" style="fill: #bd9e45; stroke-width: 2; opacity: 1;"></path><path transform="translate(700,90.90909090909076)" d="M1.52362350055011,0A1.52362350055011,1.52362350055011,0,1,1,-1.52362350055011,0A1.52362350055011,1.52362350055011,0,1,1,1.52362350055011,0" style="fill: #bd9e45; stroke-width: 2; opacity: 1;"></path><path transform="translate(780.0000000000001,36.36363636363683)" d="M1.52362350055011,0A1.52362350055011,1.52362350055011,0,1,1,-1.52362350055011,0A1.52362350055011,1.52362350055011,0,1,1,1.52362350055011,0" style="fill: gray; stroke-width: 2; opacity: 1;"></path><path transform="translate(775,54.545454545453936)" d="M1.5093951800386172,0A1.5093951800386172,1.5093951800386172,0,1,1,-1.5093951800386172,0A1.5093951800386172,1.5093951800386172,0,1,1,1.5093951800386172,0" style="fill: gray; stroke-width: 2; opacity: 1;"></path><path transform="translate(750,181.81818181818156)" d="M1.5022304845034362,0A1.5022304845034362,1.5022304845034362,0,1,1,-1.5022304845034362,0A1.5022304845034362,1.5022304845034362,0,1,1,1.5022304845034362,0" style="fill: gray; stroke-width: 2; opacity: 1;"></path><path transform="translate(739.9999999999999,181.81818181818156)" d="M1.4950314537223115,0A1.4950314537223115,1.4950314537223115,0,1,1,-1.4950314537223115,0A1.4950314537223115,1.4950314537223115,0,1,1,1.4950314537223115,0" style="fill: gray; stroke-width: 2; opacity: 1;"></path><path transform="translate(669.9999999999999,127.2727272727276)" d="M1.4286086304679875,0A1.4286086304679875,1.4286086304679875,0,1,1,-1.4286086304679875,0A1.4286086304679875,1.4286086304679875,0,1,1,1.4286086304679875,0" style="fill: gray; stroke-width: 2; opacity: 1;"></path><path transform="translate(614.9999999999999,145.45454545454476)" d="M1.1620871002517101,0A1.1620871002517101,1.1620871002517101,0,1,1,-1.1620871002517101,0A1.1620871002517101,1.1620871002517101,0,1,1,1.1620871002517101,0" style="fill: gray; stroke-width: 2; opacity: 1;"></path><path transform="translate(564.9999999999999,218.18181818181841)" d="M0.9808432960613899,0A0.9808432960613899,0.9808432960613899,0,1,1,-0.9808432960613899,0A0.9808432960613899,0.9808432960613899,0,1,1,0.9808432960613899,0" style="fill: gray; stroke-width: 2; opacity: 1;"></path><path transform="translate(500,254.54545454545396)" d="M0.8255589736945623,0A0.8255589736945623,0.8255589736945623,0,1,1,-0.8255589736945623,0A0.8255589736945623,0.8255589736945623,0,1,1,0.8255589736945623,0" style="fill: gray; stroke-width: 2; opacity: 1;"></path><path transform="translate(419.99999999999994,290.90909090909076)" d="M0.7715167498104596,0A0.7715167498104596,0.7715167498104596,0,1,1,-0.7715167498104596,0A0.7715167498104596,0.7715167498104596,0,1,1,0.7715167498104596,0" style="fill: gray; stroke-width: 2; opacity: 1;"></path><path transform="translate(359.99999999999994,290.90909090909076)" d="M0.7715167498104596,0A0.7715167498104596,0.7715167498104596,0,1,1,-0.7715167498104596,0A0.7715167498104596,0.7715167498104596,0,1,1,0.7715167498104596,0" style="fill: gray; stroke-width: 2; opacity: 1;"></path><path transform="translate(325,309.09090909090924)" d="M0.7715167498104596,0A0.7715167498104596,0.7715167498104596,0,1,1,-0.7715167498104596,0A0.7715167498104596,0.7715167498104596,0,1,1,0.7715167498104596,0" style="fill: gray; stroke-width: 2; opacity: 1;"></path><path transform="translate(315.00000000000006,290.90909090909076)" d="M0.7715167498104596,0A0.7715167498104596,0.7715167498104596,0,1,1,-0.7715167498104596,0A0.7715167498104596,0.7715167498104596,0,1,1,0.7715167498104596,0" style="fill: gray; stroke-width: 2; opacity: 1;"></path><path transform="translate(100,163.63636363636317)" d="M1.20761472884912,0A1.20761472884912,1.20761472884912,0,1,1,-1.20761472884912,0A1.20761472884912,1.20761472884912,0,1,1,1.20761472884912,0" style="fill: #bd9e45; stroke-width: 2; opacity: 1;"></path><path transform="translate(125,145.45454545454476)" d="M1.20761472884912,0A1.20761472884912,1.20761472884912,0,1,1,-1.20761472884912,0A1.20761472884912,1.20761472884912,0,1,1,1.20761472884912,0" style="fill: #bd9e45; stroke-width: 2; opacity: 1;"></path><path transform="translate(175,236.36363636363552)" d="M1.20761472884912,0A1.20761472884912,1.20761472884912,0,1,1,-1.20761472884912,0A1.20761472884912,1.20761472884912,0,1,1,1.20761472884912,0" style="fill: #bd9e45; stroke-width: 2; opacity: 1;"></path><path transform="translate(230.00000000000006,54.545454545453936)" d="M1.013304354222222,0A1.013304354222222,1.013304354222222,0,1,1,-1.013304354222222,0A1.013304354222222,1.013304354222222,0,1,1,1.013304354222222,0" style="fill: #bd9e45; stroke-width: 2; opacity: 1;"></path><path transform="translate(269.99999999999994,72.7272727272724)" d="M0.935811972363598,0A0.935811972363598,0.935811972363598,0,1,1,-0.935811972363598,0A0.935811972363598,0.935811972363598,0,1,1,0.935811972363598,0" style="fill: #bd9e45; stroke-width: 2; opacity: 1;"></path><path transform="translate(334.99999999999994,90.90909090909076)" d="M0.9005619938471225,0A0.9005619938471225,0.9005619938471225,0,1,1,-0.9005619938471225,0A0.9005619938471225,0.9005619938471225,0,1,1,0.9005619938471225,0" style="fill: gray; stroke-width: 2; opacity: 1;"></path><path transform="translate(359.99999999999994,309.09090909090924)" d="M0.9005619938471225,0A0.9005619938471225,0.9005619938471225,0,1,1,-0.9005619938471225,0A0.9005619938471225,0.9005619938471225,0,1,1,0.9005619938471225,0" style="fill: gray; stroke-width: 2; opacity: 1;"></path><path transform="translate(325,327.27272727272634)" d="M0.9005619938471225,0A0.9005619938471225,0.9005619938471225,0,1,1,-0.9005619938471225,0A0.9005619938471225,0.9005619938471225,0,1,1,0.9005619938471225,0" style="fill: gray; stroke-width: 2; opacity: 1;"></path><path transform="translate(315.00000000000006,309.09090909090924)" d="M0.876274581884664,0A0.876274581884664,0.876274581884664,0,1,1,-0.876274581884664,0A0.876274581884664,0.876274581884664,0,1,1,0.876274581884664,0" style="fill: gray; stroke-width: 2; opacity: 1;"></path><path transform="translate(275,272.7272727272724)" d="M0.7715167498104596,0A0.7715167498104596,0.7715167498104596,0,1,1,-0.7715167498104596,0A0.7715167498104596,0.7715167498104596,0,1,1,0.7715167498104596,0" style="fill: gray; stroke-width: 2; opacity: 1;"></path><path transform="translate(240.00000000000003,309.09090909090924)" d="M0.6500915686417165,0A0.6500915686417165,0.6500915686417165,0,1,1,-0.6500915686417165,0A0.6500915686417165,0.6500915686417165,0,1,1,0.6500915686417165,0" style="fill: gray; stroke-width: 2; opacity: 1;"></path><path transform="translate(219.99999999999994,290.90909090909076)" d="M0.6824762336695759,0A0.6824762336695759,0.6824762336695759,0,1,1,-0.6824762336695759,0A0.6824762336695759,0.6824762336695759,0,1,1,0.6824762336695759,0" style="fill: gray; stroke-width: 2; opacity: 1;"></path><path transform="translate(130.00000000000006,272.7272727272724)" d="M0.5799219980389809,0A0.5799219980389809,0.5799219980389809,0,1,1,-0.5799219980389809,0A0.5799219980389809,0.5799219980389809,0,1,1,0.5799219980389809,0" style="fill: gray; stroke-width: 2; opacity: 1;"></path><path transform="translate(119.99999999999993,290.90909090909076)" d="M0.5,0A0.5,0.5,0,1,1,-0.5,0A0.5,0.5,0,1,1,0.5,0" style="fill: gray; stroke-width: 2; opacity: 1;"></path><path transform="translate(109.99999999999997,290.90909090909076)" d="M0.5,0A0.5,0.5,0,1,1,-0.5,0A0.5,0.5,0,1,1,0.5,0" style="fill: gray; stroke-width: 2; opacity: 1;"></path><path transform="translate(105.00000000000007,309.09090909090924)" d="M0.5,0A0.5,0.5,0,1,1,-0.5,0A0.5,0.5,0,1,1,0.5,0" style="fill: gray; stroke-width: 2; opacity: 1;"></path><path transform="translate(100,145.45454545454476)" d="M0.7989949043284676,0A0.7989949043284676,0.7989949043284676,0,1,1,-0.7989949043284676,0A0.7989949043284676,0.7989949043284676,0,1,1,0.7989949043284676,0" style="fill: #bd9e45; stroke-width: 2; opacity: 1;"></path><path transform="translate(125,127.2727272727276)" d="M0.7989949043284676,0A0.7989949043284676,0.7989949043284676,0,1,1,-0.7989949043284676,0A0.7989949043284676,0.7989949043284676,0,1,1,0.7989949043284676,0" style="fill: #bd9e45; stroke-width: 2; opacity: 1;"></path><path transform="translate(130.00000000000006,36.36363636363683)" d="M0.5414376805365156,0A0.5414376805365156,0.5414376805365156,0,1,1,-0.5414376805365156,0A0.5414376805365156,0.5414376805365156,0,1,1,0.5414376805365156,0" style="fill: gray; stroke-width: 2; opacity: 1;"></path><path transform="translate(109.99999999999997,290.90909090909076)" d="M0.5414376805365156,0A0.5414376805365156,0.5414376805365156,0,1,1,-0.5414376805365156,0A0.5414376805365156,0.5414376805365156,0,1,1,0.5414376805365156,0" style="fill: gray; stroke-width: 2; opacity: 1;"></path><path transform="translate(105.00000000000007,309.09090909090924)" d="M0.5414376805365156,0A0.5414376805365156,0.5414376805365156,0,1,1,-0.5414376805365156,0A0.5414376805365156,0.5414376805365156,0,1,1,0.5414376805365156,0" style="fill: gray; stroke-width: 2; opacity: 1;"></path></g><g class="mark-symbol role-mark concat_0_layer_1_layer_0_marks"><path transform="translate(100,181.81818181818156)" d="M1.4142135623730951,0A1.4142135623730951,1.4142135623730951,0,1,1,-1.4142135623730951,0A1.4142135623730951,1.4142135623730951,0,1,1,1.4142135623730951,0" style="fill: none; stroke-width: 2; opacity: 0.7;"></path><path transform="translate(165.00000000000003,236.36363636363552)" d="M1.4142135623730951,0A1.4142135623730951,1.4142135623730951,0,1,1,-1.4142135623730951,0A1.4142135623730951,1.4142135623730951,0,1,1,1.4142135623730951,0" style="fill: none; stroke-width: 2; opacity: 0.7;"></path><path transform="translate(219.99999999999994,290.90909090909076)" d="M1.4142135623730951,0A1.4142135623730951,1.4142135623730951,0,1,1,-1.4142135623730951,0A1.4142135623730951,1.4142135623730951,0,1,1,1.4142135623730951,0" style="fill: none; stroke-width: 2; opacity: 0.7;"></path><path transform="translate(240.00000000000003,309.09090909090924)" d="M1.4142135623730951,0A1.4142135623730951,1.4142135623730951,0,1,1,-1.4142135623730951,0A1.4142135623730951,1.4142135623730951,0,1,1,1.4142135623730951,0" style="fill: none; stroke-width: 2; opacity: 0.7;"></path><path transform="translate(284.99999999999994,145.45454545454476)" d="M1.4142135623730951,0A1.4142135623730951,1.4142135623730951,0,1,1,-1.4142135623730951,0A1.4142135623730951,1.4142135623730951,0,1,1,1.4142135623730951,0" style="fill: none; stroke-width: 2; opacity: 0.7;"></path><path transform="translate(280.00000000000006,381.8181818181816)" d="M1.4142135623730951,0A1.4142135623730951,1.4142135623730951,0,1,1,-1.4142135623730951,0A1.4142135623730951,1.4142135623730951,0,1,1,1.4142135623730951,0" style="fill: none; stroke-width: 2; opacity: 0.7;"></path><path transform="translate(325,309.09090909090924)" d="M1.4142135623730951,0A1.4142135623730951,1.4142135623730951,0,1,1,-1.4142135623730951,0A1.4142135623730951,1.4142135623730951,0,1,1,1.4142135623730951,0" style="fill: none; stroke-width: 2; opacity: 0.7;"></path><path transform="translate(334.99999999999994,90.90909090909076)" d="M1.4142135623730951,0A1.4142135623730951,1.4142135623730951,0,1,1,-1.4142135623730951,0A1.4142135623730951,1.4142135623730951,0,1,1,1.4142135623730951,0" style="fill: none; stroke-width: 2; opacity: 0.7;"></path><path transform="translate(359.99999999999994,290.90909090909076)" d="M1.4142135623730951,0A1.4142135623730951,1.4142135623730951,0,1,1,-1.4142135623730951,0A1.4142135623730951,1.4142135623730951,0,1,1,1.4142135623730951,0" style="fill: none; stroke-width: 2; opacity: 0.7;"></path><path transform="translate(409.99999999999994,127.2727272727276)" d="M1.4142135623730951,0A1.4142135623730951,1.4142135623730951,0,1,1,-1.4142135623730951,0A1.4142135623730951,1.4142135623730951,0,1,1,1.4142135623730951,0" style="fill: none; stroke-width: 2; opacity: 0.7;"></path><path transform="translate(419.99999999999994,272.7272727272724)" d="M1.4142135623730951,0A1.4142135623730951,1.4142135623730951,0,1,1,-1.4142135623730951,0A1.4142135623730951,1.4142135623730951,0,1,1,1.4142135623730951,0" style="fill: none; stroke-width: 2; opacity: 0.7;"></path><path transform="translate(419.99999999999994,381.8181818181816)" d="M1.4142135623730951,0A1.4142135623730951,1.4142135623730951,0,1,1,-1.4142135623730951,0A1.4142135623730951,1.4142135623730951,0,1,1,1.4142135623730951,0" style="fill: none; stroke-width: 2; opacity: 0.7;"></path><path transform="translate(500,218.18181818181841)" d="M1.4142135623730951,0A1.4142135623730951,1.4142135623730951,0,1,1,-1.4142135623730951,0A1.4142135623730951,1.4142135623730951,0,1,1,1.4142135623730951,0" style="fill: none; stroke-width: 2; opacity: 0.7;"></path><path transform="translate(560.0000000000001,200)" d="M1.4142135623730951,0A1.4142135623730951,1.4142135623730951,0,1,1,-1.4142135623730951,0A1.4142135623730951,1.4142135623730951,0,1,1,1.4142135623730951,0" style="fill: none; stroke-width: 2; opacity: 0.7;"></path><path transform="translate(614.9999999999999,145.45454545454476)" d="M1.4142135623730951,0A1.4142135623730951,1.4142135623730951,0,1,1,-1.4142135623730951,0A1.4142135623730951,1.4142135623730951,0,1,1,1.4142135623730951,0" style="fill: none; stroke-width: 2; opacity: 0.7;"></path><path transform="translate(619.9999999999999,90.90909090909076)" d="M1.4142135623730951,0A1.4142135623730951,1.4142135623730951,0,1,1,-1.4142135623730951,0A1.4142135623730951,1.4142135623730951,0,1,1,1.4142135623730951,0" style="fill: none; stroke-width: 2; opacity: 0.7;"></path><path transform="translate(700,90.90909090909076)" d="M1.4142135623730951,0A1.4142135623730951,1.4142135623730951,0,1,1,-1.4142135623730951,0A1.4142135623730951,1.4142135623730951,0,1,1,1.4142135623730951,0" style="fill: none; stroke-width: 2; opacity: 0.7;"></path><path transform="translate(780.0000000000001,36.36363636363683)" d="M1.4142135623730951,0A1.4142135623730951,1.4142135623730951,0,1,1,-1.4142135623730951,0A1.4142135623730951,1.4142135623730951,0,1,1,1.4142135623730951,0" style="fill: none; stroke-width: 2; opacity: 0.7;"></path><path transform="translate(730.0000000000001,127.2727272727276)" d="M1.4142135623730951,0A1.4142135623730951,1.4142135623730951,0,1,1,-1.4142135623730951,0A1.4142135623730951,1.4142135623730951,0,1,1,1.4142135623730951,0" style="fill: none; stroke-width: 2; opacity: 0.7;"></path><path transform="translate(725,181.81818181818156)" d="M1.4142135623730951,0A1.4142135623730951,1.4142135623730951,0,1,1,-1.4142135623730951,0A1.4142135623730951,1.4142135623730951,0,1,1,1.4142135623730951,0" style="fill: none; stroke-width: 2; opacity: 0.7;"></path></g><g class="mark-text role-mark concat_0_layer_1_layer_1_marks"><text text-anchor="middle" transform="translate(100,184.81818181818156)" style="font-family: sans-serif; font-size: 11px; fill: black;">Kowno         </text><text text-anchor="middle" transform="translate(165.00000000000003,239.36363636363552)" style="font-family: sans-serif; font-size: 11px; fill: black;">Wilna         </text><text text-anchor="middle" transform="translate(219.99999999999994,293.90909090909076)" style="font-family: sans-serif; font-size: 11px; fill: black;">Smorgoni      </text><text text-anchor="middle" transform="translate(240.00000000000003,312.09090909090924)" style="font-family: sans-serif; font-size: 11px; fill: black;">Molodexno     </text><text text-anchor="middle" transform="translate(284.99999999999994,148.45454545454476)" style="font-family: sans-serif; font-size: 11px; fill: black;">Gloubokoe     </text><text text-anchor="middle" transform="translate(280.00000000000006,384.8181818181816)" style="font-family: sans-serif; font-size: 11px; fill: black;">Minsk         </text><text text-anchor="middle" transform="translate(325,312.09090909090924)" style="font-family: sans-serif; font-size: 11px; fill: black;">Studienska    </text><text text-anchor="middle" transform="translate(334.99999999999994,93.90909090909076)" style="font-family: sans-serif; font-size: 11px; fill: black;">Polotzk       </text><text text-anchor="middle" transform="translate(359.99999999999994,293.90909090909076)" style="font-family: sans-serif; font-size: 11px; fill: black;">Bobr          </text><text text-anchor="middle" transform="translate(409.99999999999994,130.2727272727276)" style="font-family: sans-serif; font-size: 11px; fill: black;">Witebsk       </text><text text-anchor="middle" transform="translate(419.99999999999994,275.7272727272724)" style="font-family: sans-serif; font-size: 11px; fill: black;">Orscha        </text><text text-anchor="middle" transform="translate(419.99999999999994,384.8181818181816)" style="font-family: sans-serif; font-size: 11px; fill: black;">Mohilow       </text><text text-anchor="middle" transform="translate(500,221.18181818181841)" style="font-family: sans-serif; font-size: 11px; fill: black;">Smolensk      </text><text text-anchor="middle" transform="translate(560.0000000000001,203)" style="font-family: sans-serif; font-size: 11px; fill: black;">Dorogobouge   </text><text text-anchor="middle" transform="translate(614.9999999999999,148.45454545454476)" style="font-family: sans-serif; font-size: 11px; fill: black;">Wixma         </text><text text-anchor="middle" transform="translate(619.9999999999999,93.90909090909076)" style="font-family: sans-serif; font-size: 11px; fill: black;">Chjat         </text><text text-anchor="middle" transform="translate(700,93.90909090909076)" style="font-family: sans-serif; font-size: 11px; fill: black;">Mojaisk </text><text text-anchor="middle" transform="translate(780.0000000000001,39.36363636363683)" style="font-family: sans-serif; font-size: 11px; fill: black;">Moscou                                 </text><text text-anchor="middle" transform="translate(730.0000000000001,130.2727272727276)" style="font-family: sans-serif; font-size: 11px; fill: black;">Tarantino                              </text><text text-anchor="middle" transform="translate(725,184.81818181818156)" style="font-family: sans-serif; font-size: 11px; fill: black;">Malo-jarosewli       </text></g><g class="mark-group role-axis"><g transform="translate(0.5,400.5)"><path class="background" d="M0,0h0v0h0Z" style="pointer-events: none; fill: none;"></path><g><g class="mark-rule role-axis-tick" style="pointer-events: none;"><line transform="translate(0,0)" x2="0" y2="5" style="fill: none; stroke: #888; stroke-width: 1; opacity: 1;"></line><line transform="translate(50,0)" x2="0" y2="5" style="fill: none; stroke: #888; stroke-width: 1; opacity: 1;"></line><line transform="translate(100,0)" x2="0" y2="5" style="fill: none; stroke: #888; stroke-width: 1; opacity: 1;"></line><line transform="translate(150,0)" x2="0" y2="5" style="fill: none; stroke: #888; stroke-width: 1; opacity: 1;"></line><line transform="translate(200,0)" x2="0" y2="5" style="fill: none; stroke: #888; stroke-width: 1; opacity: 1;"></line><line transform="translate(250,0)" x2="0" y2="5" style="fill: none; stroke: #888; stroke-width: 1; opacity: 1;"></line><line transform="translate(300,0)" x2="0" y2="5" style="fill: none; stroke: #888; stroke-width: 1; opacity: 1;"></line><line transform="translate(350,0)" x2="0" y2="5" style="fill: none; stroke: #888; stroke-width: 1; opacity: 1;"></line><line transform="translate(400,0)" x2="0" y2="5" style="fill: none; stroke: #888; stroke-width: 1; opacity: 1;"></line><line transform="translate(450,0)" x2="0" y2="5" style="fill: none; stroke: #888; stroke-width: 1; opacity: 1;"></line><line transform="translate(500,0)" x2="0" y2="5" style="fill: none; stroke: #888; stroke-width: 1; opacity: 1;"></line><line transform="translate(550,0)" x2="0" y2="5" style="fill: none; stroke: #888; stroke-width: 1; opacity: 1;"></line><line transform="translate(600,0)" x2="0" y2="5" style="fill: none; stroke: #888; stroke-width: 1; opacity: 1;"></line><line transform="translate(650,0)" x2="0" y2="5" style="fill: none; stroke: #888; stroke-width: 1; opacity: 1;"></line><line transform="translate(700,0)" x2="0" y2="5" style="fill: none; stroke: #888; stroke-width: 1; opacity: 1;"></line><line transform="translate(750,0)" x2="0" y2="5" style="fill: none; stroke: #888; stroke-width: 1; opacity: 1;"></line><line transform="translate(800,0)" x2="0" y2="5" style="fill: none; stroke: #888; stroke-width: 1; opacity: 1;"></line></g><g class="mark-text role-axis-label" style="pointer-events: none;"><text text-anchor="start" transform="translate(0,15)" style="font-family: sans-serif; font-size: 10px; fill: #000; opacity: 1;">22</text><text text-anchor="middle" transform="translate(50,15)" style="font-family: sans-serif; font-size: 10px; fill: #000; opacity: 1;">23</text><text text-anchor="middle" transform="translate(100,15)" style="font-family: sans-serif; font-size: 10px; fill: #000; opacity: 1;">24</text><text text-anchor="middle" transform="translate(150,15)" style="font-family: sans-serif; font-size: 10px; fill: #000; opacity: 1;">25</text><text text-anchor="middle" transform="translate(200,15)" style="font-family: sans-serif; font-size: 10px; fill: #000; opacity: 1;">26</text><text text-anchor="middle" transform="translate(250,15)" style="font-family: sans-serif; font-size: 10px; fill: #000; opacity: 1;">27</text><text text-anchor="middle" transform="translate(300,15)" style="font-family: sans-serif; font-size: 10px; fill: #000; opacity: 1;">28</text><text text-anchor="middle" transform="translate(350,15)" style="font-family: sans-serif; font-size: 10px; fill: #000; opacity: 1;">29</text><text text-anchor="middle" transform="translate(400,15)" style="font-family: sans-serif; font-size: 10px; fill: #000; opacity: 1;">30</text><text text-anchor="middle" transform="translate(450,15)" style="font-family: sans-serif; font-size: 10px; fill: #000; opacity: 1;">31</text><text text-anchor="middle" transform="translate(500,15)" style="font-family: sans-serif; font-size: 10px; fill: #000; opacity: 1;">32</text><text text-anchor="middle" transform="translate(550,15)" style="font-family: sans-serif; font-size: 10px; fill: #000; opacity: 1;">33</text><text text-anchor="middle" transform="translate(600,15)" style="font-family: sans-serif; font-size: 10px; fill: #000; opacity: 1;">34</text><text text-anchor="middle" transform="translate(650,15)" style="font-family: sans-serif; font-size: 10px; fill: #000; opacity: 1;">35</text><text text-anchor="middle" transform="translate(700,15)" style="font-family: sans-serif; font-size: 10px; fill: #000; opacity: 1;">36</text><text text-anchor="middle" transform="translate(750,15)" style="font-family: sans-serif; font-size: 10px; fill: #000; opacity: 1;">37</text><text text-anchor="end" transform="translate(800,15)" style="font-family: sans-serif; font-size: 10px; fill: #000; opacity: 1;">38</text></g><g class="mark-rule role-axis-domain" style="pointer-events: none;"><line transform="translate(0,0)" x2="800" y2="0" style="fill: none; stroke: #888; stroke-width: 1; opacity: 1;"></line></g><g class="mark-text role-axis-title" style="pointer-events: none;"><text text-anchor="middle" transform="translate(400,30)" style="font-family: sans-serif; font-size: 11px; font-weight: bold; fill: #000; opacity: 1;">Longitude</text></g></g></g></g><g class="mark-group role-axis"><g transform="translate(0.5,0.5)"><path class="background" d="M0,0h0v0h0Z" style="pointer-events: none; fill: none;"></path><g><g class="mark-rule role-axis-tick" style="pointer-events: none;"><line transform="translate(0,400)" x2="-5" y2="0" style="fill: none; stroke: #888; stroke-width: 1; opacity: 1;"></line><line transform="translate(0,364)" x2="-5" y2="0" style="fill: none; stroke: #888; stroke-width: 1; opacity: 1;"></line><line transform="translate(0,327)" x2="-5" y2="0" style="fill: none; stroke: #888; stroke-width: 1; opacity: 1;"></line><line transform="translate(0,291)" x2="-5" y2="0" style="fill: none; stroke: #888; stroke-width: 1; opacity: 1;"></line><line transform="translate(0,255)" x2="-5" y2="0" style="fill: none; stroke: #888; stroke-width: 1; opacity: 1;"></line><line transform="translate(0,218)" x2="-5" y2="0" style="fill: none; stroke: #888; stroke-width: 1; opacity: 1;"></line><line transform="translate(0,182)" x2="-5" y2="0" style="fill: none; stroke: #888; stroke-width: 1; opacity: 1;"></line><line transform="translate(0,145)" x2="-5" y2="0" style="fill: none; stroke: #888; stroke-width: 1; opacity: 1;"></line><line transform="translate(0,109)" x2="-5" y2="0" style="fill: none; stroke: #888; stroke-width: 1; opacity: 1;"></line><line transform="translate(0,73)" x2="-5" y2="0" style="fill: none; stroke: #888; stroke-width: 1; opacity: 1;"></line><line transform="translate(0,36)" x2="-5" y2="0" style="fill: none; stroke: #888; stroke-width: 1; opacity: 1;"></line><line transform="translate(0,0)" x2="-5" y2="0" style="fill: none; stroke: #888; stroke-width: 1; opacity: 1;"></line></g><g class="mark-text role-axis-label" style="pointer-events: none;"><text text-anchor="end" transform="translate(-7,403)" style="font-family: sans-serif; font-size: 10px; fill: #000; opacity: 1;">53.8</text><text text-anchor="end" transform="translate(-7,366.63636363636317)" style="font-family: sans-serif; font-size: 10px; fill: #000; opacity: 1;">54.0</text><text text-anchor="end" transform="translate(-7,330.27272727272634)" style="font-family: sans-serif; font-size: 10px; fill: #000; opacity: 1;">54.2</text><text text-anchor="end" transform="translate(-7,293.90909090909076)" style="font-family: sans-serif; font-size: 10px; fill: #000; opacity: 1;">54.4</text><text text-anchor="end" transform="translate(-7,257.54545454545394)" style="font-family: sans-serif; font-size: 10px; fill: #000; opacity: 1;">54.6</text><text text-anchor="end" transform="translate(-7,221.18181818181841)" style="font-family: sans-serif; font-size: 10px; fill: #000; opacity: 1;">54.8</text><text text-anchor="end" transform="translate(-7,184.81818181818156)" style="font-family: sans-serif; font-size: 10px; fill: #000; opacity: 1;">55.0</text><text text-anchor="end" transform="translate(-7,148.45454545454476)" style="font-family: sans-serif; font-size: 10px; fill: #000; opacity: 1;">55.2</text><text text-anchor="end" transform="translate(-7,112.09090909090924)" style="font-family: sans-serif; font-size: 10px; fill: #000; opacity: 1;">55.4</text><text text-anchor="end" transform="translate(-7,75.7272727272724)" style="font-family: sans-serif; font-size: 10px; fill: #000; opacity: 1;">55.6</text><text text-anchor="end" transform="translate(-7,39.36363636363683)" style="font-family: sans-serif; font-size: 10px; fill: #000; opacity: 1;">55.8</text><text text-anchor="end" transform="translate(-7,3)" style="font-family: sans-serif; font-size: 10px; fill: #000; opacity: 1;">56.0</text></g><g class="mark-rule role-axis-domain" style="pointer-events: none;"><line transform="translate(0,400)" x2="0" y2="-400" style="fill: none; stroke: #888; stroke-width: 1; opacity: 1;"></line></g><g class="mark-text role-axis-title" style="pointer-events: none;"><text text-anchor="middle" transform="translate(-32,200) rotate(-90) translate(0,-2)" style="font-family: sans-serif; font-size: 11px; font-weight: bold; fill: #000; opacity: 1;">Latitude</text></g></g></g></g></g></g></g><g class="mark-group role-scope concat_1_group"><g transform="translate(0,444)"><path class="background" d="M0.5,0.5h800v200h-800Z" style="fill: none; stroke: #ddd;"></path><g><g class="mark-group role-axis"><g transform="translate(0.5,200.5)"><path class="background" d="M0,0h0v0h0Z" style="pointer-events: none; fill: none;"></path><g><g class="mark-rule role-axis-grid" style="pointer-events: none;"><line transform="translate(0,-200)" x2="0" y2="200" style="fill: none; stroke: #ddd; stroke-width: 1; opacity: 1;"></line><line transform="translate(29,-200)" x2="0" y2="200" style="fill: none; stroke: #ddd; stroke-width: 1; opacity: 1;"></line><line transform="translate(57,-200)" x2="0" y2="200" style="fill: none; stroke: #ddd; stroke-width: 1; opacity: 1;"></line><line transform="translate(86,-200)" x2="0" y2="200" style="fill: none; stroke: #ddd; stroke-width: 1; opacity: 1;"></line><line transform="translate(114,-200)" x2="0" y2="200" style="fill: none; stroke: #ddd; stroke-width: 1; opacity: 1;"></line><line transform="translate(143,-200)" x2="0" y2="200" style="fill: none; stroke: #ddd; stroke-width: 1; opacity: 1;"></line><line transform="translate(171,-200)" x2="0" y2="200" style="fill: none; stroke: #ddd; stroke-width: 1; opacity: 1;"></line><line transform="translate(200,-200)" x2="0" y2="200" style="fill: none; stroke: #ddd; stroke-width: 1; opacity: 1;"></line><line transform="translate(229,-200)" x2="0" y2="200" style="fill: none; stroke: #ddd; stroke-width: 1; opacity: 1;"></line><line transform="translate(257,-200)" x2="0" y2="200" style="fill: none; stroke: #ddd; stroke-width: 1; opacity: 1;"></line><line transform="translate(286,-200)" x2="0" y2="200" style="fill: none; stroke: #ddd; stroke-width: 1; opacity: 1;"></line><line transform="translate(314,-200)" x2="0" y2="200" style="fill: none; stroke: #ddd; stroke-width: 1; opacity: 1;"></line><line transform="translate(343,-200)" x2="0" y2="200" style="fill: none; stroke: #ddd; stroke-width: 1; opacity: 1;"></line><line transform="translate(371,-200)" x2="0" y2="200" style="fill: none; stroke: #ddd; stroke-width: 1; opacity: 1;"></line><line transform="translate(400,-200)" x2="0" y2="200" style="fill: none; stroke: #ddd; stroke-width: 1; opacity: 1;"></line><line transform="translate(429,-200)" x2="0" y2="200" style="fill: none; stroke: #ddd; stroke-width: 1; opacity: 1;"></line><line transform="translate(457,-200)" x2="0" y2="200" style="fill: none; stroke: #ddd; stroke-width: 1; opacity: 1;"></line><line transform="translate(486,-200)" x2="0" y2="200" style="fill: none; stroke: #ddd; stroke-width: 1; opacity: 1;"></line><line transform="translate(514,-200)" x2="0" y2="200" style="fill: none; stroke: #ddd; stroke-width: 1; opacity: 1;"></line><line transform="translate(543,-200)" x2="0" y2="200" style="fill: none; stroke: #ddd; stroke-width: 1; opacity: 1;"></line><line transform="translate(571,-200)" x2="0" y2="200" style="fill: none; stroke: #ddd; stroke-width: 1; opacity: 1;"></line><line transform="translate(600,-200)" x2="0" y2="200" style="fill: none; stroke: #ddd; stroke-width: 1; opacity: 1;"></line><line transform="translate(629,-200)" x2="0" y2="200" style="fill: none; stroke: #ddd; stroke-width: 1; opacity: 1;"></line><line transform="translate(657,-200)" x2="0" y2="200" style="fill: none; stroke: #ddd; stroke-width: 1; opacity: 1;"></line><line transform="translate(686,-200)" x2="0" y2="200" style="fill: none; stroke: #ddd; stroke-width: 1; opacity: 1;"></line><line transform="translate(714,-200)" x2="0" y2="200" style="fill: none; stroke: #ddd; stroke-width: 1; opacity: 1;"></line><line transform="translate(743,-200)" x2="0" y2="200" style="fill: none; stroke: #ddd; stroke-width: 1; opacity: 1;"></line><line transform="translate(771,-200)" x2="0" y2="200" style="fill: none; stroke: #ddd; stroke-width: 1; opacity: 1;"></line><line transform="translate(800,-200)" x2="0" y2="200" style="fill: none; stroke: #ddd; stroke-width: 1; opacity: 1;"></line></g></g></g></g><g class="mark-group role-axis"><g transform="translate(0.5,0.5)"><path class="background" d="M0,0h0v0h0Z" style="pointer-events: none; fill: none;"></path><g><g class="mark-rule role-axis-grid" style="pointer-events: none;"><line transform="translate(0,175)" x2="800" y2="0" style="fill: none; stroke: #ddd; stroke-width: 1; opacity: 1;"></line><line transform="translate(0,125)" x2="800" y2="0" style="fill: none; stroke: #ddd; stroke-width: 1; opacity: 1;"></line><line transform="translate(0,75)" x2="800" y2="0" style="fill: none; stroke: #ddd; stroke-width: 1; opacity: 1;"></line><line transform="translate(0,25)" x2="800" y2="0" style="fill: none; stroke: #ddd; stroke-width: 1; opacity: 1;"></line></g></g></g></g><g class="mark-text role-mark concat_1_layer_0_marks"><text text-anchor="middle" transform="translate(769.1428571428572,13)" style="font-family: sans-serif; font-size: 10px; fill: black;">Oct 18  </text><text text-anchor="middle" transform="translate(677.7142857142857,13)" style="font-family: sans-serif; font-size: 10px; fill: black;">Oct 24 </text><text text-anchor="middle" transform="translate(517.7142857142859,58)" style="font-family: sans-serif; font-size: 10px; fill: black;">Nov 9   </text><text text-anchor="middle" transform="translate(449.1428571428571,118)" style="font-family: sans-serif; font-size: 10px; fill: black;">Nov 14  </text><text text-anchor="middle" transform="translate(249.14285714285717,113)" style="font-family: sans-serif; font-size: 10px; fill: black;">Nov 28  </text><text text-anchor="middle" transform="translate(174.8571428571428,133)" style="font-family: sans-serif; font-size: 10px; fill: black;">Dec 1   </text><text text-anchor="middle" transform="translate(146.28571428571425,163)" style="font-family: sans-serif; font-size: 10px; fill: black;">Dec 6   </text><text text-anchor="middle" transform="translate(66.28571428571432,143)" style="font-family: sans-serif; font-size: 10px; fill: black;">Dec 7</text></g><g class="mark-symbol role-mark concat_1_layer_1_marks"><path transform="translate(777.1428571428572,25)" d="M3.5355339059327378,0A3.5355339059327378,3.5355339059327378,0,1,1,-3.5355339059327378,0A3.5355339059327378,3.5355339059327378,0,1,1,3.5355339059327378,0" style="fill: black; stroke-width: 2; opacity: 0.7;"></path><path transform="translate(685.7142857142857,25)" d="M3.5355339059327378,0A3.5355339059327378,3.5355339059327378,0,1,1,-3.5355339059327378,0A3.5355339059327378,3.5355339059327378,0,1,1,3.5355339059327378,0" style="fill: black; stroke-width: 2; opacity: 0.7;"></path><path transform="translate(525.7142857142859,70)" d="M3.5355339059327378,0A3.5355339059327378,3.5355339059327378,0,1,1,-3.5355339059327378,0A3.5355339059327378,3.5355339059327378,0,1,1,3.5355339059327378,0" style="fill: black; stroke-width: 2; opacity: 0.7;"></path><path transform="translate(457.1428571428571,130)" d="M3.5355339059327378,0A3.5355339059327378,3.5355339059327378,0,1,1,-3.5355339059327378,0A3.5355339059327378,3.5355339059327378,0,1,1,3.5355339059327378,0" style="fill: black; stroke-width: 2; opacity: 0.7;"></path><path transform="translate(297.1428571428571,80)" d="M3.5355339059327378,0A3.5355339059327378,3.5355339059327378,0,1,1,-3.5355339059327378,0A3.5355339059327378,3.5355339059327378,0,1,1,3.5355339059327378,0" style="fill: black; stroke-width: 2; opacity: 0.7;"></path><path transform="translate(257.14285714285717,125)" d="M3.5355339059327378,0A3.5355339059327378,3.5355339059327378,0,1,1,-3.5355339059327378,0A3.5355339059327378,3.5355339059327378,0,1,1,3.5355339059327378,0" style="fill: black; stroke-width: 2; opacity: 0.7;"></path><path transform="translate(182.8571428571428,145)" d="M3.5355339059327378,0A3.5355339059327378,3.5355339059327378,0,1,1,-3.5355339059327378,0A3.5355339059327378,3.5355339059327378,0,1,1,3.5355339059327378,0" style="fill: black; stroke-width: 2; opacity: 0.7;"></path><path transform="translate(154.28571428571425,175)" d="M3.5355339059327378,0A3.5355339059327378,3.5355339059327378,0,1,1,-3.5355339059327378,0A3.5355339059327378,3.5355339059327378,0,1,1,3.5355339059327378,0" style="fill: black; stroke-width: 2; opacity: 0.7;"></path><path transform="translate(74.28571428571432,155)" d="M3.5355339059327378,0A3.5355339059327378,3.5355339059327378,0,1,1,-3.5355339059327378,0A3.5355339059327378,3.5355339059327378,0,1,1,3.5355339059327378,0" style="fill: black; stroke-width: 2; opacity: 0.7;"></path></g><g class="mark-line role-mark concat_1_layer_2_marks"><path d="M74.28571428571432,155L154.28571428571425,175L182.8571428571428,145L257.14285714285717,125L297.1428571428571,80L457.1428571428571,130L525.7142857142859,70L685.7142857142857,25L777.1428571428572,25" style="fill: none; stroke: black; stroke-width: 2;"></path></g><g class="mark-group role-axis"><g transform="translate(0.5,200.5)"><path class="background" d="M0,0h0v0h0Z" style="pointer-events: none; fill: none;"></path><g><g class="mark-rule role-axis-tick" style="pointer-events: none;"><line transform="translate(0,0)" x2="0" y2="5" style="fill: none; stroke: #888; stroke-width: 1; opacity: 1;"></line><line transform="translate(29,0)" x2="0" y2="5" style="fill: none; stroke: #888; stroke-width: 1; opacity: 1;"></line><line transform="translate(57,0)" x2="0" y2="5" style="fill: none; stroke: #888; stroke-width: 1; opacity: 1;"></line><line transform="translate(86,0)" x2="0" y2="5" style="fill: none; stroke: #888; stroke-width: 1; opacity: 1;"></line><line transform="translate(114,0)" x2="0" y2="5" style="fill: none; stroke: #888; stroke-width: 1; opacity: 1;"></line><line transform="translate(143,0)" x2="0" y2="5" style="fill: none; stroke: #888; stroke-width: 1; opacity: 1;"></line><line transform="translate(171,0)" x2="0" y2="5" style="fill: none; stroke: #888; stroke-width: 1; opacity: 1;"></line><line transform="translate(200,0)" x2="0" y2="5" style="fill: none; stroke: #888; stroke-width: 1; opacity: 1;"></line><line transform="translate(229,0)" x2="0" y2="5" style="fill: none; stroke: #888; stroke-width: 1; opacity: 1;"></line><line transform="translate(257,0)" x2="0" y2="5" style="fill: none; stroke: #888; stroke-width: 1; opacity: 1;"></line><line transform="translate(286,0)" x2="0" y2="5" style="fill: none; stroke: #888; stroke-width: 1; opacity: 1;"></line><line transform="translate(314,0)" x2="0" y2="5" style="fill: none; stroke: #888; stroke-width: 1; opacity: 1;"></line><line transform="translate(343,0)" x2="0" y2="5" style="fill: none; stroke: #888; stroke-width: 1; opacity: 1;"></line><line transform="translate(371,0)" x2="0" y2="5" style="fill: none; stroke: #888; stroke-width: 1; opacity: 1;"></line><line transform="translate(400,0)" x2="0" y2="5" style="fill: none; stroke: #888; stroke-width: 1; opacity: 1;"></line><line transform="translate(429,0)" x2="0" y2="5" style="fill: none; stroke: #888; stroke-width: 1; opacity: 1;"></line><line transform="translate(457,0)" x2="0" y2="5" style="fill: none; stroke: #888; stroke-width: 1; opacity: 1;"></line><line transform="translate(486,0)" x2="0" y2="5" style="fill: none; stroke: #888; stroke-width: 1; opacity: 1;"></line><line transform="translate(514,0)" x2="0" y2="5" style="fill: none; stroke: #888; stroke-width: 1; opacity: 1;"></line><line transform="translate(543,0)" x2="0" y2="5" style="fill: none; stroke: #888; stroke-width: 1; opacity: 1;"></line><line transform="translate(571,0)" x2="0" y2="5" style="fill: none; stroke: #888; stroke-width: 1; opacity: 1;"></line><line transform="translate(600,0)" x2="0" y2="5" style="fill: none; stroke: #888; stroke-width: 1; opacity: 1;"></line><line transform="translate(629,0)" x2="0" y2="5" style="fill: none; stroke: #888; stroke-width: 1; opacity: 1;"></line><line transform="translate(657,0)" x2="0" y2="5" style="fill: none; stroke: #888; stroke-width: 1; opacity: 1;"></line><line transform="translate(686,0)" x2="0" y2="5" style="fill: none; stroke: #888; stroke-width: 1; opacity: 1;"></line><line transform="translate(714,0)" x2="0" y2="5" style="fill: none; stroke: #888; stroke-width: 1; opacity: 1;"></line><line transform="translate(743,0)" x2="0" y2="5" style="fill: none; stroke: #888; stroke-width: 1; opacity: 1;"></line><line transform="translate(771,0)" x2="0" y2="5" style="fill: none; stroke: #888; stroke-width: 1; opacity: 1;"></line><line transform="translate(800,0)" x2="0" y2="5" style="fill: none; stroke: #888; stroke-width: 1; opacity: 1;"></line></g><g class="mark-text role-axis-label" style="pointer-events: none;"><text text-anchor="start" transform="translate(0,15)" style="font-family: sans-serif; font-size: 10px; fill: #000; opacity: 1;">24.0</text><text text-anchor="middle" transform="translate(28.57142857142857,15)" style="font-family: sans-serif; font-size: 10px; fill: #000; opacity: 0;">24.5</text><text text-anchor="middle" transform="translate(57.14285714285714,15)" style="font-family: sans-serif; font-size: 10px; fill: #000; opacity: 1;">25.0</text><text text-anchor="middle" transform="translate(85.71428571428571,15)" style="font-family: sans-serif; font-size: 10px; fill: #000; opacity: 0;">25.5</text><text text-anchor="middle" transform="translate(114.28571428571428,15)" style="font-family: sans-serif; font-size: 10px; fill: #000; opacity: 1;">26.0</text><text text-anchor="middle" transform="translate(142.85714285714286,15)" style="font-family: sans-serif; font-size: 10px; fill: #000; opacity: 0;">26.5</text><text text-anchor="middle" transform="translate(171.42857142857142,15)" style="font-family: sans-serif; font-size: 10px; fill: #000; opacity: 1;">27.0</text><text text-anchor="middle" transform="translate(200,15)" style="font-family: sans-serif; font-size: 10px; fill: #000; opacity: 0;">27.5</text><text text-anchor="middle" transform="translate(228.57142857142856,15)" style="font-family: sans-serif; font-size: 10px; fill: #000; opacity: 1;">28.0</text><text text-anchor="middle" transform="translate(257.14285714285717,15)" style="font-family: sans-serif; font-size: 10px; fill: #000; opacity: 0;">28.5</text><text text-anchor="middle" transform="translate(285.7142857142857,15)" style="font-family: sans-serif; font-size: 10px; fill: #000; opacity: 1;">29.0</text><text text-anchor="middle" transform="translate(314.2857142857143,15)" style="font-family: sans-serif; font-size: 10px; fill: #000; opacity: 0;">29.5</text><text text-anchor="middle" transform="translate(342.85714285714283,15)" style="font-family: sans-serif; font-size: 10px; fill: #000; opacity: 1;">30.0</text><text text-anchor="middle" transform="translate(371.42857142857144,15)" style="font-family: sans-serif; font-size: 10px; fill: #000; opacity: 0;">30.5</text><text text-anchor="middle" transform="translate(400,15)" style="font-family: sans-serif; font-size: 10px; fill: #000; opacity: 1;">31.0</text><text text-anchor="middle" transform="translate(428.57142857142856,15)" style="font-family: sans-serif; font-size: 10px; fill: #000; opacity: 0;">31.5</text><text text-anchor="middle" transform="translate(457.1428571428571,15)" style="font-family: sans-serif; font-size: 10px; fill: #000; opacity: 1;">32.0</text><text text-anchor="middle" transform="translate(485.71428571428567,15)" style="font-family: sans-serif; font-size: 10px; fill: #000; opacity: 0;">32.5</text><text text-anchor="middle" transform="translate(514.2857142857143,15)" style="font-family: sans-serif; font-size: 10px; fill: #000; opacity: 1;">33.0</text><text text-anchor="middle" transform="translate(542.8571428571429,15)" style="font-family: sans-serif; font-size: 10px; fill: #000; opacity: 0;">33.5</text><text text-anchor="middle" transform="translate(571.4285714285714,15)" style="font-family: sans-serif; font-size: 10px; fill: #000; opacity: 1;">34.0</text><text text-anchor="middle" transform="translate(600,15)" style="font-family: sans-serif; font-size: 10px; fill: #000; opacity: 0;">34.5</text><text text-anchor="middle" transform="translate(628.5714285714286,15)" style="font-family: sans-serif; font-size: 10px; fill: #000; opacity: 1;">35.0</text><text text-anchor="middle" transform="translate(657.1428571428571,15)" style="font-family: sans-serif; font-size: 10px; fill: #000; opacity: 0;">35.5</text><text text-anchor="middle" transform="translate(685.7142857142857,15)" style="font-family: sans-serif; font-size: 10px; fill: #000; opacity: 1;">36.0</text><text text-anchor="middle" transform="translate(714.2857142857143,15)" style="font-family: sans-serif; font-size: 10px; fill: #000; opacity: 0;">36.5</text><text text-anchor="middle" transform="translate(742.8571428571429,15)" style="font-family: sans-serif; font-size: 10px; fill: #000; opacity: 1;">37.0</text><text text-anchor="middle" transform="translate(771.4285714285714,15)" style="font-family: sans-serif; font-size: 10px; fill: #000; opacity: 0;">37.5</text><text text-anchor="end" transform="translate(800,15)" style="font-family: sans-serif; font-size: 10px; fill: #000; opacity: 1;">38.0</text></g><g class="mark-rule role-axis-domain" style="pointer-events: none;"><line transform="translate(0,0)" x2="800" y2="0" style="fill: none; stroke: #888; stroke-width: 1; opacity: 1;"></line></g><g class="mark-text role-axis-title" style="pointer-events: none;"><text text-anchor="middle" transform="translate(400,30)" style="font-family: sans-serif; font-size: 11px; font-weight: bold; fill: #000; opacity: 1;">Longitude</text></g></g></g></g><g class="mark-group role-axis"><g transform="translate(0.5,0.5)"><path class="background" d="M0,0h0v0h0Z" style="pointer-events: none; fill: none;"></path><g><g class="mark-rule role-axis-tick" style="pointer-events: none;"><line transform="translate(0,175)" x2="-5" y2="0" style="fill: none; stroke: #888; stroke-width: 1; opacity: 1;"></line><line transform="translate(0,125)" x2="-5" y2="0" style="fill: none; stroke: #888; stroke-width: 1; opacity: 1;"></line><line transform="translate(0,75)" x2="-5" y2="0" style="fill: none; stroke: #888; stroke-width: 1; opacity: 1;"></line><line transform="translate(0,25)" x2="-5" y2="0" style="fill: none; stroke: #888; stroke-width: 1; opacity: 1;"></line></g><g class="mark-text role-axis-label" style="pointer-events: none;"><text text-anchor="end" transform="translate(-7,178)" style="font-family: sans-serif; font-size: 10px; fill: #000; opacity: 1;">-30</text><text text-anchor="end" transform="translate(-7,128)" style="font-family: sans-serif; font-size: 10px; fill: #000; opacity: 1;">-20</text><text text-anchor="end" transform="translate(-7,78)" style="font-family: sans-serif; font-size: 10px; fill: #000; opacity: 1;">-10</text><text text-anchor="end" transform="translate(-7,28)" style="font-family: sans-serif; font-size: 10px; fill: #000; opacity: 1;">0</text></g><g class="mark-rule role-axis-domain" style="pointer-events: none;"><line transform="translate(0,200)" x2="0" y2="-200" style="fill: none; stroke: #888; stroke-width: 1; opacity: 1;"></line></g><g class="mark-text role-axis-title" style="pointer-events: none;"><text text-anchor="middle" transform="translate(-27,100) rotate(-90) translate(0,-2)" style="font-family: sans-serif; font-size: 11px; font-weight: bold; fill: #000; opacity: 1;">Temperatura</text></g></g></g></g></g></g></g><g class="mark-group role-legend"><g transform="translate(887,0)"><path class="background" d="M0,0h31v40h-31Z" style="pointer-events: none; fill: none;"></path><g><g class="mark-group role-legend-entry"><g transform="translate(0,16)"><path class="background" d="M0,0h0v0h0Z" style="pointer-events: none; fill: none;"></path><g><g class="mark-group role-scope"><g transform="translate(0,0)"><path class="background" d="M0,0h23v11h-23Z" style="pointer-events: none; fill: none; opacity: 1;"></path><g><g class="mark-symbol role-legend-symbol" style="pointer-events: none;"><path transform="translate(6,6)" d="M5,0A5,5,0,1,1,-5,0A5,5,0,1,1,5,0" style="fill: #bd9e45; stroke-width: 1.5; opacity: 1;"></path></g><g class="mark-text role-legend-label" style="pointer-events: none;"><text text-anchor="start" transform="translate(16,9)" style="font-family: sans-serif; font-size: 10px; fill: #000; opacity: 1;">A</text></g></g></g><g transform="translate(0,13)"><path class="background" d="M0,0h23v11h-23Z" style="pointer-events: none; fill: none; opacity: 1;"></path><g><g class="mark-symbol role-legend-symbol" style="pointer-events: none;"><path transform="translate(6,6)" d="M5,0A5,5,0,1,1,-5,0A5,5,0,1,1,5,0" style="fill: gray; stroke-width: 1.5; opacity: 1;"></path></g><g class="mark-text role-legend-label" style="pointer-events: none;"><text text-anchor="start" transform="translate(16,9)" style="font-family: sans-serif; font-size: 10px; fill: #000; opacity: 1;">R</text></g></g></g></g></g></g></g><g class="mark-text role-legend-title" style="pointer-events: none;"><text text-anchor="start" transform="translate(0,9)" style="font-family: sans-serif; font-size: 11px; font-weight: bold; fill: #000; opacity: 1;">direc</text></g></g></g></g><g class="mark-group role-legend"><g transform="translate(887,48)"><path class="background" d="M0,0h53v86h-53Z" style="pointer-events: none; fill: none;"></path><g><g class="mark-group role-legend-entry"><g transform="translate(0,16)"><path class="background" d="M0,0h0v0h0Z" style="pointer-events: none; fill: none;"></path><g><g class="mark-group role-scope"><g transform="translate(0,0)"><path class="background" d="M0,0h53v10h-53Z" style="pointer-events: none; fill: none; opacity: 1;"></path><g><g class="mark-symbol role-legend-symbol" style="pointer-events: none;"><path transform="translate(5,5)" d="M1.1147015402382487,0A1.1147015402382487,1.1147015402382487,0,1,1,-1.1147015402382487,0A1.1147015402382487,1.1147015402382487,0,1,1,1.1147015402382487,0" style="fill: black; fill-opacity: 1; stroke: none; stroke-width: 1.5; opacity: 1;"></path></g><g class="mark-text role-legend-label" style="pointer-events: none;"><text text-anchor="start" transform="translate(14,8)" style="font-family: sans-serif; font-size: 10px; fill: #000; opacity: 1;">50,000</text></g></g></g><g transform="translate(0,12)"><path class="background" d="M0,0h53v10h-53Z" style="pointer-events: none; fill: none; opacity: 1;"></path><g><g class="mark-symbol role-legend-symbol" style="pointer-events: none;"><path transform="translate(5,5)" d="M1.52362350055011,0A1.52362350055011,1.52362350055011,0,1,1,-1.52362350055011,0A1.52362350055011,1.52362350055011,0,1,1,1.52362350055011,0" style="fill: black; fill-opacity: 1; stroke: none; stroke-width: 1.5; opacity: 1;"></path></g><g class="mark-text role-legend-label" style="pointer-events: none;"><text text-anchor="start" transform="translate(14,8)" style="font-family: sans-serif; font-size: 10px; fill: #000; opacity: 1;">100,000</text></g></g></g><g transform="translate(0,24)"><path class="background" d="M0,0h53v10h-53Z" style="pointer-events: none; fill: none; opacity: 1;"></path><g><g class="mark-symbol role-legend-symbol" style="pointer-events: none;"><path transform="translate(5,5)" d="M1.8439895929878831,0A1.8439895929878831,1.8439895929878831,0,1,1,-1.8439895929878831,0A1.8439895929878831,1.8439895929878831,0,1,1,1.8439895929878831,0" style="fill: black; fill-opacity: 1; stroke: none; stroke-width: 1.5; opacity: 1;"></path></g><g class="mark-text role-legend-label" style="pointer-events: none;"><text text-anchor="start" transform="translate(14,8)" style="font-family: sans-serif; font-size: 10px; fill: #000; opacity: 1;">150,000</text></g></g></g><g transform="translate(0,36)"><path class="background" d="M0,0h53v10h-53Z" style="pointer-events: none; fill: none; opacity: 1;"></path><g><g class="mark-symbol role-legend-symbol" style="pointer-events: none;"><path transform="translate(5,5)" d="M2.116404183200049,0A2.116404183200049,2.116404183200049,0,1,1,-2.116404183200049,0A2.116404183200049,2.116404183200049,0,1,1,2.116404183200049,0" style="fill: black; fill-opacity: 1; stroke: none; stroke-width: 1.5; opacity: 1;"></path></g><g class="mark-text role-legend-label" style="pointer-events: none;"><text text-anchor="start" transform="translate(14,8)" style="font-family: sans-serif; font-size: 10px; fill: #000; opacity: 1;">200,000</text></g></g></g><g transform="translate(0,48)"><path class="background" d="M0,0h53v10h-53Z" style="pointer-events: none; fill: none; opacity: 1;"></path><g><g class="mark-symbol role-legend-symbol" style="pointer-events: none;"><path transform="translate(5,5)" d="M2.357548666366341,0A2.357548666366341,2.357548666366341,0,1,1,-2.357548666366341,0A2.357548666366341,2.357548666366341,0,1,1,2.357548666366341,0" style="fill: black; fill-opacity: 1; stroke: none; stroke-width: 1.5; opacity: 1;"></path></g><g class="mark-text role-legend-label" style="pointer-events: none;"><text text-anchor="start" transform="translate(14,8)" style="font-family: sans-serif; font-size: 10px; fill: #000; opacity: 1;">250,000</text></g></g></g><g transform="translate(0,60)"><path class="background" d="M0,0h53v10h-53Z" style="pointer-events: none; fill: none; opacity: 1;"></path><g><g class="mark-symbol role-legend-symbol" style="pointer-events: none;"><path transform="translate(5,5)" d="M2.5762190826683904,0A2.5762190826683904,2.5762190826683904,0,1,1,-2.5762190826683904,0A2.5762190826683904,2.5762190826683904,0,1,1,2.5762190826683904,0" style="fill: black; fill-opacity: 1; stroke: none; stroke-width: 1.5; opacity: 1;"></path></g><g class="mark-text role-legend-label" style="pointer-events: none;"><text text-anchor="start" transform="translate(14,8)" style="font-family: sans-serif; font-size: 10px; fill: #000; opacity: 1;">300,000</text></g></g></g></g></g></g></g><g class="mark-text role-legend-title" style="pointer-events: none;"><text text-anchor="start" transform="translate(0,9)" style="font-family: sans-serif; font-size: 11px; font-weight: bold; fill: #000; opacity: 1;">surviv</text></g></g></g></g></g></g></g></g></svg>