<svg class="marks" width="701" height="107" viewBox="0 0 701 107" version="1.1" xmlns="http://www.w3.org/2000/svg" xmlns:xlink="http://www.w3.org/1999/xlink"><defs><linearGradient id="gradient_0" x1="0" x2="0" y1="1" y2="0"><stop offset="0" stop-color="rgb(207, 225, 242)"></stop><stop offset="0.06666666666666671" stop-color="rgb(196, 219, 238)"></stop><stop offset="0.13333333333333341" stop-color="rgb(183, 213, 234)"></stop><stop offset="0.20000000000000012" stop-color="rgb(168, 206, 229)"></stop><stop offset="0.26666666666666655" stop-color="rgb(151, 197, 224)"></stop><stop offset="0.33333333333333326" stop-color="rgb(134, 188, 220)"></stop><stop offset="0.39999999999999997" stop-color="rgb(116, 178, 215)"></stop><stop offset="0.46666666666666634" stop-color="rgb(99, 168, 210)"></stop><stop offset="0.5333333333333333" stop-color="rgb(84, 157, 204)"></stop><stop offset="0.5999999999999998" stop-color="rgb(69, 146, 198)"></stop><stop offset="0.6666666666666667" stop-color="rgb(56, 135, 192)"></stop><stop offset="0.7333333333333332" stop-color="rgb(43, 123, 185)"></stop><stop offset="0.7999999999999996" stop-color="rgb(32, 111, 178)"></stop><stop offset="0.8666666666666666" stop-color="rgb(23, 98, 169)"></stop><stop offset="0.933333333333333" stop-color="rgb(15, 86, 157)"></stop><stop offset="1" stop-color="rgb(10, 74, 144)"></stop></linearGradient></defs><g transform="translate(5,22)"><g class="mark-group role-frame root"><g transform="translate(0,0)"><path class="background" d="M0.5,0.5h600v50h-600Z" style="fill: none; stroke: #ddd;"></path><g><g class="mark-group role-axis"><g transform="translate(0.5,50.5)"><path class="background" d="M0,0h0v0h0Z" style="pointer-events: none; fill: none;"></path><g><g class="mark-rule role-axis-grid" style="pointer-events: none;"><line transform="translate(11,0)" x2="0" y2="-50" style="fill: none; stroke: #ddd; stroke-width: 1; opacity: 1;"></line><line transform="translate(32,0)" x2="0" y2="-50" style="fill: none; stroke: #ddd; stroke-width: 1; opacity: 1;"></line><line transform="translate(54,0)" x2="0" y2="-50" style="fill: none; stroke: #ddd; stroke-width: 1; opacity: 1;"></line><line transform="translate(75,0)" x2="0" y2="-50" style="fill: none; stroke: #ddd; stroke-width: 1; opacity: 1;"></line><line transform="translate(96,0)" x2="0" y2="-50" style="fill: none; stroke: #ddd; stroke-width: 1; opacity: 1;"></line><line transform="translate(118,0)" x2="0" y2="-50" style="fill: none; stroke: #ddd; stroke-width: 1; opacity: 1;"></line><line transform="translate(139,0)" x2="0" y2="-50" style="fill: none; stroke: #ddd; stroke-width: 1; opacity: 1;"></line><line transform="translate(161,0)" x2="0" y2="-50" style="fill: none; stroke: #ddd; stroke-width: 1; opacity: 1;"></line><line transform="translate(182,0)" x2="0" y2="-50" style="fill: none; stroke: #ddd; stroke-width: 1; opacity: 1;"></line><line transform="translate(204,0)" x2="0" y2="-50" style="fill: none; stroke: #ddd; stroke-width: 1; opacity: 1;"></line><line transform="translate(225,0)" x2="0" y2="-50" style="fill: none; stroke: #ddd; stroke-width: 1; opacity: 1;"></line><line transform="translate(246,0)" x2="0" y2="-50" style="fill: none; stroke: #ddd; stroke-width: 1; opacity: 1;"></line><line transform="translate(268,0)" x2="0" y2="-50" style="fill: none; stroke: #ddd; stroke-width: 1; opacity: 1;"></line><line transform="translate(289,0)" x2="0" y2="-50" style="fill: none; stroke: #ddd; stroke-width: 1; opacity: 1;"></line><line transform="translate(311,0)" x2="0" y2="-50" style="fill: none; stroke: #ddd; stroke-width: 1; opacity: 1;"></line><line transform="translate(332,0)" x2="0" y2="-50" style="fill: none; stroke: #ddd; stroke-width: 1; opacity: 1;"></line><line transform="translate(354,0)" x2="0" y2="-50" style="fill: none; stroke: #ddd; stroke-width: 1; opacity: 1;"></line><line transform="translate(375,0)" x2="0" y2="-50" style="fill: none; stroke: #ddd; stroke-width: 1; opacity: 1;"></line><line transform="translate(396,0)" x2="0" y2="-50" style="fill: none; stroke: #ddd; stroke-width: 1; opacity: 1;"></line><line transform="translate(418,0)" x2="0" y2="-50" style="fill: none; stroke: #ddd; stroke-width: 1; opacity: 1;"></line><line transform="translate(439,0)" x2="0" y2="-50" style="fill: none; stroke: #ddd; stroke-width: 1; opacity: 1;"></line><line transform="translate(461,0)" x2="0" y2="-50" style="fill: none; stroke: #ddd; stroke-width: 1; opacity: 1;"></line><line transform="translate(482,0)" x2="0" y2="-50" style="fill: none; stroke: #ddd; stroke-width: 1; opacity: 1;"></line><line transform="translate(504,0)" x2="0" y2="-50" style="fill: none; stroke: #ddd; stroke-width: 1; opacity: 1;"></line><line transform="translate(525,0)" x2="0" y2="-50" style="fill: none; stroke: #ddd; stroke-width: 1; opacity: 1;"></line><line transform="translate(546,0)" x2="0" y2="-50" style="fill: none; stroke: #ddd; stroke-width: 1; opacity: 1;"></line><line transform="translate(568,0)" x2="0" y2="-50" style="fill: none; stroke: #ddd; stroke-width: 1; opacity: 1;"></line><line transform="translate(589,0)" x2="0" y2="-50" style="fill: none; stroke: #ddd; stroke-width: 1; opacity: 1;"></line></g></g><path class="foreground" d="" style="pointer-events: none; display: none; fill: none;"></path></g></g><g class="mark-symbol role-mark marks"><path transform="translate(10.714285714285722,25)" d="M5,0A5,5,0,1,1,-5,0A5,5,0,1,1,5,0" style="fill: rgb(10, 74, 144); stroke-width: 2; opacity: 0.7;"></path><path transform="translate(32.14285714285715,25)" d="M5,0A5,5,0,1,1,-5,0A5,5,0,1,1,5,0" style="fill: rgb(23, 98, 169); stroke-width: 2; opacity: 0.7;"></path><path transform="translate(53.57142857142858,25)" d="M5,0A5,5,0,1,1,-5,0A5,5,0,1,1,5,0" style="fill: rgb(27, 105, 173); stroke-width: 2; opacity: 0.7;"></path><path transform="translate(75,25)" d="M5,0A5,5,0,1,1,-5,0A5,5,0,1,1,5,0" style="fill: rgb(43, 123, 185); stroke-width: 2; opacity: 0.7;"></path><path transform="translate(96.42857142857143,25)" d="M5,0A5,5,0,1,1,-5,0A5,5,0,1,1,5,0" style="fill: rgb(38, 117, 182); stroke-width: 2; opacity: 0.7;"></path><path transform="translate(117.85714285714286,25)" d="M5,0A5,5,0,1,1,-5,0A5,5,0,1,1,5,0" style="fill: rgb(49, 129, 189); stroke-width: 2; opacity: 0.7;"></path><path transform="translate(139.28571428571428,25)" d="M5,0A5,5,0,1,1,-5,0A5,5,0,1,1,5,0" style="fill: rgb(56, 135, 192); stroke-width: 2; opacity: 0.7;"></path><path transform="translate(160.71428571428572,25)" d="M5,0A5,5,0,1,1,-5,0A5,5,0,1,1,5,0" style="fill: rgb(49, 129, 189); stroke-width: 2; opacity: 0.7;"></path><path transform="translate(182.14285714285714,25)" d="M5,0A5,5,0,1,1,-5,0A5,5,0,1,1,5,0" style="fill: rgb(84, 157, 204); stroke-width: 2; opacity: 0.7;"></path><path transform="translate(203.57142857142856,25)" d="M5,0A5,5,0,1,1,-5,0A5,5,0,1,1,5,0" style="fill: rgb(69, 146, 198); stroke-width: 2; opacity: 0.7;"></path><path transform="translate(225,25)" d="M5,0A5,5,0,1,1,-5,0A5,5,0,1,1,5,0" style="fill: rgb(99, 168, 210); stroke-width: 2; opacity: 0.7;"></path><path transform="translate(246.42857142857142,25)" d="M5,0A5,5,0,1,1,-5,0A5,5,0,1,1,5,0" style="fill: rgb(99, 168, 210); stroke-width: 2; opacity: 0.7;"></path><path transform="translate(267.85714285714283,25)" d="M5,0A5,5,0,1,1,-5,0A5,5,0,1,1,5,0" style="fill: rgb(116, 178, 215); stroke-width: 2; opacity: 0.7;"></path><path transform="translate(289.2857142857143,25)" d="M5,0A5,5,0,1,1,-5,0A5,5,0,1,1,5,0" style="fill: rgb(143, 193, 222); stroke-width: 2; opacity: 0.7;"></path><path transform="translate(310.7142857142857,25)" d="M5,0A5,5,0,1,1,-5,0A5,5,0,1,1,5,0" style="fill: rgb(134, 188, 220); stroke-width: 2; opacity: 0.7;"></path><path transform="translate(332.1428571428571,25)" d="M5,0A5,5,0,1,1,-5,0A5,5,0,1,1,5,0" style="fill: rgb(151, 197, 224); stroke-width: 2; opacity: 0.7;"></path><path transform="translate(353.57142857142856,25)" d="M5,0A5,5,0,1,1,-5,0A5,5,0,1,1,5,0" style="fill: rgb(160, 202, 227); stroke-width: 2; opacity: 0.7;"></path><path transform="translate(375,25)" d="M5,0A5,5,0,1,1,-5,0A5,5,0,1,1,5,0" style="fill: rgb(175, 209, 231); stroke-width: 2; opacity: 0.7;"></path><path transform="translate(396.4285714285714,25)" d="M5,0A5,5,0,1,1,-5,0A5,5,0,1,1,5,0" style="fill: rgb(190, 216, 236); stroke-width: 2; opacity: 0.7;"></path><path transform="translate(417.85714285714283,25)" d="M5,0A5,5,0,1,1,-5,0A5,5,0,1,1,5,0" style="fill: rgb(207, 225, 242); stroke-width: 2; opacity: 0.7;"></path><path transform="translate(439.2857142857143,25)" d="M5,0A5,5,0,1,1,-5,0A5,5,0,1,1,5,0" style="fill: rgb(207, 225, 242); stroke-width: 2; opacity: 0.7;"></path><path transform="translate(460.71428571428567,25)" d="M5,0A5,5,0,1,1,-5,0A5,5,0,1,1,5,0" style="fill: rgb(207, 225, 242); stroke-width: 2; opacity: 0.7;"></path><path transform="translate(482.1428571428571,25)" d="M5,0A5,5,0,1,1,-5,0A5,5,0,1,1,5,0" style="fill: rgb(207, 225, 242); stroke-width: 2; opacity: 0.7;"></path><path transform="translate(503.57142857142856,25)" d="M5,0A5,5,0,1,1,-5,0A5,5,0,1,1,5,0" style="fill: rgb(207, 225, 242); stroke-width: 2; opacity: 0.7;"></path><path transform="translate(525,25)" d="M5,0A5,5,0,1,1,-5,0A5,5,0,1,1,5,0" style="fill: rgb(201, 222, 240); stroke-width: 2; opacity: 0.7;"></path><path transform="translate(546.4285714285713,25)" d="M5,0A5,5,0,1,1,-5,0A5,5,0,1,1,5,0" style="fill: rgb(201, 222, 240); stroke-width: 2; opacity: 0.7;"></path><path transform="translate(567.8571428571429,25)" d="M5,0A5,5,0,1,1,-5,0A5,5,0,1,1,5,0" style="fill: rgb(196, 219, 238); stroke-width: 2; opacity: 0.7;"></path><path transform="translate(589.2857142857142,25)" d="M5,0A5,5,0,1,1,-5,0A5,5,0,1,1,5,0" style="fill: rgb(201, 222, 240); stroke-width: 2; opacity: 0.7;"></path></g><g class="mark-group role-legend"><g transform="translate(618,0)"><path class="background" d="M0,0h73v80h-73Z" style="pointer-events: none; fill: none;"></path><g><g class="mark-group role-legend-entry"><g transform="translate(0,16)"><path class="background" d="M0,0h0v0h0Z" style="pointer-events: none; fill: none;"></path><g><g class="mark-rect role-legend-gradient" style="pointer-events: none;"><path d="M0,0h16v64h-16Z" style="fill: url(#gradient_0); stroke: #ddd; stroke-width: 0; opacity: 0.7;"></path></g><g class="mark-text role-legend-label" style="pointer-events: none;"><text text-anchor="start" transform="translate(18,62)" style="font-family: sans-serif; font-size: 10px; fill: #000; opacity: 1;">7</text><text text-anchor="start" transform="translate(18,8)" style="font-family: sans-serif; font-size: 10px; fill: #000; opacity: 1;">10</text></g></g><path class="foreground" d="" style="pointer-events: none; display: none; fill: none;"></path></g></g><g class="mark-text role-legend-title" style="pointer-events: none;"><text text-anchor="start" transform="translate(0,9)" style="font-family: sans-serif; font-size: 11px; font-weight: bold; fill: #000; opacity: 1;">Marriage Rate</text></g></g><path class="foreground" d="" style="pointer-events: none; display: none; fill: none;"></path></g></g><g class="mark-group role-title"><g transform="translate(300,-17)"><path class="background" d="M0,0h0v0h0Z" style="pointer-events: none; fill: none;"></path><g><g class="mark-text role-title-text" style="pointer-events: none;"><text text-anchor="middle" transform="translate(0,10)" style="font-family: sans-serif; font-size: 13px; font-weight: bold; fill: #000; opacity: 1;">USA - Marriages per 1000 hab.</text></g></g><path class="foreground" d="" style="pointer-events: none; display: none; fill: none;"></path></g></g><g class="mark-group role-axis"><g transform="translate(0.5,50.5)"><path class="background" d="M0,0h0v0h0Z" style="pointer-events: none; fill: none;"></path><g><g class="mark-rule role-axis-tick" style="pointer-events: none;"><line transform="translate(11,0)" x2="0" y2="5" style="fill: none; stroke: #888; stroke-width: 1; opacity: 1;"></line><line transform="translate(32,0)" x2="0" y2="5" style="fill: none; stroke: #888; stroke-width: 1; opacity: 1;"></line><line transform="translate(54,0)" x2="0" y2="5" style="fill: none; stroke: #888; stroke-width: 1; opacity: 1;"></line><line transform="translate(75,0)" x2="0" y2="5" style="fill: none; stroke: #888; stroke-width: 1; opacity: 1;"></line><line transform="translate(96,0)" x2="0" y2="5" style="fill: none; stroke: #888; stroke-width: 1; opacity: 1;"></line><line transform="translate(118,0)" x2="0" y2="5" style="fill: none; stroke: #888; stroke-width: 1; opacity: 1;"></line><line transform="translate(139,0)" x2="0" y2="5" style="fill: none; stroke: #888; stroke-width: 1; opacity: 1;"></line><line transform="translate(161,0)" x2="0" y2="5" style="fill: none; stroke: #888; stroke-width: 1; opacity: 1;"></line><line transform="translate(182,0)" x2="0" y2="5" style="fill: none; stroke: #888; stroke-width: 1; opacity: 1;"></line><line transform="translate(204,0)" x2="0" y2="5" style="fill: none; stroke: #888; stroke-width: 1; opacity: 1;"></line><line transform="translate(225,0)" x2="0" y2="5" style="fill: none; stroke: #888; stroke-width: 1; opacity: 1;"></line><line transform="translate(246,0)" x2="0" y2="5" style="fill: none; stroke: #888; stroke-width: 1; opacity: 1;"></line><line transform="translate(268,0)" x2="0" y2="5" style="fill: none; stroke: #888; stroke-width: 1; opacity: 1;"></line><line transform="translate(289,0)" x2="0" y2="5" style="fill: none; stroke: #888; stroke-width: 1; opacity: 1;"></line><line transform="translate(311,0)" x2="0" y2="5" style="fill: none; stroke: #888; stroke-width: 1; opacity: 1;"></line><line transform="translate(332,0)" x2="0" y2="5" style="fill: none; stroke: #888; stroke-width: 1; opacity: 1;"></line><line transform="translate(354,0)" x2="0" y2="5" style="fill: none; stroke: #888; stroke-width: 1; opacity: 1;"></line><line transform="translate(375,0)" x2="0" y2="5" style="fill: none; stroke: #888; stroke-width: 1; opacity: 1;"></line><line transform="translate(396,0)" x2="0" y2="5" style="fill: none; stroke: #888; stroke-width: 1; opacity: 1;"></line><line transform="translate(418,0)" x2="0" y2="5" style="fill: none; stroke: #888; stroke-width: 1; opacity: 1;"></line><line transform="translate(439,0)" x2="0" y2="5" style="fill: none; stroke: #888; stroke-width: 1; opacity: 1;"></line><line transform="translate(461,0)" x2="0" y2="5" style="fill: none; stroke: #888; stroke-width: 1; opacity: 1;"></line><line transform="translate(482,0)" x2="0" y2="5" style="fill: none; stroke: #888; stroke-width: 1; opacity: 1;"></line><line transform="translate(504,0)" x2="0" y2="5" style="fill: none; stroke: #888; stroke-width: 1; opacity: 1;"></line><line transform="translate(525,0)" x2="0" y2="5" style="fill: none; stroke: #888; stroke-width: 1; opacity: 1;"></line><line transform="translate(546,0)" x2="0" y2="5" style="fill: none; stroke: #888; stroke-width: 1; opacity: 1;"></line><line transform="translate(568,0)" x2="0" y2="5" style="fill: none; stroke: #888; stroke-width: 1; opacity: 1;"></line><line transform="translate(589,0)" x2="0" y2="5" style="fill: none; stroke: #888; stroke-width: 1; opacity: 1;"></line></g><g class="mark-text role-axis-label" style="pointer-events: none;"><text text-anchor="end" transform="translate(10.714285714285722,7) rotate(270) translate(0,3)" style="font-family: sans-serif; font-size: 10px; fill: #000; opacity: 1;">1990</text><text text-anchor="end" transform="translate(32.14285714285715,7) rotate(270) translate(0,3)" style="font-family: sans-serif; font-size: 10px; fill: #000; opacity: 1;">1991</text><text text-anchor="end" transform="translate(53.57142857142858,7) rotate(270) translate(0,3)" style="font-family: sans-serif; font-size: 10px; fill: #000; opacity: 1;">1992</text><text text-anchor="end" transform="translate(75,7) rotate(270) translate(0,3)" style="font-family: sans-serif; font-size: 10px; fill: #000; opacity: 1;">1993</text><text text-anchor="end" transform="translate(96.42857142857143,7) rotate(270) translate(0,3)" style="font-family: sans-serif; font-size: 10px; fill: #000; opacity: 1;">1994</text><text text-anchor="end" transform="translate(117.85714285714286,7) rotate(270) translate(0,3)" style="font-family: sans-serif; font-size: 10px; fill: #000; opacity: 1;">1995</text><text text-anchor="end" transform="translate(139.28571428571428,7) rotate(270) translate(0,3)" style="font-family: sans-serif; font-size: 10px; fill: #000; opacity: 1;">1996</text><text text-anchor="end" transform="translate(160.71428571428572,7) rotate(270) translate(0,3)" style="font-family: sans-serif; font-size: 10px; fill: #000; opacity: 1;">1997</text><text text-anchor="end" transform="translate(182.14285714285714,7) rotate(270) translate(0,3)" style="font-family: sans-serif; font-size: 10px; fill: #000; opacity: 1;">1998</text><text text-anchor="end" transform="translate(203.57142857142856,7) rotate(270) translate(0,3)" style="font-family: sans-serif; font-size: 10px; fill: #000; opacity: 1;">1999</text><text text-anchor="end" transform="translate(225,7) rotate(270) translate(0,3)" style="font-family: sans-serif; font-size: 10px; fill: #000; opacity: 1;">2000</text><text text-anchor="end" transform="translate(246.42857142857142,7) rotate(270) translate(0,3)" style="font-family: sans-serif; font-size: 10px; fill: #000; opacity: 1;">2001</text><text text-anchor="end" transform="translate(267.85714285714283,7) rotate(270) translate(0,3)" style="font-family: sans-serif; font-size: 10px; fill: #000; opacity: 1;">2002</text><text text-anchor="end" transform="translate(289.2857142857143,7) rotate(270) translate(0,3)" style="font-family: sans-serif; font-size: 10px; fill: #000; opacity: 1;">2003</text><text text-anchor="end" transform="translate(310.7142857142857,7) rotate(270) translate(0,3)" style="font-family: sans-serif; font-size: 10px; fill: #000; opacity: 1;">2004</text><text text-anchor="end" transform="translate(332.1428571428571,7) rotate(270) translate(0,3)" style="font-family: sans-serif; font-size: 10px; fill: #000; opacity: 1;">2005</text><text text-anchor="end" transform="translate(353.57142857142856,7) rotate(270) translate(0,3)" style="font-family: sans-serif; font-size: 10px; fill: #000; opacity: 1;">2006</text><text text-anchor="end" transform="translate(375,7) rotate(270) translate(0,3)" style="font-family: sans-serif; font-size: 10px; fill: #000; opacity: 1;">2007</text><text text-anchor="end" transform="translate(396.4285714285714,7) rotate(270) translate(0,3)" style="font-family: sans-serif; font-size: 10px; fill: #000; opacity: 1;">2008</text><text text-anchor="end" transform="translate(417.85714285714283,7) rotate(270) translate(0,3)" style="font-family: sans-serif; font-size: 10px; fill: #000; opacity: 1;">2009</text><text text-anchor="end" transform="translate(439.2857142857143,7) rotate(270) translate(0,3)" style="font-family: sans-serif; font-size: 10px; fill: #000; opacity: 1;">2010</text><text text-anchor="end" transform="translate(460.71428571428567,7) rotate(270) translate(0,3)" style="font-family: sans-serif; font-size: 10px; fill: #000; opacity: 1;">2011</text><text text-anchor="end" transform="translate(482.1428571428571,7) rotate(270) translate(0,3)" style="font-family: sans-serif; font-size: 10px; fill: #000; opacity: 1;">2012</text><text text-anchor="end" transform="translate(503.57142857142856,7) rotate(270) translate(0,3)" style="font-family: sans-serif; font-size: 10px; fill: #000; opacity: 1;">2013</text><text text-anchor="end" transform="translate(525,7) rotate(270) translate(0,3)" style="font-family: sans-serif; font-size: 10px; fill: #000; opacity: 1;">2014</text><text text-anchor="end" transform="translate(546.4285714285713,7) rotate(270) translate(0,3)" style="font-family: sans-serif; font-size: 10px; fill: #000; opacity: 1;">2015</text><text text-anchor="end" transform="translate(567.8571428571429,7) rotate(270) translate(0,3)" style="font-family: sans-serif; font-size: 10px; fill: #000; opacity: 1;">2016</text><text text-anchor="end" transform="translate(589.2857142857142,7) rotate(270) translate(0,3)" style="font-family: sans-serif; font-size: 10px; fill: #000; opacity: 1;">2017</text></g><g class="mark-rule role-axis-domain" style="pointer-events: none;"><line transform="translate(0,0)" x2="600" y2="0" style="fill: none; stroke: #888; stroke-width: 1; opacity: 1;"></line></g></g><path class="foreground" d="" style="pointer-events: none; display: none; fill: none;"></path></g></g></g><path class="foreground" d="" style="display: none; fill: none;"></path></g></g></g></svg>