<svg class="marks" width="701" height="122" viewBox="0 0 701 122" version="1.1" xmlns="http://www.w3.org/2000/svg" xmlns:xlink="http://www.w3.org/1999/xlink"><defs><linearGradient id="gradient_0" x1="0" x2="0" y1="1" y2="0"><stop offset="0" stop-color="rgb(239, 249, 189)"></stop><stop offset="0.06666666666666671" stop-color="rgb(226, 244, 183)"></stop><stop offset="0.13333333333333341" stop-color="rgb(209, 237, 180)"></stop><stop offset="0.20000000000000012" stop-color="rgb(189, 229, 181)"></stop><stop offset="0.26666666666666655" stop-color="rgb(162, 218, 184)"></stop><stop offset="0.33333333333333326" stop-color="rgb(134, 208, 187)"></stop><stop offset="0.39999999999999997" stop-color="rgb(105, 197, 190)"></stop><stop offset="0.46666666666666634" stop-color="rgb(81, 186, 193)"></stop><stop offset="0.5333333333333333" stop-color="rgb(61, 173, 193)"></stop><stop offset="0.5999999999999998" stop-color="rgb(44, 158, 192)"></stop><stop offset="0.6666666666666667" stop-color="rgb(37, 139, 187)"></stop><stop offset="0.7333333333333332" stop-color="rgb(33, 120, 179)"></stop><stop offset="0.7999999999999996" stop-color="rgb(33, 99, 170)"></stop><stop offset="0.8666666666666666" stop-color="rgb(34, 80, 161)"></stop><stop offset="0.933333333333333" stop-color="rgb(33, 64, 148)"></stop><stop offset="1" stop-color="rgb(28, 49, 133)"></stop></linearGradient></defs><g transform="translate(5,22)"><g class="mark-group role-frame root"><g transform="translate(0,0)"><path class="background" d="M0.5,0.5h600v50h-600Z" style="fill: none; stroke: #ddd;"></path><g><g class="mark-group role-axis"><g transform="translate(0.5,50.5)"><path class="background" d="M0,0h0v0h0Z" style="pointer-events: none; fill: none;"></path><g><g class="mark-rule role-axis-grid" style="pointer-events: none;"><line transform="translate(10,0)" x2="0" y2="-50" style="fill: none; stroke: #ddd; stroke-width: 1; opacity: 1;"></line><line transform="translate(32,0)" x2="0" y2="-50" style="fill: none; stroke: #ddd; stroke-width: 1; opacity: 1;"></line><line transform="translate(53,0)" x2="0" y2="-50" style="fill: none; stroke: #ddd; stroke-width: 1; opacity: 1;"></line><line transform="translate(74,0)" x2="0" y2="-50" style="fill: none; stroke: #ddd; stroke-width: 1; opacity: 1;"></line><line transform="translate(96,0)" x2="0" y2="-50" style="fill: none; stroke: #ddd; stroke-width: 1; opacity: 1;"></line><line transform="translate(117,0)" x2="0" y2="-50" style="fill: none; stroke: #ddd; stroke-width: 1; opacity: 1;"></line><line transform="translate(139,0)" x2="0" y2="-50" style="fill: none; stroke: #ddd; stroke-width: 1; opacity: 1;"></line><line transform="translate(160,0)" x2="0" y2="-50" style="fill: none; stroke: #ddd; stroke-width: 1; opacity: 1;"></line><line transform="translate(182,0)" x2="0" y2="-50" style="fill: none; stroke: #ddd; stroke-width: 1; opacity: 1;"></line><line transform="translate(203,0)" x2="0" y2="-50" style="fill: none; stroke: #ddd; stroke-width: 1; opacity: 1;"></line><line transform="translate(225,0)" x2="0" y2="-50" style="fill: none; stroke: #ddd; stroke-width: 1; opacity: 1;"></line><line transform="translate(246,0)" x2="0" y2="-50" style="fill: none; stroke: #ddd; stroke-width: 1; opacity: 1;"></line><line transform="translate(267,0)" x2="0" y2="-50" style="fill: none; stroke: #ddd; stroke-width: 1; opacity: 1;"></line><line transform="translate(289,0)" x2="0" y2="-50" style="fill: none; stroke: #ddd; stroke-width: 1; opacity: 1;"></line><line transform="translate(310,0)" x2="0" y2="-50" style="fill: none; stroke: #ddd; stroke-width: 1; opacity: 1;"></line><line transform="translate(332,0)" x2="0" y2="-50" style="fill: none; stroke: #ddd; stroke-width: 1; opacity: 1;"></line><line transform="translate(353,0)" x2="0" y2="-50" style="fill: none; stroke: #ddd; stroke-width: 1; opacity: 1;"></line><line transform="translate(375,0)" x2="0" y2="-50" style="fill: none; stroke: #ddd; stroke-width: 1; opacity: 1;"></line><line transform="translate(396,0)" x2="0" y2="-50" style="fill: none; stroke: #ddd; stroke-width: 1; opacity: 1;"></line><line transform="translate(417,0)" x2="0" y2="-50" style="fill: none; stroke: #ddd; stroke-width: 1; opacity: 1;"></line><line transform="translate(439,0)" x2="0" y2="-50" style="fill: none; stroke: #ddd; stroke-width: 1; opacity: 1;"></line><line transform="translate(460,0)" x2="0" y2="-50" style="fill: none; stroke: #ddd; stroke-width: 1; opacity: 1;"></line><line transform="translate(482,0)" x2="0" y2="-50" style="fill: none; stroke: #ddd; stroke-width: 1; opacity: 1;"></line><line transform="translate(503,0)" x2="0" y2="-50" style="fill: none; stroke: #ddd; stroke-width: 1; opacity: 1;"></line><line transform="translate(524,0)" x2="0" y2="-50" style="fill: none; stroke: #ddd; stroke-width: 1; opacity: 1;"></line><line transform="translate(546,0)" x2="0" y2="-50" style="fill: none; stroke: #ddd; stroke-width: 1; opacity: 1;"></line><line transform="translate(567,0)" x2="0" y2="-50" style="fill: none; stroke: #ddd; stroke-width: 1; opacity: 1;"></line><line transform="translate(589,0)" x2="0" y2="-50" style="fill: none; stroke: #ddd; stroke-width: 1; opacity: 1;"></line></g></g><path class="foreground" d="" style="pointer-events: none; display: none; fill: none;"></path></g></g><g class="mark-rect role-mark marks"><path d="M0,0h21.428571428571427v50h-21.428571428571427Z" style="fill: rgb(28, 49, 133);"></path><path d="M21.428571428571427,0h21.428571428571427v50h-21.428571428571427Z" style="fill: rgb(34, 80, 161);"></path><path d="M42.857142857142854,0h21.428571428571427v50h-21.428571428571427Z" style="fill: rgb(34, 90, 165);"></path><path d="M64.28571428571428,0h21.428571428571427v50h-21.428571428571427Z" style="fill: rgb(33, 120, 179);"></path><path d="M85.71428571428571,0h21.428571428571427v50h-21.428571428571427Z" style="fill: rgb(33, 109, 175);"></path><path d="M107.14285714285714,0h21.428571428571427v50h-21.428571428571427Z" style="fill: rgb(33, 130, 184);"></path><path d="M128.57142857142856,0h21.428571428571427v50h-21.428571428571427Z" style="fill: rgb(37, 139, 187);"></path><path d="M150,0h21.428571428571427v50h-21.428571428571427Z" style="fill: rgb(33, 130, 184);"></path><path d="M171.42857142857142,0h21.428571428571427v50h-21.428571428571427Z" style="fill: rgb(61, 173, 193);"></path><path d="M192.85714285714283,0h21.428571428571427v50h-21.428571428571427Z" style="fill: rgb(44, 158, 192);"></path><path d="M214.28571428571428,0h21.428571428571427v50h-21.428571428571427Z" style="fill: rgb(81, 186, 193);"></path><path d="M235.7142857142857,0h21.428571428571427v50h-21.428571428571427Z" style="fill: rgb(81, 186, 193);"></path><path d="M257.1428571428571,0h21.428571428571427v50h-21.428571428571427Z" style="fill: rgb(105, 197, 190);"></path><path d="M278.57142857142856,0h21.428571428571427v50h-21.428571428571427Z" style="fill: rgb(148, 213, 185);"></path><path d="M300,0h21.428571428571427v50h-21.428571428571427Z" style="fill: rgb(134, 208, 187);"></path><path d="M321.4285714285714,0h21.428571428571427v50h-21.428571428571427Z" style="fill: rgb(162, 218, 184);"></path><path d="M342.85714285714283,0h21.428571428571427v50h-21.428571428571427Z" style="fill: rgb(175, 224, 182);"></path><path d="M364.2857142857143,0h21.428571428571427v50h-21.428571428571427Z" style="fill: rgb(199, 233, 181);"></path><path d="M385.71428571428567,0h21.428571428571427v50h-21.428571428571427Z" style="fill: rgb(219, 241, 180);"></path><path d="M407.1428571428571,0h21.428571428571427v50h-21.428571428571427Z" style="fill: rgb(239, 249, 189);"></path><path d="M428.57142857142856,0h21.428571428571427v50h-21.428571428571427Z" style="fill: rgb(239, 249, 189);"></path><path d="M449.99999999999994,0h21.428571428571427v50h-21.428571428571427Z" style="fill: rgb(239, 249, 189);"></path><path d="M471.4285714285714,0h21.428571428571427v50h-21.428571428571427Z" style="fill: rgb(239, 249, 189);"></path><path d="M492.85714285714283,0h21.428571428571427v50h-21.428571428571427Z" style="fill: rgb(239, 249, 189);"></path><path d="M514.2857142857142,0h21.428571428571427v50h-21.428571428571427Z" style="fill: rgb(232, 246, 186);"></path><path d="M535.7142857142857,0h21.428571428571427v50h-21.428571428571427Z" style="fill: rgb(232, 246, 186);"></path><path d="M557.1428571428571,0h21.428571428571427v50h-21.428571428571427Z" style="fill: rgb(226, 244, 183);"></path><path d="M578.5714285714286,0h21.428571428571427v50h-21.428571428571427Z" style="fill: rgb(232, 246, 186);"></path></g><g class="mark-group role-legend"><g transform="translate(618,0)"><path class="background" d="M0,0h73v80h-73Z" style="pointer-events: none; fill: none;"></path><g><g class="mark-group role-legend-entry"><g transform="translate(0,16)"><path class="background" d="M0,0h0v0h0Z" style="pointer-events: none; fill: none;"></path><g><g class="mark-rect role-legend-gradient" style="pointer-events: none;"><path d="M0,0h16v64h-16Z" style="fill: url(#gradient_0); stroke: #ddd; stroke-width: 0; opacity: 1;"></path></g><g class="mark-text role-legend-label" style="pointer-events: none;"><text text-anchor="start" transform="translate(18,62)" style="font-family: sans-serif; font-size: 10px; fill: #000; opacity: 1;">7</text><text text-anchor="start" transform="translate(18,8)" style="font-family: sans-serif; font-size: 10px; fill: #000; opacity: 1;">10</text></g></g><path class="foreground" d="" style="pointer-events: none; display: none; fill: none;"></path></g></g><g class="mark-text role-legend-title" style="pointer-events: none;"><text text-anchor="start" transform="translate(0,9)" style="font-family: sans-serif; font-size: 11px; font-weight: bold; fill: #000; opacity: 1;">Marriage Rate</text></g></g><path class="foreground" d="" style="pointer-events: none; display: none; fill: none;"></path></g></g><g class="mark-group role-title"><g transform="translate(300,-17)"><path class="background" d="M0,0h0v0h0Z" style="pointer-events: none; fill: none;"></path><g><g class="mark-text role-title-text" style="pointer-events: none;"><text text-anchor="middle" transform="translate(0,10)" style="font-family: sans-serif; font-size: 13px; font-weight: bold; fill: #000; opacity: 1;">USA - Marriages per 1000 hab.</text></g></g><path class="foreground" d="" style="pointer-events: none; display: none; fill: none;"></path></g></g><g class="mark-group role-axis"><g transform="translate(0.5,50.5)"><path class="background" d="M0,0h0v0h0Z" style="pointer-events: none; fill: none;"></path><g><g class="mark-rule role-axis-tick" style="pointer-events: none;"><line transform="translate(10,0)" x2="0" y2="5" style="fill: none; stroke: #888; stroke-width: 1; opacity: 1;"></line><line transform="translate(32,0)" x2="0" y2="5" style="fill: none; stroke: #888; stroke-width: 1; opacity: 1;"></line><line transform="translate(53,0)" x2="0" y2="5" style="fill: none; stroke: #888; stroke-width: 1; opacity: 1;"></line><line transform="translate(74,0)" x2="0" y2="5" style="fill: none; stroke: #888; stroke-width: 1; opacity: 1;"></line><line transform="translate(96,0)" x2="0" y2="5" style="fill: none; stroke: #888; stroke-width: 1; opacity: 1;"></line><line transform="translate(117,0)" x2="0" y2="5" style="fill: none; stroke: #888; stroke-width: 1; opacity: 1;"></line><line transform="translate(139,0)" x2="0" y2="5" style="fill: none; stroke: #888; stroke-width: 1; opacity: 1;"></line><line transform="translate(160,0)" x2="0" y2="5" style="fill: none; stroke: #888; stroke-width: 1; opacity: 1;"></line><line transform="translate(182,0)" x2="0" y2="5" style="fill: none; stroke: #888; stroke-width: 1; opacity: 1;"></line><line transform="translate(203,0)" x2="0" y2="5" style="fill: none; stroke: #888; stroke-width: 1; opacity: 1;"></line><line transform="translate(225,0)" x2="0" y2="5" style="fill: none; stroke: #888; stroke-width: 1; opacity: 1;"></line><line transform="translate(246,0)" x2="0" y2="5" style="fill: none; stroke: #888; stroke-width: 1; opacity: 1;"></line><line transform="translate(267,0)" x2="0" y2="5" style="fill: none; stroke: #888; stroke-width: 1; opacity: 1;"></line><line transform="translate(289,0)" x2="0" y2="5" style="fill: none; stroke: #888; stroke-width: 1; opacity: 1;"></line><line transform="translate(310,0)" x2="0" y2="5" style="fill: none; stroke: #888; stroke-width: 1; opacity: 1;"></line><line transform="translate(332,0)" x2="0" y2="5" style="fill: none; stroke: #888; stroke-width: 1; opacity: 1;"></line><line transform="translate(353,0)" x2="0" y2="5" style="fill: none; stroke: #888; stroke-width: 1; opacity: 1;"></line><line transform="translate(375,0)" x2="0" y2="5" style="fill: none; stroke: #888; stroke-width: 1; opacity: 1;"></line><line transform="translate(396,0)" x2="0" y2="5" style="fill: none; stroke: #888; stroke-width: 1; opacity: 1;"></line><line transform="translate(417,0)" x2="0" y2="5" style="fill: none; stroke: #888; stroke-width: 1; opacity: 1;"></line><line transform="translate(439,0)" x2="0" y2="5" style="fill: none; stroke: #888; stroke-width: 1; opacity: 1;"></line><line transform="translate(460,0)" x2="0" y2="5" style="fill: none; stroke: #888; stroke-width: 1; opacity: 1;"></line><line transform="translate(482,0)" x2="0" y2="5" style="fill: none; stroke: #888; stroke-width: 1; opacity: 1;"></line><line transform="translate(503,0)" x2="0" y2="5" style="fill: none; stroke: #888; stroke-width: 1; opacity: 1;"></line><line transform="translate(524,0)" x2="0" y2="5" style="fill: none; stroke: #888; stroke-width: 1; opacity: 1;"></line><line transform="translate(546,0)" x2="0" y2="5" style="fill: none; stroke: #888; stroke-width: 1; opacity: 1;"></line><line transform="translate(567,0)" x2="0" y2="5" style="fill: none; stroke: #888; stroke-width: 1; opacity: 1;"></line><line transform="translate(589,0)" x2="0" y2="5" style="fill: none; stroke: #888; stroke-width: 1; opacity: 1;"></line></g><g class="mark-text role-axis-label" style="pointer-events: none;"><text text-anchor="end" transform="translate(10.214285714285714,7) rotate(270) translate(0,3)" style="font-family: sans-serif; font-size: 10px; fill: #000; opacity: 1;">1990</text><text text-anchor="end" transform="translate(31.64285714285714,7) rotate(270) translate(0,3)" style="font-family: sans-serif; font-size: 10px; fill: #000; opacity: 1;">1991</text><text text-anchor="end" transform="translate(53.07142857142857,7) rotate(270) translate(0,3)" style="font-family: sans-serif; font-size: 10px; fill: #000; opacity: 1;">1992</text><text text-anchor="end" transform="translate(74.49999999999999,7) rotate(270) translate(0,3)" style="font-family: sans-serif; font-size: 10px; fill: #000; opacity: 1;">1993</text><text text-anchor="end" transform="translate(95.92857142857142,7) rotate(270) translate(0,3)" style="font-family: sans-serif; font-size: 10px; fill: #000; opacity: 1;">1994</text><text text-anchor="end" transform="translate(117.35714285714285,7) rotate(270) translate(0,3)" style="font-family: sans-serif; font-size: 10px; fill: #000; opacity: 1;">1995</text><text text-anchor="end" transform="translate(138.78571428571428,7) rotate(270) translate(0,3)" style="font-family: sans-serif; font-size: 10px; fill: #000; opacity: 1;">1996</text><text text-anchor="end" transform="translate(160.21428571428572,7) rotate(270) translate(0,3)" style="font-family: sans-serif; font-size: 10px; fill: #000; opacity: 1;">1997</text><text text-anchor="end" transform="translate(181.64285714285714,7) rotate(270) translate(0,3)" style="font-family: sans-serif; font-size: 10px; fill: #000; opacity: 1;">1998</text><text text-anchor="end" transform="translate(203.07142857142856,7) rotate(270) translate(0,3)" style="font-family: sans-serif; font-size: 10px; fill: #000; opacity: 1;">1999</text><text text-anchor="end" transform="translate(224.5,7) rotate(270) translate(0,3)" style="font-family: sans-serif; font-size: 10px; fill: #000; opacity: 1;">2000</text><text text-anchor="end" transform="translate(245.92857142857142,7) rotate(270) translate(0,3)" style="font-family: sans-serif; font-size: 10px; fill: #000; opacity: 1;">2001</text><text text-anchor="end" transform="translate(267.35714285714283,7) rotate(270) translate(0,3)" style="font-family: sans-serif; font-size: 10px; fill: #000; opacity: 1;">2002</text><text text-anchor="end" transform="translate(288.7857142857143,7) rotate(270) translate(0,3)" style="font-family: sans-serif; font-size: 10px; fill: #000; opacity: 1;">2003</text><text text-anchor="end" transform="translate(310.2142857142857,7) rotate(270) translate(0,3)" style="font-family: sans-serif; font-size: 10px; fill: #000; opacity: 1;">2004</text><text text-anchor="end" transform="translate(331.6428571428571,7) rotate(270) translate(0,3)" style="font-family: sans-serif; font-size: 10px; fill: #000; opacity: 1;">2005</text><text text-anchor="end" transform="translate(353.07142857142856,7) rotate(270) translate(0,3)" style="font-family: sans-serif; font-size: 10px; fill: #000; opacity: 1;">2006</text><text text-anchor="end" transform="translate(374.5,7) rotate(270) translate(0,3)" style="font-family: sans-serif; font-size: 10px; fill: #000; opacity: 1;">2007</text><text text-anchor="end" transform="translate(395.9285714285714,7) rotate(270) translate(0,3)" style="font-family: sans-serif; font-size: 10px; fill: #000; opacity: 1;">2008</text><text text-anchor="end" transform="translate(417.35714285714283,7) rotate(270) translate(0,3)" style="font-family: sans-serif; font-size: 10px; fill: #000; opacity: 1;">2009</text><text text-anchor="end" transform="translate(438.7857142857143,7) rotate(270) translate(0,3)" style="font-family: sans-serif; font-size: 10px; fill: #000; opacity: 1;">2010</text><text text-anchor="end" transform="translate(460.21428571428567,7) rotate(270) translate(0,3)" style="font-family: sans-serif; font-size: 10px; fill: #000; opacity: 1;">2011</text><text text-anchor="end" transform="translate(481.6428571428571,7) rotate(270) translate(0,3)" style="font-family: sans-serif; font-size: 10px; fill: #000; opacity: 1;">2012</text><text text-anchor="end" transform="translate(503.07142857142856,7) rotate(270) translate(0,3)" style="font-family: sans-serif; font-size: 10px; fill: #000; opacity: 1;">2013</text><text text-anchor="end" transform="translate(524.4999999999999,7) rotate(270) translate(0,3)" style="font-family: sans-serif; font-size: 10px; fill: #000; opacity: 1;">2014</text><text text-anchor="end" transform="translate(545.9285714285713,7) rotate(270) translate(0,3)" style="font-family: sans-serif; font-size: 10px; fill: #000; opacity: 1;">2015</text><text text-anchor="end" transform="translate(567.3571428571428,7) rotate(270) translate(0,3)" style="font-family: sans-serif; font-size: 10px; fill: #000; opacity: 1;">2016</text><text text-anchor="end" transform="translate(588.7857142857142,7) rotate(270) translate(0,3)" style="font-family: sans-serif; font-size: 10px; fill: #000; opacity: 1;">2017</text></g><g class="mark-rule role-axis-domain" style="pointer-events: none;"><line transform="translate(0,0)" x2="600" y2="0" style="fill: none; stroke: #888; stroke-width: 1; opacity: 1;"></line></g><g class="mark-text role-axis-title" style="pointer-events: none;"><text text-anchor="middle" transform="translate(300,42.24609375)" style="font-family: sans-serif; font-size: 11px; font-weight: bold; fill: #000; opacity: 1;">Year</text></g></g><path class="foreground" d="" style="pointer-events: none; display: none; fill: none;"></path></g></g></g><path class="foreground" d="" style="display: none; fill: none;"></path></g></g></g></svg>